<svg width="527" height="527" viewBox="0 0 527 527" fill="none" xmlns="http://www.w3.org/2000/svg">
<g opacity="0.8">
<path opacity="0.8" d="M148.221 409.46L229.446 295.66L244.203 306.192L162.979 419.992L148.221 409.46Z" fill="#7993F3"/>
<path opacity="0.8" d="M292.894 319.321L307.652 308.787L357.408 378.499L342.651 389.031L292.894 319.321Z" fill="#7993F3"/>
<path opacity="0.8" d="M147.737 104.956L162.83 94.8899L244.37 217.127L229.279 227.195L147.737 104.956Z" fill="#7993F3"/>
<path opacity="0.8" d="M283.57 217.189L365.313 94.6499L380.404 104.717L298.662 227.257L283.57 217.189Z" fill="#7993F3"/>
<path opacity="0.8" d="M118.891 253.939H209.583V272.078H118.891V253.939Z" fill="#7993F3"/>
<path opacity="0.8" d="M318.413 253.939H445.383V272.078H318.413V253.939Z" fill="#7993F3"/>
<path opacity="0.8" d="M436.311 18.1389H472.589C474.994 18.1389 477.301 19.0944 479.002 20.7952C480.703 22.4959 481.658 24.8027 481.658 27.2079V117.899C481.658 120.304 480.703 122.611 479.002 124.312C477.301 126.012 474.994 126.968 472.589 126.968H309.341C308.15 126.968 306.971 126.734 305.87 126.278C304.77 125.822 303.77 125.154 302.928 124.312C302.085 123.47 301.417 122.47 300.961 121.37C300.506 120.269 300.271 119.09 300.271 117.899V27.2079C300.271 26.0169 300.506 24.8375 300.961 23.7371C301.417 22.6368 302.085 21.637 302.928 20.7948C303.77 19.9527 304.77 19.2847 305.87 18.829C306.971 18.3733 308.15 18.1388 309.341 18.1389H436.311Z" fill="#A9B0BB"/>
<path opacity="0.8" d="M91.6841 290.212H137.03C139.435 290.212 141.742 289.257 143.443 287.556C145.144 285.855 146.099 283.548 146.099 281.143V244.862C146.085 240.056 144.17 235.451 140.771 232.052C137.373 228.654 132.767 226.739 127.961 226.725H91.6841V290.212Z" fill="#CAD0D7"/>
<path opacity="0.8" d="M508.861 190.452H436.309C433.927 190.452 431.569 190.921 429.368 191.833C427.168 192.744 425.168 194.08 423.484 195.765C421.8 197.449 420.464 199.449 419.552 201.65C418.641 203.85 418.172 206.209 418.172 208.591V317.419C418.172 319.801 418.641 322.16 419.552 324.36C420.464 326.561 421.8 328.561 423.484 330.245C425.168 331.929 427.168 333.266 429.368 334.177C431.569 335.089 433.927 335.558 436.309 335.558H508.861C513.672 335.558 518.286 333.647 521.688 330.245C525.089 326.843 527 322.23 527 317.419V208.591C527 203.78 525.089 199.166 521.688 195.765C518.286 192.363 513.672 190.452 508.861 190.452Z" fill="#CAD0D7"/>
<path opacity="0.8" d="M354.69 0H427.244C428.435 0 429.614 0.234577 430.715 0.690337C431.815 1.1461 432.815 1.81411 433.657 2.65625C434.499 3.49838 435.167 4.49814 435.623 5.59844C436.079 6.69875 436.313 7.87804 436.313 9.069V126.969H345.621V9.07C345.621 7.87896 345.855 6.69955 346.311 5.59914C346.767 4.49872 347.435 3.49884 348.277 2.6566C349.119 1.81436 350.119 1.14625 351.219 0.690432C352.32 0.23461 353.499 -7.24066e-09 354.69 0Z" fill="#CAD0D7"/>
<path opacity="0.8" d="M100.753 290.213V217.66C100.753 216.469 100.519 215.29 100.063 214.19C99.6071 213.089 98.939 212.089 98.0969 211.247C97.2548 210.405 96.255 209.737 95.1547 209.281C94.0544 208.826 92.8751 208.591 91.6842 208.591H10.0622C7.65692 208.591 5.35018 209.547 3.64941 211.247C1.94865 212.948 0.993164 215.255 0.993164 217.66V281.145C0.993164 283.55 1.94865 285.857 3.64941 287.558C5.35018 289.259 7.65692 290.214 10.0622 290.214L100.753 290.213Z" fill="#F2A149"/>
<path opacity="0.8" d="M37.2693 317.42C40.8565 317.42 44.3631 316.356 47.3458 314.364C50.3284 312.371 52.6532 309.538 54.0262 306.224C55.3992 302.91 55.7587 299.264 55.0592 295.745C54.3597 292.227 52.6328 288.995 50.0966 286.458C47.5605 283.921 44.3291 282.194 40.811 281.493C37.2929 280.793 33.6461 281.151 30.3317 282.523C27.0173 283.895 24.1842 286.219 22.1906 289.201C20.197 292.184 19.1323 295.69 19.1313 299.277C19.1308 301.659 19.5996 304.018 20.5109 306.22C21.4221 308.421 22.7581 310.421 24.4424 312.105C26.1267 313.79 28.1264 315.127 30.3272 316.039C32.5281 316.951 34.887 317.42 37.2693 317.42Z" fill="#5273EB"/>
<path opacity="0.8" d="M109.822 317.42C113.409 317.42 116.916 316.356 119.898 314.364C122.881 312.371 125.206 309.538 126.579 306.224C127.952 302.91 128.311 299.264 127.612 295.745C126.912 292.227 125.185 288.995 122.649 286.458C120.113 283.921 116.882 282.194 113.364 281.493C109.846 280.793 106.199 281.151 102.884 282.523C99.5701 283.895 96.7369 286.219 94.7433 289.201C92.7497 292.184 91.6851 295.69 91.6841 299.277C91.6834 301.659 92.1521 304.019 93.0633 306.22C93.9745 308.421 95.3105 310.421 96.9948 312.106C98.6791 313.791 100.679 315.127 102.88 316.039C105.081 316.951 107.44 317.42 109.822 317.42Z" fill="#5273EB"/>
<path opacity="0.8" d="M173.307 18.1389H82.6154C80.2101 18.1389 77.9034 19.0944 76.2026 20.7952C74.5019 22.4959 73.5464 24.8027 73.5464 27.2079V117.899C73.5464 120.304 74.5019 122.611 76.2026 124.312C77.9034 126.012 80.2101 126.968 82.6154 126.968H173.307C175.713 126.968 178.019 126.012 179.72 124.312C181.421 122.611 182.376 120.304 182.376 117.899V27.2079C182.376 24.8027 181.421 22.4959 179.72 20.7952C178.019 19.0944 175.713 18.1389 173.307 18.1389Z" fill="#CE9965"/>
<path opacity="0.8" d="M263.997 344.628C280.14 344.628 295.921 339.841 309.344 330.872C322.766 321.904 333.228 309.156 339.406 294.241C345.584 279.327 347.2 262.916 344.051 247.082C340.901 231.249 333.128 216.706 321.712 205.291C310.297 193.876 295.754 186.102 279.921 182.952C264.088 179.803 247.676 181.419 232.762 187.597C217.847 193.775 205.1 204.237 196.131 217.659C187.162 231.082 182.375 246.863 182.375 263.006C182.375 284.653 190.975 305.414 206.282 320.721C221.589 336.028 242.35 344.628 263.997 344.628Z" fill="#5273EB"/>
<path opacity="0.8" d="M363.757 453.458C369.712 453.458 375.609 454.631 381.111 456.91C386.613 459.189 391.612 462.53 395.823 466.741C400.033 470.952 403.373 475.952 405.652 481.454C407.93 486.956 409.103 492.853 409.102 498.808V516.945C409.102 518.136 408.868 519.316 408.412 520.416C407.956 521.517 407.288 522.517 406.446 523.359C405.604 524.201 404.604 524.869 403.503 525.325C402.403 525.781 401.223 526.015 400.032 526.015H327.48C326.289 526.015 325.109 525.781 324.009 525.325C322.908 524.87 321.908 524.202 321.066 523.359C320.224 522.517 319.556 521.517 319.1 520.416C318.645 519.316 318.411 518.136 318.411 516.945V498.808C318.411 492.853 319.584 486.956 321.863 481.455C324.141 475.953 327.482 470.954 331.692 466.743C335.903 462.532 340.902 459.192 346.404 456.914C351.905 454.635 357.802 453.462 363.757 453.462V453.458Z" fill="#FA6C51"/>
<path opacity="0.8" d="M327.481 408.111V417.181C327.481 422.245 328.542 427.254 330.595 431.883C332.648 436.513 335.647 440.662 339.4 444.062C343.153 447.463 347.577 450.04 352.386 451.628C357.195 453.215 362.283 453.778 367.323 453.281C376.458 452.152 384.853 447.684 390.892 440.737C396.931 433.79 400.188 424.855 400.035 415.652V408.107L327.481 408.111Z" fill="#EFC7A4"/>
<path opacity="0.8" d="M400.035 408.112V393.039C400.343 389.242 399.874 385.422 398.656 381.812C397.437 378.202 395.495 374.879 392.949 372.046C390.402 369.212 387.304 366.928 383.845 365.332C380.385 363.737 376.636 362.864 372.828 362.767H354.688C347.472 362.768 340.553 365.635 335.451 370.737C330.348 375.839 327.482 382.759 327.481 389.974V408.111L400.035 408.112Z" fill="#FDCD56"/>
<path opacity="0.8" d="M218.652 417.181H73.5464L129.684 377.096C134.474 373.674 140.213 371.835 146.099 371.835C151.986 371.835 157.725 373.674 162.514 377.096L218.652 417.181Z" fill="#5273EB"/>
<path opacity="0.8" d="M73.5464 417.182H218.652V526.012H73.5464V417.182Z" fill="#CAD0D7"/>
<path opacity="0.8" d="M463.518 263.004C461.113 263.004 458.807 262.049 457.106 260.348L448.037 251.279C446.392 249.568 445.483 247.279 445.506 244.905C445.529 242.531 446.482 240.261 448.161 238.582C449.839 236.902 452.109 235.949 454.483 235.925C456.857 235.901 459.146 236.809 460.858 238.454L464.667 242.263L485.69 228.251C487.692 226.916 490.141 226.431 492.5 226.902C494.86 227.373 496.935 228.762 498.27 230.763C499.605 232.764 500.091 235.214 499.62 237.573C499.148 239.933 497.76 242.008 495.758 243.343L468.551 261.48C467.061 262.474 465.31 263.004 463.518 263.004Z" fill="#7694FF"/>
<path opacity="0.8" d="M463.518 308.352C461.113 308.352 458.807 307.396 457.106 305.696L448.037 296.626C446.397 294.914 445.493 292.627 445.518 290.256C445.543 287.885 446.497 285.618 448.173 283.941C449.85 282.264 452.116 281.31 454.487 281.284C456.859 281.258 459.145 282.162 460.858 283.802L464.667 287.611L485.69 273.599C486.681 272.938 487.793 272.478 488.961 272.247C490.13 272.015 491.332 272.016 492.501 272.25C493.669 272.483 494.779 272.944 495.769 273.606C496.759 274.269 497.609 275.12 498.27 276.111C498.931 277.102 499.391 278.213 499.622 279.382C499.854 280.55 499.853 281.753 499.62 282.921C499.386 284.089 498.925 285.2 498.263 286.19C497.6 287.18 496.749 288.03 495.758 288.691L468.551 306.83C467.061 307.824 465.31 308.354 463.518 308.352Z" fill="#7694FF"/>
<path opacity="0.8" d="M381.894 126.968V108.83C381.881 107.631 382.107 106.442 382.557 105.33C383.007 104.219 383.673 103.208 384.516 102.356C385.36 101.504 386.364 100.827 387.47 100.365C388.577 99.9035 389.764 99.6658 390.963 99.6658C392.162 99.6658 393.349 99.9035 394.455 100.365C395.562 100.827 396.566 101.504 397.409 102.356C398.252 103.208 398.918 104.219 399.368 105.33C399.818 106.442 400.044 107.631 400.031 108.83V126.968H381.894Z" fill="#A9B0BB"/>
<path opacity="0.8" d="M127.96 462.522H109.822C108.623 462.535 107.434 462.309 106.322 461.859C105.211 461.409 104.2 460.743 103.348 459.9C102.495 459.057 101.819 458.053 101.357 456.946C100.895 455.84 100.658 454.653 100.658 453.454C100.658 452.255 100.895 451.067 101.357 449.961C101.819 448.854 102.495 447.851 103.348 447.007C104.2 446.164 105.211 445.498 106.322 445.048C107.434 444.598 108.623 444.372 109.822 444.385H127.96C129.159 444.372 130.348 444.598 131.46 445.048C132.571 445.498 133.582 446.164 134.434 447.007C135.286 447.851 135.963 448.854 136.425 449.961C136.886 451.067 137.124 452.255 137.124 453.454C137.124 454.653 136.886 455.84 136.425 456.946C135.963 458.053 135.286 459.057 134.434 459.9C133.582 460.743 132.571 461.409 131.46 461.859C130.348 462.309 129.159 462.535 127.96 462.522Z" fill="#CE9965"/>
<path opacity="0.8" d="M409.103 417.182H318.413C316.008 417.182 313.701 416.226 312 414.526C310.299 412.825 309.344 410.518 309.344 408.112C309.344 405.707 310.299 403.4 312 401.699C313.701 399.999 316.008 399.043 318.413 399.043H409.104C411.51 399.043 413.817 399.999 415.517 401.699C417.218 403.4 418.174 405.707 418.174 408.112C418.174 410.518 417.218 412.825 415.517 414.526C413.817 416.226 411.51 417.182 409.104 417.182H409.103Z" fill="#F2A149"/>
<path opacity="0.8" d="M363.755 380.904C362.564 380.904 361.385 380.67 360.284 380.214C359.184 379.758 358.184 379.09 357.342 378.248C356.499 377.406 355.831 376.406 355.376 375.306C354.92 374.205 354.685 373.026 354.685 371.835V353.697C354.672 352.498 354.898 351.309 355.348 350.197C355.798 349.086 356.464 348.075 357.307 347.223C358.151 346.37 359.155 345.694 360.261 345.232C361.368 344.77 362.555 344.533 363.754 344.533C364.953 344.533 366.14 344.77 367.246 345.232C368.353 345.694 369.357 346.37 370.2 347.223C371.043 348.075 371.709 349.086 372.159 350.197C372.609 351.309 372.835 352.498 372.822 353.697V371.836C372.822 373.027 372.588 374.206 372.133 375.307C371.677 376.407 371.009 377.407 370.167 378.249C369.325 379.091 368.326 379.759 367.225 380.215C366.125 380.671 364.946 380.905 363.755 380.905V380.904Z" fill="#F2A149"/>
</g>
</svg>
