<svg width="732" height="740" viewBox="0 0 732 740" fill="none" xmlns="http://www.w3.org/2000/svg">
<g opacity="0.997">
<path opacity="0.997" d="M143 237L912.321 -273.258L971.49 318.905L423 680.334L246.667 620.001L143 237Z" fill="#5273EB"/>
<path opacity="0.997" d="M310.02 716.234C455.79 703.501 563.794 576.793 551.253 433.223C538.712 289.653 410.376 183.589 264.606 196.322C118.836 209.055 10.8323 335.763 23.373 479.333C35.9137 622.903 164.25 728.967 310.02 716.234Z" fill="#5273EB"/>
<path opacity="0.997" d="M493.5 121C494.881 121 496 119.881 496 118.5C496 117.119 494.881 116 493.5 116C492.119 116 491 117.119 491 118.5C491 119.881 492.119 121 493.5 121Z" fill="white"/>
<path opacity="0.997" d="M548.5 159C548.776 159 549 158.776 549 158.5C549 158.224 548.776 158 548.5 158C548.224 158 548 158.224 548 158.5C548 158.776 548.224 159 548.5 159Z" fill="white"/>
<path opacity="0.997" d="M548.5 159C548.776 159 549 158.776 549 158.5C549 158.224 548.776 158 548.5 158C548.224 158 548 158.224 548 158.5C548 158.776 548.224 159 548.5 159Z" fill="white"/>
<path opacity="0.997" d="M458.5 179C458.776 179 459 178.776 459 178.5C459 178.224 458.776 178 458.5 178C458.224 178 458 178.224 458 178.5C458 178.776 458.224 179 458.5 179Z" fill="white"/>
<path opacity="0.997" d="M388.5 149C388.776 149 389 148.776 389 148.5C389 148.224 388.776 148 388.5 148C388.224 148 388 148.224 388 148.5C388 148.776 388.224 149 388.5 149Z" fill="white"/>
<path opacity="0.997" d="M689.5 109C689.776 109 690 108.776 690 108.5C690 108.224 689.776 108 689.5 108C689.224 108 689 108.224 689 108.5C689 108.776 689.224 109 689.5 109Z" fill="white"/>
<path opacity="0.997" d="M629.5 110C629.776 110 630 109.776 630 109.5C630 109.224 629.776 109 629.5 109C629.224 109 629 109.224 629 109.5C629 109.776 629.224 110 629.5 110Z" fill="white"/>
<path opacity="0.997" d="M319.5 181C319.776 181 320 180.776 320 180.5C320 180.224 319.776 180 319.5 180C319.224 180 319 180.224 319 180.5C319 180.776 319.224 181 319.5 181Z" fill="white"/>
<path opacity="0.997" d="M89.5 361C89.7761 361 90 360.776 90 360.5C90 360.224 89.7761 360 89.5 360C89.2239 360 89 360.224 89 360.5C89 360.776 89.2239 361 89.5 361Z" fill="white"/>
<path opacity="0.997" d="M399.5 211C399.776 211 400 210.776 400 210.5C400 210.224 399.776 210 399.5 210C399.224 210 399 210.224 399 210.5C399 210.776 399.224 211 399.5 211Z" fill="white"/>
<path opacity="0.997" d="M719.5 321C719.776 321 720 320.776 720 320.5C720 320.224 719.776 320 719.5 320C719.224 320 719 320.224 719 320.5C719 320.776 719.224 321 719.5 321Z" fill="white"/>
<path opacity="0.997" d="M654.5 211C655.328 211 656 210.328 656 209.5C656 208.672 655.328 208 654.5 208C653.672 208 653 208.672 653 209.5C653 210.328 653.672 211 654.5 211Z" fill="white"/>
<path opacity="0.997" d="M717.5 381C718.328 381 719 380.328 719 379.5C719 378.672 718.328 378 717.5 378C716.672 378 716 378.672 716 379.5C716 380.328 716.672 381 717.5 381Z" fill="white"/>
<path opacity="0.997" d="M539.5 20C539.776 20 540 19.7761 540 19.5C540 19.2239 539.776 19 539.5 19C539.224 19 539 19.2239 539 19.5C539 19.7761 539.224 20 539.5 20Z" fill="white"/>
<g opacity="0.997">
<path opacity="0.997" d="M238.526 375.741H298.173" stroke="#3F3D56" stroke-width="2" stroke-miterlimit="10"/>
<path opacity="0.997" d="M167.464 441.572C170.69 433.132 171.157 425.47 168.508 424.457C165.859 423.445 161.096 429.465 157.87 437.905C154.644 446.344 154.177 454.007 156.826 455.02C159.475 456.032 164.238 450.012 167.464 441.572Z" fill="#2F2E41"/>
<path opacity="0.997" d="M537.331 480.957C543.82 529.25 534.984 577.595 490.041 596.42C468.458 605.46 444.169 605.557 422.515 596.688C400.861 587.82 383.617 570.713 374.577 549.13C355.752 504.187 400.169 477.295 421.867 433.667C465.929 345.069 517.18 330.985 537.331 480.957Z" fill="#F2F2F2"/>
<path opacity="0.997" d="M456.42 608.647C495.31 608.647 526.836 604.358 526.836 599.067C526.836 593.776 495.31 589.487 456.42 589.487C417.53 589.487 386.004 593.776 386.004 599.067C386.004 604.358 417.53 608.647 456.42 608.647Z" fill="#3F3D56"/>
<path opacity="0.997" d="M410.352 574.685L413.001 584.267L430.168 579.521L427.519 569.94L410.352 574.685Z" fill="#2F2E41"/>
<path opacity="0.997" d="M411.538 585.959C413.192 585.502 413.545 581.556 412.326 577.147C411.106 572.737 408.778 569.533 407.124 569.99C405.47 570.447 405.117 574.393 406.336 578.802C407.555 583.212 409.884 586.416 411.538 585.959Z" fill="#2F2E41"/>
<path opacity="0.997" d="M464.54 541.73C465.753 532.776 464.458 525.208 461.648 524.827C458.837 524.446 455.574 531.396 454.361 540.35C453.147 549.304 454.442 556.872 457.253 557.253C460.063 557.634 463.326 550.684 464.54 541.73Z" fill="#2F2E41"/>
<path opacity="0.997" d="M456.248 604.395C474.32 604.395 488.971 589.744 488.971 571.672C488.971 553.6 474.32 538.949 456.248 538.949C438.175 538.949 423.525 553.6 423.525 571.672C423.525 589.744 438.175 604.395 456.248 604.395Z" fill="#2F2E41"/>
<path opacity="0.997" d="M410.352 568.886L413.001 578.468L430.168 573.722L427.519 564.141L410.352 568.886Z" fill="#2F2E41"/>
<path opacity="0.997" d="M411.538 580.16C413.192 579.703 413.545 575.758 412.326 571.348C411.106 566.938 408.778 563.734 407.124 564.191C405.47 564.648 405.117 568.594 406.336 573.004C407.555 577.413 409.884 580.617 411.538 580.16Z" fill="#2F2E41"/>
<path opacity="0.997" d="M464.841 564.11C471.018 564.11 476.025 559.103 476.025 552.926C476.025 546.749 471.018 541.742 464.841 541.742C458.664 541.742 453.657 546.749 453.657 552.926C453.657 559.103 458.664 564.11 464.841 564.11Z" fill="white"/>
<path opacity="0.997" d="M468.417 551.714C470.476 551.714 472.145 550.045 472.145 547.986C472.145 545.927 470.476 544.258 468.417 544.258C466.358 544.258 464.689 545.927 464.689 547.986C464.689 550.045 466.358 551.714 468.417 551.714Z" fill="#3F3D56"/>
<path opacity="0.997" d="M494.036 594.159C506.145 593.553 515.42 582.226 514.751 568.859C514.082 555.492 503.723 545.149 491.614 545.759C479.505 546.369 477.604 555.871 478.273 569.237C478.942 582.603 481.926 594.765 494.036 594.159Z" fill="#6C63FF"/>
<path opacity="0.997" d="M442.875 557.826C441.894 557.914 440.905 557.807 439.966 557.511C439.026 557.216 438.155 556.736 437.402 556.102C436.649 555.467 436.029 554.689 435.578 553.814C435.127 552.938 434.854 551.982 434.774 551C434.695 550.018 434.811 549.031 435.116 548.094C435.42 547.157 435.908 546.29 436.549 545.543C437.191 544.796 437.974 544.183 438.854 543.74C439.734 543.297 440.692 543.033 441.675 542.963C445.775 542.631 446.899 545.889 447.231 549.994C447.563 554.099 446.979 557.494 442.875 557.826Z" fill="white"/>
<path opacity="0.997" d="M97.489 419.541H280.776L309.192 433.385L354.468 455.443L384.068 400.016H467.839" stroke="#3F3D56" stroke-width="2" stroke-miterlimit="10"/>
<path opacity="0.997" d="M169.292 431.01C172.423 431.01 174.961 428.472 174.961 425.341C174.961 422.21 172.423 419.672 169.292 419.672C166.161 419.672 163.623 422.21 163.623 425.341C163.623 428.472 166.161 431.01 169.292 431.01Z" fill="#6C63FF"/>
<path opacity="0.997" d="M309.119 439.068C312.25 439.068 314.788 436.53 314.788 433.399C314.788 430.268 312.25 427.73 309.119 427.73C305.988 427.73 303.45 430.268 303.45 433.399C303.45 436.53 305.988 439.068 309.119 439.068Z" fill="#6C63FF"/>
<path opacity="0.997" d="M431.31 405.686C434.441 405.686 436.979 403.148 436.979 400.017C436.979 396.886 434.441 394.348 431.31 394.348C428.179 394.348 425.641 396.886 425.641 400.017C425.641 403.148 428.179 405.686 431.31 405.686Z" fill="#6C63FF"/>
<path opacity="0.997" d="M372.104 427.731C375.235 427.731 377.773 425.193 377.773 422.062C377.773 418.931 375.235 416.393 372.104 416.393C368.973 416.393 366.435 418.931 366.435 422.062C366.435 425.193 368.973 427.731 372.104 427.731Z" fill="#6C63FF"/>
<path opacity="0.997" d="M254.108 516.953C257.484 516.953 260.22 514.217 260.22 510.841C260.22 507.465 257.484 504.729 254.108 504.729C250.733 504.729 247.996 507.465 247.996 510.841C247.996 514.217 250.733 516.953 254.108 516.953Z" stroke="#3F3D56" stroke-width="2" stroke-miterlimit="10"/>
<path opacity="0.997" d="M147.416 614.86C186.306 614.86 217.832 610.571 217.832 605.28C217.832 599.989 186.306 595.7 147.416 595.7C108.526 595.7 77 599.989 77 605.28C77 610.571 108.526 614.86 147.416 614.86Z" fill="#3F3D56"/>
<path opacity="0.997" d="M143.608 591.197C161.68 591.197 176.331 576.546 176.331 558.474C176.331 540.402 161.68 525.751 143.608 525.751C125.536 525.751 110.885 540.402 110.885 558.474C110.885 576.546 125.536 591.197 143.608 591.197Z" fill="#2F2E41"/>
<path opacity="0.997" d="M138.637 584.155H128.696V601.966H138.637V584.155Z" fill="#2F2E41"/>
<path opacity="0.997" d="M158.519 584.155H148.578V601.966H158.519V584.155Z" fill="#2F2E41"/>
<path opacity="0.997" d="M136.98 605.28C141.555 605.28 145.264 603.889 145.264 602.173C145.264 600.457 141.555 599.066 136.98 599.066C132.405 599.066 128.696 600.457 128.696 602.173C128.696 603.889 132.405 605.28 136.98 605.28Z" fill="#2F2E41"/>
<path opacity="0.997" d="M156.862 604.866C161.437 604.866 165.146 603.475 165.146 601.759C165.146 600.043 161.437 598.652 156.862 598.652C152.287 598.652 148.578 600.043 148.578 601.759C148.578 603.475 152.287 604.866 156.862 604.866Z" fill="#2F2E41"/>
<path opacity="0.997" d="M144.436 561.373C150.613 561.373 155.62 556.366 155.62 550.189C155.62 544.012 150.613 539.005 144.436 539.005C138.259 539.005 133.252 544.012 133.252 550.189C133.252 556.366 138.259 561.373 144.436 561.373Z" fill="white"/>
<path opacity="0.997" d="M144.436 553.917C146.495 553.917 148.164 552.248 148.164 550.189C148.164 548.13 146.495 546.461 144.436 546.461C142.377 546.461 140.708 548.13 140.708 550.189C140.708 552.248 142.377 553.917 144.436 553.917Z" fill="#3F3D56"/>
<path opacity="0.997" d="M111.865 528.038C109.223 516.205 117.665 504.248 130.73 501.332C143.795 498.416 156.521 505.644 159.163 517.477C161.805 529.31 153.149 533.677 140.088 536.591C127.027 539.505 114.507 539.875 111.865 528.038Z" fill="#7B97FF"/>
<path opacity="0.997" d="M132.424 497.17C150.496 497.17 165.147 482.52 165.147 464.447C165.147 446.375 150.496 431.724 132.424 431.724C114.352 431.724 99.7009 446.375 99.7009 464.447C99.7009 482.52 114.352 497.17 132.424 497.17Z" fill="#2F2E41"/>
<path opacity="0.997" d="M127.453 490.128H117.512V507.939H127.453V490.128Z" fill="#2F2E41"/>
<path opacity="0.997" d="M147.335 490.128H137.394V507.939H147.335V490.128Z" fill="#2F2E41"/>
<path opacity="0.997" d="M125.796 511.254C130.371 511.254 134.08 509.863 134.08 508.147C134.08 506.431 130.371 505.04 125.796 505.04C121.221 505.04 117.512 506.431 117.512 508.147C117.512 509.863 121.221 511.254 125.796 511.254Z" fill="#2F2E41"/>
<path opacity="0.997" d="M145.678 510.84C150.253 510.84 153.962 509.449 153.962 507.733C153.962 506.017 150.253 504.626 145.678 504.626C141.103 504.626 137.394 506.017 137.394 507.733C137.394 509.449 141.103 510.84 145.678 510.84Z" fill="#2F2E41"/>
<path opacity="0.997" d="M133.253 467.347C139.43 467.347 144.437 462.34 144.437 456.163C144.437 449.986 139.43 444.979 133.253 444.979C127.076 444.979 122.069 449.986 122.069 456.163C122.069 462.34 127.076 467.347 133.253 467.347Z" fill="white"/>
<path opacity="0.997" d="M133.252 459.891C135.311 459.891 136.98 458.222 136.98 456.163C136.98 454.104 135.311 452.435 133.252 452.435C131.193 452.435 129.524 454.104 129.524 456.163C129.524 458.222 131.193 459.891 133.252 459.891Z" fill="#3F3D56"/>
<path opacity="0.997" d="M100.682 434.011C98.0401 422.178 106.482 410.221 119.547 407.305C132.612 404.389 145.338 411.617 147.98 423.45C150.622 435.283 141.966 439.65 128.905 442.564C115.844 445.478 103.324 445.848 100.682 434.011Z" fill="#7B97FF"/>
<path opacity="0.997" d="M110.349 456.275C111.565 453.712 105.932 448.495 97.7675 444.623C89.6032 440.751 81.9994 439.69 80.7839 442.253C79.5684 444.815 85.2014 450.032 93.3657 453.904C101.53 457.776 109.134 458.838 110.349 456.275Z" fill="#2F2E41"/>
<path opacity="0.997" d="M116.35 476.252C116.35 479.452 124.596 485.779 133.75 485.779C142.904 485.779 151.48 476.762 151.48 473.56C151.48 470.358 142.9 474.181 133.75 474.181C124.6 474.181 116.35 473.05 116.35 476.252Z" fill="white"/>
<path opacity="0.997" d="M475.309 503.911H423.065V530.488H475.309V503.911Z" fill="#7B97FF"/>
<path opacity="0.997" d="M471.22 508.226H418.976V534.803H471.22V508.226Z" stroke="#3F3D56" stroke-width="2" stroke-miterlimit="10"/>
<path opacity="0.997" d="M185.774 352.429H170.862V367.341H185.774V352.429Z" fill="white"/>
<path opacity="0.997" d="M182.046 347.458H167.134V362.37H182.046V347.458Z" stroke="#3F3D56" stroke-width="2" stroke-miterlimit="10"/>
<path opacity="0.997" d="M452.299 381.204C470.371 381.204 485.022 366.553 485.022 348.481C485.022 330.409 470.371 315.758 452.299 315.758C434.227 315.758 419.576 330.409 419.576 348.481C419.576 366.553 434.227 381.204 452.299 381.204Z" fill="#2F2E41"/>
<path opacity="0.997" d="M464.937 390.391L474.719 388.62L471.546 371.094L461.764 372.865L464.937 390.391Z" fill="#2F2E41"/>
<path opacity="0.997" d="M445.373 393.933L455.155 392.162L451.982 374.636L442.2 376.407L445.373 393.933Z" fill="#2F2E41"/>
<path opacity="0.997" d="M450.565 397.626C454.056 394.67 455.987 391.213 454.878 389.904C453.77 388.595 450.041 389.929 446.551 392.885C443.06 395.84 441.129 399.297 442.237 400.607C443.346 401.916 447.074 400.581 450.565 397.626Z" fill="#2F2E41"/>
<path opacity="0.997" d="M469.722 394.158C473.213 391.202 475.144 387.745 474.035 386.436C472.927 385.127 469.198 386.461 465.708 389.417C462.217 392.372 460.286 395.829 461.394 397.139C462.503 398.448 466.231 397.113 469.722 394.158Z" fill="#2F2E41"/>
<path opacity="0.997" d="M450.009 351.661C456.186 351.661 461.193 346.654 461.193 340.477C461.193 334.3 456.186 329.293 450.009 329.293C443.832 329.293 438.825 334.3 438.825 340.477C438.825 346.654 443.832 351.661 450.009 351.661Z" fill="white"/>
<path opacity="0.997" d="M445.412 340.196C447.471 340.196 449.14 338.527 449.14 336.468C449.14 334.409 447.471 332.74 445.412 332.74C443.353 332.74 441.684 334.409 441.684 336.468C441.684 338.527 443.353 340.196 445.412 340.196Z" fill="#3F3D56"/>
<path opacity="0.997" d="M478.115 312.881C478.607 300.766 468.166 290.505 454.795 289.962C441.424 289.419 430.185 298.799 429.695 310.914C429.205 323.029 438.495 325.781 451.87 326.324C465.245 326.867 477.622 324.997 478.115 312.881Z" fill="#7B97FF"/>
<path opacity="0.997" d="M438.037 346.161C438.67 343.395 432.041 339.519 423.231 337.504C414.421 335.489 406.766 336.098 406.133 338.863C405.501 341.629 412.13 345.505 420.94 347.52C429.75 349.535 437.405 348.926 438.037 346.161Z" fill="#2F2E41"/>
<path opacity="0.997" d="M502.27 356.844C502.903 354.079 496.274 350.203 487.464 348.188C478.654 346.173 470.999 346.782 470.366 349.547C469.734 352.313 476.363 356.188 485.173 358.203C493.983 360.218 501.638 359.61 502.27 356.844Z" fill="#2F2E41"/>
<path opacity="0.997" d="M461.287 361.376C461.621 363.314 461.175 365.305 460.048 366.916C458.92 368.527 457.202 369.627 455.267 369.978C453.332 370.328 451.337 369.9 449.717 368.786C448.096 367.673 446.981 365.964 446.614 364.032C445.88 359.98 449.014 358.546 453.065 357.813C457.116 357.08 460.553 357.324 461.287 361.376Z" fill="white"/>
<path opacity="0.997" d="M372.17 311.007L409.863 340.002" stroke="#3F3D56" stroke-width="2" stroke-miterlimit="10"/>
<path opacity="0.997" d="M354.359 326.334C369.915 326.334 382.526 313.723 382.526 298.167C382.526 282.611 369.915 270 354.359 270C338.803 270 326.192 282.611 326.192 298.167C326.192 313.723 338.803 326.334 354.359 326.334Z" fill="#FEFEFE"/>
<path opacity="0.997" d="M452.258 549.505C453.471 540.551 452.176 532.983 449.366 532.602C446.555 532.221 443.292 539.171 442.079 548.125C440.865 557.079 442.16 564.647 444.971 565.028C447.781 565.409 451.044 558.459 452.258 549.505Z" fill="#2F2E41"/>
<path opacity="0.997" d="M105.503 601.252C108.634 601.252 111.172 598.714 111.172 595.583C111.172 592.452 108.634 589.914 105.503 589.914C102.372 589.914 99.834 592.452 99.834 595.583C99.834 598.714 102.372 601.252 105.503 601.252Z" fill="#6C63FF"/>
<path opacity="0.997" d="M198.201 588.945H183.289V603.857H198.201V588.945Z" fill="white"/>
<path opacity="0.997" d="M183.375 604.565C186.506 604.565 189.044 602.027 189.044 598.896C189.044 595.765 186.506 593.227 183.375 593.227C180.244 593.227 177.706 595.765 177.706 598.896C177.706 602.027 180.244 604.565 183.375 604.565Z" fill="#6C63FF"/>
<path opacity="0.997" d="M268.349 381.304C271.48 381.304 274.018 378.766 274.018 375.635C274.018 372.504 271.48 369.966 268.349 369.966C265.218 369.966 262.68 372.504 262.68 375.635C262.68 378.766 265.218 381.304 268.349 381.304Z" fill="#6C63FF"/>
<path opacity="0.997" d="M378.432 554.063C379.927 554.063 381.139 552.851 381.139 551.356C381.139 549.861 379.927 548.649 378.432 548.649C376.937 548.649 375.725 549.861 375.725 551.356C375.725 552.851 376.937 554.063 378.432 554.063Z" fill="#471E26"/>
<path opacity="0.997" d="M391.694 596.286V565.464" stroke="#3F3D56" stroke-width="2" stroke-miterlimit="10"/>
<path opacity="0.997" d="M391.695 569.823C394.102 569.823 396.054 567.871 396.054 565.464C396.054 563.057 394.102 561.105 391.695 561.105C389.288 561.105 387.336 563.057 387.336 565.464C387.336 567.871 389.288 569.823 391.695 569.823Z" fill="#3F3D56"/>
<path opacity="0.997" d="M391.694 584.461C391.694 584.461 391.071 571.069 378.307 572.625L391.694 584.461Z" fill="#3F3D56"/>
</g>
</g>
</svg>
