<svg width="29" height="27" viewBox="0 0 29 27" fill="none" xmlns="http://www.w3.org/2000/svg">
<path d="M29 8.57592C28.9904 7.81139 28.687 7.08187 28.1561 6.54702C27.6253 6.01216 26.9103 5.71546 26.1675 5.72185H22.3162V2.861C22.3084 2.09528 22.0057 1.36405 21.4747 0.827717C20.9437 0.291386 20.2277 -0.00627504 19.4838 0.00010034H9.51622C8.7723 -0.00627504 8.05629 0.291386 7.52529 0.827717C6.99428 1.36405 6.69164 2.09528 6.68376 2.861V5.72185H2.83247C2.08968 5.71546 1.37467 6.01216 0.843851 6.54702C0.313035 7.08187 0.00962671 7.81139 0 8.57592V24.1391C0.0078839 24.9048 0.310526 25.636 0.841532 26.1723C1.37254 26.7087 2.08854 27.0063 2.83247 26.9999H26.1675C26.9115 27.0063 27.6275 26.7087 28.1585 26.1723C28.6895 25.636 28.9921 24.9048 29 24.1391V8.57592ZM9.51622 1.13936H19.4854C19.872 1.13811 20.2473 1.27294 20.5491 1.52148C20.8509 1.77002 21.0611 2.1173 21.1448 2.50573H7.85026C7.93416 2.11615 8.14533 1.76796 8.44851 1.51929C8.7517 1.27062 9.12857 1.13655 9.51622 1.13936ZM2.83247 6.85939H11.9587C12.1062 6.85939 12.2476 6.79912 12.3518 6.69182C12.4561 6.58451 12.5146 6.43893 12.5146 6.28718C12.5146 6.13543 12.4561 5.9899 12.3518 5.8826C12.2476 5.7753 12.1062 5.71502 11.9587 5.71502H7.81044V3.65693H21.1779V5.72185H17.0562C16.9088 5.72185 16.7674 5.78212 16.6631 5.88943C16.5589 5.99673 16.5003 6.14226 16.5003 6.29401C16.5003 6.44576 16.5589 6.59134 16.6631 6.69864C16.7674 6.80595 16.9088 6.86622 17.0562 6.86622H26.1675C26.6124 6.86256 27.0406 7.04 27.3589 7.35993C27.6772 7.67986 27.8597 8.11635 27.8667 8.5742V13.015L14.4992 17.1141L1.13332 13.0235V8.58275C1.13484 8.35472 1.18001 8.12922 1.26624 7.91917C1.35247 7.70912 1.47808 7.51863 1.63589 7.35858C1.79369 7.19853 1.98059 7.07202 2.18591 6.98636C2.39123 6.90071 2.61093 6.85759 2.83247 6.85939ZM26.1675 25.8539H2.83247C2.38761 25.8575 1.95939 25.68 1.64111 25.3601C1.32283 25.0402 1.14031 24.6037 1.13332 24.1459V14.2276L14.3366 18.2653C14.4447 18.2994 14.5603 18.2994 14.6684 18.2653L27.8717 14.2276V24.1459C27.8647 24.6046 27.6815 25.0418 27.3621 25.3619C27.0428 25.682 26.6132 25.8589 26.1675 25.8539Z" fill="#5273EB"/>
</svg>
