<svg width="29" height="29" viewBox="0 0 29 29" fill="none" xmlns="http://www.w3.org/2000/svg">
<g clip-path="url(#clip0)">
<path d="M17.8984 14.7266C17.5858 14.7266 17.332 14.9803 17.332 15.293C17.332 15.6056 17.5858 15.8594 17.8984 15.8594C18.2111 15.8594 18.4648 15.6056 18.4648 15.293C18.4648 14.9803 18.2111 14.7266 17.8984 14.7266Z" fill="#5273EB"/>
<path d="M5.78755 20.9449L0.12349 28.0816C-0.0116949 28.2517 -0.0373601 28.4843 0.0571146 28.6798C0.151589 28.8757 0.349831 29 0.567101 29H28.4343C28.6516 29 28.8498 28.8757 28.9443 28.6798C29.039 28.4843 29.0131 28.2517 28.8779 28.0816L23.2138 20.9449C23.1065 20.8095 22.943 20.7305 22.7702 20.7305H17.8086L22.0445 14.0867C23.0382 12.597 23.5632 10.8597 23.5632 9.0625C23.5632 4.06551 19.4979 0 14.5007 0C9.50348 0 5.43819 4.06551 5.43819 9.0625C5.43819 10.8597 5.96323 12.5968 6.95687 14.0867L11.1927 20.7305H6.23116C6.05836 20.7305 5.89508 20.8095 5.78755 20.9449ZM3.67282 25.4316H7.09759L5.16473 27.8672H1.73974L3.67282 25.4316ZM11.9151 21.8633L13.4679 24.2988H9.44286L11.3759 21.8633H11.9151ZM17.0865 21.8633H17.6257L19.5585 24.2988H15.5337L17.0865 21.8633ZM20.4577 25.4316L22.3906 27.8672H6.61083L8.54391 25.4316H20.4577ZM23.8369 27.8672L21.9038 25.4316H25.3288L27.2616 27.8672H23.8369ZM24.4296 24.2988H21.0048L19.0718 21.8633H22.4968L24.4296 24.2988ZM7.9025 13.4628C7.03143 12.1587 6.57101 10.6372 6.57101 9.0625C6.57101 4.69011 10.1283 1.13281 14.5007 1.13281C18.8731 1.13281 22.4304 4.69011 22.4304 9.0625C22.4304 10.6372 21.9699 12.1587 21.0991 13.4628C21.0967 13.4661 21.0947 13.4694 21.0925 13.4727C20.7205 14.0562 14.7872 23.3625 14.5007 23.8116C13.7801 22.6813 8.64281 14.6237 7.90892 13.4727C7.90693 13.4694 7.90472 13.4661 7.9025 13.4628ZM9.92962 21.8633L7.99676 24.2988H4.57177L6.50485 21.8633H9.92962Z" fill="#5273EB"/>
<path d="M14.5 14.7266C17.6095 14.7266 20.1641 12.2085 20.1641 9.0625C20.1641 5.9393 17.6232 3.39844 14.5 3.39844C11.3768 3.39844 8.83594 5.9393 8.83594 9.0625C8.83594 12.2094 11.3914 14.7266 14.5 14.7266ZM14.5 4.53125C16.9986 4.53125 19.0312 6.5639 19.0312 9.0625C19.0312 11.5843 16.9822 13.5938 14.5 13.5938C12.0171 13.5938 9.96875 11.5843 9.96875 9.0625C9.96875 6.5639 12.0014 4.53125 14.5 4.53125Z" fill="#5273EB"/>
<path d="M16.8857 16.6594C16.618 16.4979 16.2698 16.5842 16.1083 16.8521L14.0148 20.3254C13.8532 20.5933 13.9395 20.9413 14.2075 21.1028C14.4765 21.265 14.8241 21.177 14.985 20.9101L17.0784 17.4369C17.24 17.169 17.1537 16.8209 16.8857 16.6594Z" fill="#5273EB"/>
</g>
<defs>
<clipPath id="clip0">
<rect width="29" height="29" fill="white"/>
</clipPath>
</defs>
</svg>
