<svg width="289" height="289" viewBox="0 0 289 289" fill="none" xmlns="http://www.w3.org/2000/svg">
<g clip-path="url(#clip0)">
<path d="M174.318 121.288H157.701C164.744 121.288 170.453 115.579 170.453 108.537V92.4876C170.453 85.445 164.744 79.7361 157.701 79.7361H19.7655C12.7233 79.7361 7.01389 85.445 7.01389 92.4876V108.537C7.01389 115.579 12.7228 121.288 19.7655 121.288H36.3824C29.3403 121.288 23.6308 126.997 23.6308 134.04V150.089C23.6308 157.112 29.3081 162.807 36.3231 162.839H12.7516C5.70888 162.839 0 168.548 0 175.59V191.639C0 198.682 5.70888 204.391 12.7516 204.391H24.3816C17.3389 204.391 11.63 210.099 11.63 217.142V233.191C11.63 240.234 17.3389 245.943 24.3816 245.943H15.6591C8.61638 245.943 2.9075 251.652 2.9075 258.694V274.743C2.9075 281.786 8.61638 287.495 15.6591 287.495H153.595C160.637 287.495 166.347 281.786 166.347 274.743V258.694C166.347 251.652 160.638 245.943 153.595 245.943H162.318C169.36 245.943 175.069 240.234 175.069 233.191V217.142C175.069 210.099 169.36 204.391 162.318 204.391H150.688C157.73 204.391 163.439 198.682 163.439 191.639V175.59C163.439 168.567 157.762 162.872 150.747 162.84H174.318C181.361 162.84 187.07 157.131 187.07 150.088V134.039C187.07 126.997 181.361 121.288 174.318 121.288Z" fill="#F1E64D"/>
<path d="M163.44 181.503V191.644C163.44 198.686 157.73 204.391 150.688 204.391H12.7527C5.71118 204.391 0.000610352 198.686 0.000610352 191.644V181.503C0.000610352 188.545 5.71062 194.255 12.7527 194.255H150.688C157.73 194.255 163.44 188.545 163.44 181.503Z" fill="#FFC250"/>
<path d="M187.071 139.953V150.094C187.071 157.136 181.361 162.841 174.318 162.841H36.3836C29.342 162.841 23.6315 157.136 23.6315 150.094V139.953C23.6315 146.995 29.3415 152.705 36.3836 152.705H174.318C181.361 152.705 187.071 146.995 187.071 139.953Z" fill="#FFC250"/>
<path d="M170.454 98.4016V108.543C170.454 115.584 164.744 121.289 157.701 121.289H19.7666C12.725 121.289 7.01447 115.585 7.01447 108.543V98.4016C7.01447 105.443 12.7245 111.154 19.7666 111.154H157.701C164.744 111.154 170.454 105.443 170.454 98.4016Z" fill="#FFC250"/>
<path d="M175.07 223.056V233.197C175.07 240.238 169.36 245.943 162.318 245.943H24.3828C17.3412 245.943 11.6307 240.239 11.6307 233.197V223.056C11.6307 230.097 17.3407 235.808 24.3828 235.808H162.318C169.359 235.808 175.07 230.097 175.07 223.056Z" fill="#FFC250"/>
<path d="M166.347 264.608V274.749C166.347 281.79 160.637 287.495 153.595 287.495H15.6597C8.6181 287.495 2.90753 281.791 2.90753 274.749V264.608C2.90753 271.649 8.61754 277.36 15.6597 277.36H153.595C160.637 277.359 166.347 271.649 166.347 264.608Z" fill="#FFC250"/>
<path d="M39.2199 162.842H62.9207C55.8809 162.842 50.1709 157.132 50.1709 150.092V134.04C50.1709 127 55.8809 121.29 62.9207 121.29H46.2925C39.2577 121.284 33.5539 115.576 33.5539 108.54V92.4875C33.5539 85.4477 39.2639 79.7377 46.3038 79.7377H19.7705C12.7245 79.7377 7.01446 85.4477 7.01446 92.4875V108.54C7.01446 115.58 12.7245 121.29 19.7705 121.29H36.3762C29.3352 121.296 23.6314 127.003 23.6314 134.04V150.092C23.6314 157.108 29.3036 162.803 36.3175 162.84H12.7561C5.71001 162.84 0 168.55 0 175.59V191.643C0 198.683 5.71001 204.393 12.7561 204.393H24.3731C17.3327 204.399 11.6294 210.107 11.6294 217.143V233.195C11.6294 240.231 17.3327 245.938 24.3731 245.945H15.6636C8.61751 245.945 2.9075 251.655 2.9075 258.695V274.747C2.9075 281.787 8.61751 287.497 15.6636 287.497H42.1968C35.157 287.497 29.447 281.787 29.447 274.747V258.695C29.447 251.659 35.1502 245.952 42.1844 245.945H50.9193C43.8795 245.945 38.1694 240.235 38.1694 233.195V217.143C38.1694 210.103 43.8795 204.393 50.9193 204.393H39.2769C32.2427 204.386 26.5395 198.679 26.5395 191.643V175.59C26.54 168.574 32.2122 162.88 39.2199 162.842Z" fill="#FFC250"/>
<path d="M207.28 287.496C252.413 287.496 289 250.909 289 205.777C289 160.644 252.413 124.057 207.28 124.057C162.147 124.057 125.56 160.644 125.56 205.777C125.56 250.909 162.147 287.496 207.28 287.496Z" fill="#F1E64D"/>
<path d="M214.191 287.205C211.916 287.402 209.61 287.496 207.279 287.496C162.145 287.496 125.56 250.911 125.56 205.777C125.56 160.643 162.145 124.058 207.279 124.058C209.609 124.058 211.916 124.153 214.191 124.35C172.285 127.853 139.377 162.965 139.377 205.777C139.377 248.588 172.285 283.701 214.191 287.205Z" fill="#FFC250"/>
<path d="M207.28 260.958C237.756 260.958 262.462 236.253 262.462 205.777C262.462 175.301 237.756 150.595 207.28 150.595C176.805 150.595 152.099 175.301 152.099 205.777C152.099 236.253 176.805 260.958 207.28 260.958Z" fill="#FFC250"/>
<path d="M215.889 201.251C214.346 200.802 212.764 200.329 211.189 199.837V180.511C215.872 181.204 218.668 183.176 218.879 183.329C220.796 184.761 223.512 184.381 224.962 182.473C226.419 180.555 226.046 177.819 224.127 176.362C223.847 176.149 219.027 172.578 211.189 171.735V167.968C211.189 165.559 209.237 163.607 206.828 163.607C204.42 163.607 202.467 165.559 202.467 167.968V172.015C201.626 172.158 200.766 172.334 199.888 172.552C192.536 174.376 187.046 179.986 185.903 186.843C184.939 192.627 187.299 198.132 192.061 201.209C194.681 202.901 197.957 204.453 202.467 206.099V230.577C197.94 230.386 194.946 229.623 190.022 226.97C187.9 225.827 185.255 226.621 184.113 228.741C182.971 230.862 183.763 233.507 185.884 234.649C192.395 238.157 196.61 239.098 202.467 239.305V243.587C202.467 245.996 204.42 247.948 206.828 247.948C209.237 247.948 211.189 245.996 211.189 243.587V239.022C222.678 237.306 229.679 229.148 230.804 221.106C232.07 212.05 226.215 204.257 215.889 201.251ZM196.794 193.882C194.169 192.186 194.32 189.397 194.507 188.277C194.961 185.552 197.165 182.214 201.988 181.017C202.149 180.977 202.307 180.944 202.467 180.908V196.742C200.304 195.842 198.355 194.89 196.794 193.882ZM222.166 219.897C221.553 224.279 217.666 228.714 211.189 230.147V208.957C211.922 209.177 212.671 209.399 213.45 209.626C219.65 211.43 222.826 215.174 222.166 219.897Z" fill="#F1E64D"/>
<path d="M110.407 175.913V108.637H121.906C135.868 108.637 144.594 93.5229 137.612 81.4323L100.754 17.5989C93.7734 5.50941 76.3239 5.50885 69.3428 17.5983L32.4806 81.4317C25.4983 93.5223 34.2242 108.638 48.1859 108.638H59.6912V175.913C59.6912 182.217 64.8012 187.326 71.1039 187.326H98.9935C105.297 187.325 110.407 182.216 110.407 175.913Z" fill="#7694FF"/>
<path d="M81.6025 187.327H71.1014C64.8004 187.327 59.6921 182.219 59.6921 175.918V108.635H48.1829C34.2212 108.635 25.4947 93.5232 32.4815 81.4298L69.3381 17.5981C72.8287 11.5545 78.9372 8.53577 85.0451 8.53577C80.9534 8.53577 76.8611 11.5545 74.5265 17.5981L49.834 81.4304C45.1524 93.5232 51.0012 108.635 60.3525 108.635H65.081C69.9821 108.635 73.9553 112.608 73.9553 117.51V175.912C73.9553 182.215 77.381 187.327 81.6025 187.327Z" fill="#5273EB"/>
<path d="M212.723 91.5202L212.39 90.2756C211.213 85.8853 213.637 81.3335 217.936 79.8597L231.162 75.3255C235.898 73.7016 241.02 76.429 242.316 81.2664L243.145 84.3595C244.441 89.1969 241.369 94.1195 236.455 95.0819L222.735 97.7676C218.275 98.6402 213.899 95.9105 212.723 91.5202Z" fill="#F7F493"/>
<path d="M191.596 54.2602L190.685 53.3492C187.471 50.1352 187.295 44.9817 190.281 41.5549L199.468 31.0154C202.758 27.2404 208.557 27.0417 212.098 30.5825L214.363 32.8471C217.904 36.3879 217.705 42.1877 213.93 45.4779L203.39 54.6644C199.964 57.6509 194.81 57.4742 191.596 54.2602Z" fill="#F7F493"/>
<path d="M154.669 32.5556L153.425 32.222C149.034 31.0457 146.305 26.6706 147.178 22.2103L149.864 8.49016C150.825 3.57547 155.749 0.503715 160.586 1.80026L163.679 2.62888C168.517 3.92486 171.244 9.04671 169.62 13.7836L165.086 27.0087C163.611 31.3082 159.06 33.7319 154.669 32.5556Z" fill="#F7F493"/>
</g>
<defs>
<clipPath id="clip0">
<rect width="289" height="289" fill="white"/>
</clipPath>
</defs>
</svg>
