<svg width="29" height="29" viewBox="0 0 29 29" fill="none" xmlns="http://www.w3.org/2000/svg">
<path d="M26.2575 28.9954H26.987C28.097 28.9954 29.0001 28.0924 29.0001 26.9824V15.057C29.0001 13.947 28.097 13.044 26.987 13.044H24.1402C24.4301 9.50394 23.1696 6.06249 20.6406 3.53923C18.3606 1.2643 15.2958 0.114211 12.11 0.00799466C11.9511 0.00255928 8.18041 -0.0926164 4.75425 2.49338C4.56707 2.6347 4.52987 2.90092 4.67114 3.0881C4.85798 3.28088 5.0562 3.30857 5.26586 3.17121C7.81086 1.25032 10.6272 0.921025 11.667 0.866614L11.6673 12.0827C11.6673 12.4484 12.1223 12.6521 12.3918 12.3833L20.3407 4.45272C22.5059 6.78245 23.5672 9.87281 23.2884 13.044H19.838L17.376 10.582C17.1137 10.3198 16.6511 10.5112 16.6511 10.8822V13.044H15.6507C14.5407 13.044 13.6377 13.947 13.6377 15.057V23.1683C13.1276 23.2383 12.6165 23.2734 12.1078 23.2734C2.58508 23.2793 -2.65541 12.0789 3.53361 4.80709C3.68586 4.62874 3.66474 4.36071 3.48639 4.20841C3.30805 4.05616 3.04001 4.07728 2.88771 4.25563C-4.22029 12.7065 2.71995 25.3581 13.6377 24.0254V26.9824C13.6377 28.0924 14.5407 28.9954 15.6507 28.9954H23.9983C24.2329 28.9954 24.423 28.8053 24.423 28.5708C24.423 28.3363 24.2329 28.1461 23.9983 28.1461H15.6507C15.009 28.1461 14.487 27.6241 14.487 26.9824V15.057C14.487 14.4153 15.009 13.8933 15.6507 13.8933H17.0757C17.3103 13.8933 17.5004 13.7032 17.5004 13.4686V11.9074L19.3619 13.7689C19.4415 13.8486 19.5495 13.8933 19.6622 13.8933H26.987C27.6287 13.8933 28.1508 14.4153 28.1508 15.057V26.9825C28.1508 27.6241 27.6287 28.1462 26.987 28.1462H26.2575C25.696 28.1654 25.6944 28.9752 26.2575 28.9954ZM19.1919 4.39921H12.5163V3.0432H18.7473C19.0918 3.29442 19.4225 3.56534 19.7368 3.85556L19.1919 4.39921ZM16.9815 6.60456H12.5164L12.5163 5.24849H18.3406L16.9815 6.60456ZM14.7711 8.80985H12.5164L12.5164 7.45378H16.1302L14.7711 8.80985ZM12.5163 0.87205C14.221 0.937897 15.8928 1.3986 17.3895 2.19392H12.5163L12.5163 0.87205ZM12.5164 9.65913H13.9198L12.5164 11.0593V9.65913Z" fill="#5273EB"/>
<path d="M19.2704 26.4251C19.4896 26.5086 19.7349 26.3986 19.8184 26.1794L20.0427 25.5907H21.575L21.7967 26.1782C21.9867 26.6818 22.785 26.3917 22.5912 25.8783L21.2847 22.4163C21.1263 21.9837 20.5046 21.9936 20.3433 22.4152L19.0248 25.8772C18.9413 26.0962 19.0513 26.3415 19.2704 26.4251ZM20.8123 23.5698L21.2545 24.7414H20.3661L20.8123 23.5698Z" fill="#5273EB"/>
<path d="M23.3752 26.3753C23.5865 26.5058 23.7838 26.4716 23.9669 26.2727L24.9442 24.8855L25.9199 26.2725C26.2487 26.74 26.9219 26.2208 26.6145 25.7838L25.4637 24.148L26.4406 22.7613C26.7568 22.3124 26.0624 21.8233 25.7463 22.2722L24.9447 23.4101L24.1444 22.2724C23.8287 21.8233 23.1339 22.312 23.4498 22.7611L24.4252 24.1476L23.2727 25.7836C23.1375 25.9754 23.1834 26.2402 23.3752 26.3753Z" fill="#5273EB"/>
<path d="M17.336 26.4528C17.5705 26.4528 17.7606 26.2627 17.7606 26.0282V22.9414H18.3095C18.8717 22.9219 18.8713 22.1114 18.3095 22.0921H16.3703C15.808 22.1116 15.8084 22.9222 16.3703 22.9414H16.9113V26.0282C16.9113 26.2627 17.1014 26.4528 17.336 26.4528Z" fill="#5273EB"/>
<path d="M19.4921 21.1834C19.6791 21.3106 19.9561 21.2564 20.0821 21.0713L23.2983 16.3453C23.4302 16.1514 23.38 15.8873 23.1861 15.7554C22.9923 15.6234 22.7282 15.6737 22.5962 15.8675L19.38 20.5935C19.248 20.7873 19.2983 21.0514 19.4921 21.1834Z" fill="#5273EB"/>
<path d="M24.2482 19.8608C24.2482 19.091 23.7245 18.4647 23.081 18.4647C21.533 18.5396 21.5335 21.1824 23.081 21.257C23.7245 21.257 24.2482 20.6307 24.2482 19.8608ZM22.763 19.8608C22.763 19.5478 22.9309 19.3139 23.081 19.3139C23.231 19.3139 23.3989 19.5478 23.3989 19.8608C23.3989 20.1738 23.231 20.4077 23.081 20.4077C22.9309 20.4077 22.763 20.1738 22.763 19.8608Z" fill="#5273EB"/>
<path d="M19.5567 18.4741C20.2002 18.4741 20.7238 17.8478 20.7238 17.0779C20.6744 15.2193 18.4467 15.2319 18.3894 17.0779C18.3895 17.8478 18.9131 18.4741 19.5567 18.4741ZM19.5567 16.531C19.7067 16.531 19.8745 16.7649 19.8745 17.0779C19.8745 17.3908 19.7067 17.6247 19.5567 17.6247C19.4066 17.6247 19.2387 17.3908 19.2387 17.0779C19.2387 16.7649 19.4066 16.531 19.5567 16.531Z" fill="#5273EB"/>
</svg>
