<svg width="530" height="480" viewBox="0 0 530 480" fill="none" xmlns="http://www.w3.org/2000/svg">
<g opacity="0.997">
<path opacity="0.997" d="M430.391 193.03C402.221 171.97 358.099 152.053 309.34 138.387C264.94 125.943 221.64 119.935 187.401 121.47L187.223 117.488C221.872 115.936 265.623 121.995 310.416 134.549C359.63 148.343 404.23 168.495 432.778 189.838L430.391 193.03Z" fill="#3F3D56"/>
<path opacity="0.997" d="M427.467 209.25C427.492 227.908 423.581 246.362 415.988 263.406C415.354 264.832 414.694 266.246 414.007 267.647C400.802 294.697 378.82 316.475 351.647 329.428C324.475 342.38 293.715 345.743 264.385 338.968C235.056 332.192 208.888 315.678 190.15 292.12C171.412 268.561 161.209 239.349 161.207 209.247C161.207 206.165 161.312 203.108 161.522 200.075C161.621 198.532 161.75 196.999 161.909 195.475C165.438 161.541 181.859 130.257 207.783 108.078C233.707 85.8998 267.157 74.52 301.228 76.2873C335.299 78.0546 367.391 92.8342 390.882 117.576C414.372 142.317 427.468 175.133 427.467 209.25Z" fill="#F2F2F2"/>
<path opacity="0.1" d="M415.987 263.406C415.353 264.832 414.693 266.246 414.006 267.647C410.116 268.069 406.021 268.376 401.722 268.568C398.163 268.727 394.5 268.807 390.757 268.807C358.065 268.807 318.72 262.772 278.526 251.507C233.732 238.951 193.208 221.39 164.414 202.054C163.433 201.396 162.47 200.737 161.524 200.077C161.623 198.534 161.752 197.001 161.911 195.477C163.438 196.565 165.012 197.654 166.634 198.745C195.089 217.845 235.208 235.224 279.602 247.668C319.445 258.836 358.419 264.819 390.737 264.819C394.432 264.819 398.034 264.74 401.543 264.584C406.652 264.354 411.467 263.961 415.987 263.406Z" fill="black"/>
<path opacity="0.997" d="M390.757 265.619C358.066 265.619 318.718 259.584 278.526 248.319C233.733 235.764 193.206 218.202 164.412 198.867C135.012 179.128 121.232 159.679 125.599 144.101C129.966 128.523 151.85 119.071 187.222 117.486L187.4 121.468C170.882 122.208 157.42 124.668 147.389 128.768C137.382 132.86 131.342 138.381 129.437 145.18C127.532 151.979 129.822 159.834 136.244 168.531C142.682 177.249 152.907 186.343 166.634 195.561C195.086 214.666 235.206 232.041 279.602 244.485C319.446 255.649 358.417 261.63 390.737 261.63C394.43 261.63 398.03 261.551 401.537 261.394C418.055 260.654 431.517 258.194 441.549 254.094C451.556 250.002 457.596 244.481 459.501 237.683C462.922 225.476 452.583 209.615 430.387 193.022L432.774 189.83C444.196 198.369 452.651 206.786 457.904 214.846C463.536 223.488 465.364 231.533 463.339 238.759C458.973 254.337 437.088 263.788 401.716 265.374C398.16 265.54 394.499 265.619 390.757 265.619Z" fill="#3F3D56"/>
<path opacity="0.997" d="M297.859 52.1118C298.702 52.1118 299.385 51.4286 299.385 50.5858C299.385 49.743 298.702 49.0598 297.859 49.0598C297.016 49.0598 296.333 49.743 296.333 50.5858C296.333 51.4286 297.016 52.1118 297.859 52.1118Z" fill="#F2F2F2"/>
<path opacity="0.997" d="M95.472 118.308C96.9212 118.308 98.096 117.133 98.096 115.684C98.096 114.235 96.9212 113.06 95.472 113.06C94.0228 113.06 92.848 114.235 92.848 115.684C92.848 117.133 94.0228 118.308 95.472 118.308Z" fill="#CCCCCC"/>
<path opacity="0.997" d="M89.879 223.588C92.7426 223.588 95.064 221.266 95.064 218.403C95.064 215.539 92.7426 213.218 89.879 213.218C87.0154 213.218 84.694 215.539 84.694 218.403C84.694 221.266 87.0154 223.588 89.879 223.588Z" fill="#CCCCCC"/>
<path opacity="0.997" d="M401.086 63.1927C402.994 63.1927 404.541 61.6459 404.541 59.7377C404.541 57.8296 402.994 56.2827 401.086 56.2827C399.178 56.2827 397.631 57.8296 397.631 59.7377C397.631 61.6459 399.178 63.1927 401.086 63.1927Z" fill="#CCCCCC"/>
<path opacity="0.997" d="M523.637 208.758C526.735 208.758 529.247 206.246 529.247 203.148C529.247 200.05 526.735 197.538 523.637 197.538C520.539 197.538 518.027 200.05 518.027 203.148C518.027 206.246 520.539 208.758 523.637 208.758Z" fill="#CCCCCC"/>
<path opacity="0.997" d="M479.768 115.952C481.097 115.952 482.175 114.874 482.175 113.545C482.175 112.215 481.097 111.138 479.768 111.138C478.439 111.138 477.361 112.215 477.361 113.545C477.361 114.874 478.439 115.952 479.768 115.952Z" fill="#CCCCCC"/>
<path opacity="0.997" d="M187.512 86.3767C189.586 86.3767 191.267 84.6955 191.267 82.6217C191.267 80.5479 189.586 78.8667 187.512 78.8667C185.438 78.8667 183.757 80.5479 183.757 82.6217C183.757 84.6955 185.438 86.3767 187.512 86.3767Z" fill="#CCCCCC"/>
<path opacity="0.997" d="M471.344 194.179C472.673 194.179 473.751 193.101 473.751 191.772C473.751 190.442 472.673 189.365 471.344 189.365C470.015 189.365 468.937 190.442 468.937 191.772C468.937 193.101 470.015 194.179 471.344 194.179Z" fill="#CCCCCC"/>
<path opacity="0.997" d="M3.08304 203.625C4.73768 203.625 6.07904 202.283 6.07904 200.629C6.07904 198.974 4.73768 197.633 3.08304 197.633C1.42839 197.633 0.0870361 198.974 0.0870361 200.629C0.0870361 202.283 1.42839 203.625 3.08304 203.625Z" fill="#CCCCCC"/>
<path opacity="0.997" d="M48.595 154.57C50.3867 154.57 51.839 153.117 51.839 151.326C51.839 149.534 50.3867 148.082 48.595 148.082C46.8034 148.082 45.351 149.534 45.351 151.326C45.351 153.117 46.8034 154.57 48.595 154.57Z" fill="#CCCCCC"/>
<path opacity="0.997" d="M256.909 6.65781H250.509V0.257812H247.074V6.65781H240.674V10.0978H247.074V16.4978H250.509V10.0978H256.909V6.65781Z" fill="#CCCCCC"/>
<path opacity="0.997" d="M405.422 353.087H401.401V349.068H399.245V353.087H395.225V355.244H399.245V359.264H401.401V355.244H405.422V353.087Z" fill="#CCCCCC"/>
<path opacity="0.997" d="M498.21 332.51H495.21V329.505H493.587V332.51H490.587V334.124H493.587V337.129H495.201V334.124H498.201L498.21 332.51Z" fill="#CCCCCC"/>
<path opacity="0.1" d="M210.395 198.063C216.573 198.063 221.582 193.054 221.582 186.876C221.582 180.697 216.573 175.689 210.395 175.689C204.217 175.689 199.208 180.697 199.208 186.876C199.208 193.054 204.217 198.063 210.395 198.063Z" fill="black"/>
<path opacity="0.1" d="M333.963 310.443C340.141 310.443 345.15 305.434 345.15 299.256C345.15 293.077 340.141 288.069 333.963 288.069C327.785 288.069 322.776 293.077 322.776 299.256C322.776 305.434 327.785 310.443 333.963 310.443Z" fill="black"/>
<path opacity="0.1" d="M296.333 215.352C302.511 215.352 307.52 210.343 307.52 204.165C307.52 197.986 302.511 192.978 296.333 192.978C290.155 192.978 285.146 197.986 285.146 204.165C285.146 210.343 290.155 215.352 296.333 215.352Z" fill="black"/>
<path opacity="0.1" d="M215.989 276.882C222.167 276.882 227.176 271.873 227.176 265.695C227.176 259.516 222.167 254.508 215.989 254.508C209.811 254.508 204.802 259.516 204.802 265.695C204.802 271.873 209.811 276.882 215.989 276.882Z" fill="black"/>
<path opacity="0.1" d="M356.338 155.348C362.516 155.348 367.525 150.339 367.525 144.161C367.525 137.982 362.516 132.974 356.338 132.974C350.16 132.974 345.151 137.982 345.151 144.161C345.151 150.339 350.16 155.348 356.338 155.348Z" fill="black"/>
<path opacity="0.1" d="M393.459 231.116C399.637 231.116 404.646 226.107 404.646 219.929C404.646 213.75 399.637 208.742 393.459 208.742C387.281 208.742 382.272 213.75 382.272 219.929C382.272 226.107 387.281 231.116 393.459 231.116Z" fill="black"/>
<path opacity="0.997" d="M356.338 112.125C364.483 112.125 371.085 105.522 371.085 97.3779C371.085 89.2333 364.483 82.6309 356.338 82.6309C348.193 82.6309 341.591 89.2333 341.591 97.3779C341.591 105.522 348.193 112.125 356.338 112.125Z" fill="white"/>
<path opacity="0.997" d="M356.337 76.0208C350.808 76.0208 345.505 78.2173 341.595 82.1273C337.685 86.0372 335.488 91.3403 335.488 96.8698C335.488 108.385 356.337 146.195 356.337 146.195C356.337 146.195 377.186 108.384 377.186 96.8698C377.186 94.1318 376.647 91.4207 375.599 88.8912C374.551 86.3617 373.016 84.0633 371.079 82.1273C369.143 80.1912 366.845 78.6555 364.316 77.6078C361.786 76.56 359.075 76.0208 356.337 76.0208ZM356.337 107.04C354.426 107.04 352.558 106.473 350.969 105.411C349.38 104.35 348.142 102.841 347.41 101.075C346.679 99.3097 346.488 97.367 346.861 95.4928C347.233 93.6185 348.154 91.8969 349.505 90.5457C350.856 89.1944 352.578 88.2742 354.452 87.9014C356.326 87.5286 358.269 87.7199 360.035 88.4512C361.8 89.1825 363.309 90.4209 364.371 92.0098C365.432 93.5987 365.999 95.4668 365.999 97.3777C365.999 99.9403 364.981 102.398 363.169 104.21C361.357 106.022 358.9 107.04 356.337 107.04Z" fill="#7B97FF"/>
<path opacity="0.997" d="M210.338 152.125C218.483 152.125 225.085 145.522 225.085 137.378C225.085 129.233 218.483 122.631 210.338 122.631C202.193 122.631 195.591 129.233 195.591 137.378C195.591 145.522 202.193 152.125 210.338 152.125Z" fill="white"/>
<path opacity="0.997" d="M210.337 116.021C204.808 116.021 199.505 118.217 195.595 122.127C191.685 126.037 189.488 131.34 189.488 136.87C189.488 148.385 210.337 186.195 210.337 186.195C210.337 186.195 231.186 148.384 231.186 136.87C231.186 134.132 230.647 131.421 229.599 128.891C228.551 126.362 227.016 124.063 225.08 122.127C223.144 120.191 220.845 118.656 218.316 117.608C215.786 116.56 213.075 116.021 210.337 116.021ZM210.337 147.04C208.426 147.04 206.558 146.473 204.969 145.411C203.38 144.35 202.142 142.841 201.411 141.075C200.679 139.31 200.488 137.367 200.861 135.493C201.234 133.619 202.154 131.897 203.505 130.546C204.856 129.194 206.578 128.274 208.452 127.901C210.326 127.529 212.269 127.72 214.035 128.451C215.8 129.183 217.309 130.421 218.371 132.01C219.432 133.599 219.999 135.467 219.999 137.378C219.999 139.94 218.981 142.398 217.169 144.21C215.357 146.022 212.9 147.04 210.337 147.04Z" fill="#3F3D56"/>
<path opacity="0.997" d="M395.338 186.125C403.483 186.125 410.085 179.522 410.085 171.378C410.085 163.233 403.483 156.631 395.338 156.631C387.193 156.631 380.591 163.233 380.591 171.378C380.591 179.522 387.193 186.125 395.338 186.125Z" fill="white"/>
<path opacity="0.997" d="M395.337 150.021C389.808 150.021 384.505 152.217 380.595 156.127C376.685 160.037 374.488 165.34 374.488 170.87C374.488 182.384 395.337 220.195 395.337 220.195C395.337 220.195 416.186 182.384 416.186 170.87C416.186 165.34 413.989 160.037 410.079 156.127C406.17 152.217 400.867 150.021 395.337 150.021ZM395.337 181.04C393.426 181.04 391.558 180.473 389.969 179.411C388.38 178.35 387.142 176.841 386.41 175.075C385.679 173.31 385.488 171.367 385.861 169.493C386.233 167.619 387.154 165.897 388.505 164.546C389.856 163.194 391.578 162.274 393.452 161.901C395.326 161.529 397.269 161.72 399.035 162.451C400.8 163.183 402.309 164.421 403.371 166.01C404.432 167.599 404.999 169.467 404.999 171.378C404.999 173.94 403.981 176.398 402.169 178.21C400.357 180.022 397.9 181.04 395.337 181.04Z" fill="#CCCCCC"/>
<path opacity="0.997" d="M145.338 260.125C153.483 260.125 160.085 253.522 160.085 245.378C160.085 237.233 153.483 230.631 145.338 230.631C137.193 230.631 130.591 237.233 130.591 245.378C130.591 253.522 137.193 260.125 145.338 260.125Z" fill="white"/>
<path opacity="0.997" d="M145.337 224.021C139.808 224.021 134.504 226.217 130.595 230.127C126.685 234.037 124.488 239.34 124.488 244.87C124.488 256.385 145.337 294.196 145.337 294.196C145.337 294.196 166.186 256.385 166.186 244.871C166.186 239.341 163.989 234.038 160.079 230.128C156.17 226.218 150.867 224.022 145.337 224.022V224.021ZM145.337 255.04C143.426 255.04 141.558 254.473 139.969 253.411C138.38 252.35 137.142 250.841 136.41 249.075C135.679 247.31 135.488 245.367 135.861 243.493C136.233 241.619 137.154 239.897 138.505 238.546C139.856 237.194 141.578 236.274 143.452 235.901C145.326 235.529 147.269 235.72 149.035 236.451C150.8 237.183 152.309 238.421 153.371 240.01C154.432 241.599 154.999 243.467 154.999 245.378C154.999 247.94 153.981 250.398 152.169 252.21C150.357 254.022 147.9 255.04 145.337 255.04Z" fill="#7B97FF"/>
<path opacity="0.997" d="M484.779 363.793C487.642 361.396 483.773 352.061 476.138 342.943C468.504 333.824 459.994 328.374 457.131 330.771C454.269 333.168 458.137 342.503 465.772 351.622C473.407 360.741 481.916 366.19 484.779 363.793Z" fill="#2F2E41"/>
<path opacity="0.997" d="M425.146 382.867C448.931 382.867 468.213 363.585 468.213 339.8C468.213 316.015 448.931 296.733 425.146 296.733C401.361 296.733 382.079 316.015 382.079 339.8C382.079 363.585 401.361 382.867 425.146 382.867Z" fill="#2F2E41"/>
<path opacity="0.997" d="M443.375 373.599H430.291V397.041H443.375V373.599Z" fill="#2F2E41"/>
<path opacity="0.997" d="M417.208 373.599H404.124V397.041H417.208V373.599Z" fill="#2F2E41"/>
<path opacity="0.997" d="M432.472 401.402C438.494 401.402 443.375 399.571 443.375 397.313C443.375 395.055 438.494 393.224 432.472 393.224C426.45 393.224 421.569 395.055 421.569 397.313C421.569 399.571 426.45 401.402 432.472 401.402Z" fill="#2F2E41"/>
<path opacity="0.997" d="M406.304 400.857C412.326 400.857 417.207 399.026 417.207 396.768C417.207 394.509 412.326 392.679 406.304 392.679C400.282 392.679 395.401 394.509 395.401 396.768C395.401 399.026 400.282 400.857 406.304 400.857Z" fill="#2F2E41"/>
<path opacity="0.997" d="M411.623 285.663C415.469 270.176 432.444 261.063 449.538 265.307C466.632 269.551 477.372 285.547 473.527 301.034C469.682 316.521 456.927 316.571 439.827 312.326C422.727 308.081 407.778 301.15 411.623 285.663Z" fill="#7B97FF"/>
<path opacity="0.997" d="M396.097 329.043C397.697 325.669 390.283 318.803 379.537 313.707C368.792 308.611 358.784 307.214 357.184 310.587C355.584 313.96 362.998 320.826 373.744 325.923C384.489 331.019 394.497 332.416 396.097 329.043Z" fill="#2F2E41"/>
<path opacity="0.997" d="M418.708 345.071C426.638 345.071 433.067 338.642 433.067 330.712C433.067 322.782 426.638 316.353 418.708 316.353C410.778 316.353 404.349 322.782 404.349 330.712C404.349 338.642 410.778 345.071 418.708 345.071Z" fill="white"/>
<path opacity="0.997" d="M412.806 330.351C415.449 330.351 417.592 328.208 417.592 325.565C417.592 322.922 415.449 320.779 412.806 320.779C410.163 320.779 408.02 322.922 408.02 325.565C408.02 328.208 410.163 330.351 412.806 330.351Z" fill="#3F3D56"/>
<path opacity="0.997" d="M427.715 360.63C427.94 361.866 427.92 363.135 427.654 364.364C427.389 365.593 426.884 366.757 426.169 367.791C425.454 368.825 424.542 369.707 423.485 370.389C422.429 371.07 421.249 371.537 420.012 371.762C418.775 371.987 417.506 371.966 416.278 371.701C415.049 371.436 413.884 370.931 412.851 370.216C411.817 369.5 410.934 368.589 410.253 367.532C409.572 366.476 409.105 365.295 408.88 364.059V364.041C407.938 358.841 411.96 356.998 417.163 356.056C422.366 355.114 426.773 355.425 427.715 360.63Z" fill="white"/>
<path opacity="0.997" d="M336.451 248.307C332.021 244.569 326.6 242.199 320.847 241.486C315.095 240.773 309.259 241.748 304.051 244.291C298.842 246.834 294.485 250.837 291.51 255.811C288.534 260.785 287.069 266.518 287.292 272.31C287.515 278.102 289.417 283.704 292.766 288.435C296.115 293.166 300.767 296.821 306.155 298.957C311.544 301.092 317.437 301.615 323.118 300.462C328.798 299.309 334.021 296.529 338.151 292.462L374.825 323.407C375.101 323.64 375.421 323.817 375.766 323.927C376.11 324.037 376.473 324.079 376.834 324.048C377.194 324.018 377.546 323.917 377.867 323.751C378.189 323.586 378.474 323.358 378.708 323.082C378.942 322.805 379.119 322.486 379.229 322.141C379.339 321.796 379.38 321.433 379.35 321.073C379.32 320.712 379.219 320.361 379.053 320.04C378.887 319.718 378.659 319.432 378.383 319.199L341.7 288.25C345.96 282.135 347.783 274.65 346.812 267.262C345.841 259.873 342.146 253.113 336.451 248.307ZM334.087 285.271C331.23 288.657 327.433 291.119 323.176 292.348C318.92 293.576 314.394 293.514 310.173 292.17C305.951 290.826 302.223 288.261 299.459 284.798C296.696 281.335 295.021 277.131 294.647 272.716C294.273 268.302 295.217 263.875 297.358 259.997C299.5 256.119 302.744 252.963 306.679 250.928C310.614 248.893 315.065 248.071 319.467 248.565C323.87 249.06 328.027 250.849 331.413 253.706C335.953 257.537 338.785 263.015 339.286 268.934C339.787 274.853 337.917 280.73 334.086 285.27L334.087 285.271Z" fill="#3F3D56"/>
<path opacity="0.3" d="M302.521 287.944C298.224 284.318 295.447 279.208 294.743 273.629C294.039 268.05 295.459 262.411 298.721 257.831C298.293 258.262 297.879 258.714 297.479 259.186C295.566 261.432 294.116 264.034 293.212 266.842C292.307 269.65 291.967 272.609 292.209 275.549C292.451 278.489 293.272 281.353 294.624 283.975C295.976 286.597 297.833 288.926 300.088 290.828C302.342 292.731 304.951 294.169 307.763 295.061C310.575 295.953 313.535 296.28 316.475 296.024C319.414 295.769 322.273 294.935 324.889 293.571C327.505 292.207 329.826 290.34 331.718 288.077C332.118 287.604 332.494 287.12 332.845 286.625C328.879 290.61 323.558 292.958 317.941 293.203C312.323 293.447 306.819 291.57 302.522 287.944H302.521Z" fill="black"/>
<path opacity="0.997" d="M148.067 309.694C152.313 298.586 152.928 288.5 149.441 287.168C145.954 285.835 139.685 293.759 135.44 304.867C131.194 315.975 130.579 326.06 134.066 327.393C137.553 328.726 143.822 320.802 148.067 309.694Z" fill="#2F2E41"/>
<path opacity="0.997" d="M101.949 382.866C125.734 382.866 145.016 363.584 145.016 339.799C145.016 316.014 125.734 296.732 101.949 296.732C78.1638 296.732 58.882 316.014 58.882 339.799C58.882 363.584 78.1638 382.866 101.949 382.866Z" fill="#2F2E41"/>
<path opacity="0.997" d="M95.407 373.599H82.323V397.041H95.407V373.599Z" fill="#2F2E41"/>
<path opacity="0.997" d="M121.575 373.599H108.491V397.041H121.575V373.599Z" fill="#2F2E41"/>
<path opacity="0.997" d="M93.226 401.402C99.2476 401.402 104.129 399.571 104.129 397.313C104.129 395.055 99.2476 393.224 93.226 393.224C87.2045 393.224 82.323 395.055 82.323 397.313C82.323 399.571 87.2045 401.402 93.226 401.402Z" fill="#2F2E41"/>
<path opacity="0.997" d="M119.394 400.857C125.416 400.857 130.297 399.026 130.297 396.768C130.297 394.509 125.416 392.679 119.394 392.679C113.372 392.679 108.491 394.509 108.491 396.768C108.491 399.026 113.372 400.857 119.394 400.857Z" fill="#2F2E41"/>
<path opacity="0.997" d="M103.039 343.615C111.168 343.615 117.758 337.025 117.758 328.896C117.758 320.767 111.168 314.177 103.039 314.177C94.91 314.177 88.32 320.767 88.32 328.896C88.32 337.025 94.91 343.615 103.039 343.615Z" fill="white"/>
<path opacity="0.997" d="M103.039 333.802C105.749 333.802 107.945 331.605 107.945 328.896C107.945 326.186 105.749 323.99 103.039 323.99C100.33 323.99 98.133 326.186 98.133 328.896C98.133 331.605 100.33 333.802 103.039 333.802Z" fill="#3F3D56"/>
<path opacity="0.997" d="M60.1721 299.748C56.6951 284.174 67.8111 268.438 85.0011 264.599C102.191 260.76 118.945 270.274 122.423 285.848C125.901 301.422 114.508 307.166 97.3231 311.004C80.1381 314.842 63.6491 315.322 60.1721 299.748Z" fill="#7B97FF"/>
<path opacity="0.997" d="M72.8991 329.043C74.499 325.669 67.0849 318.803 56.3393 313.707C45.5937 308.611 35.5858 307.214 33.9859 310.587C32.386 313.96 39.8001 320.826 50.5457 325.923C61.2913 331.019 71.2992 332.416 72.8991 329.043Z" fill="#2F2E41"/>
<path opacity="0.997" d="M80.7941 355.336C80.7941 359.551 91.6471 367.875 103.694 367.875C115.741 367.875 127.029 356.008 127.029 351.793C127.029 347.578 115.737 352.611 103.694 352.611C91.6511 352.611 80.7941 351.121 80.7941 355.336Z" fill="white"/>
<path opacity="0.997" d="M241.668 460.866C265.453 460.866 284.735 441.584 284.735 417.799C284.735 394.014 265.453 374.732 241.668 374.732C217.883 374.732 198.601 394.014 198.601 417.799C198.601 441.584 217.883 460.866 241.668 460.866Z" fill="#2F2E41"/>
<path opacity="0.997" d="M235.127 451.599H222.043V475.041H235.127V451.599Z" fill="#2F2E41"/>
<path opacity="0.997" d="M261.294 451.599H248.21V475.041H261.294V451.599Z" fill="#2F2E41"/>
<path opacity="0.997" d="M232.946 479.402C238.968 479.402 243.849 477.571 243.849 475.313C243.849 473.055 238.968 471.224 232.946 471.224C226.924 471.224 222.043 473.055 222.043 475.313C222.043 477.571 226.924 479.402 232.946 479.402Z" fill="#2F2E41"/>
<path opacity="0.997" d="M259.113 478.857C265.135 478.857 270.016 477.026 270.016 474.768C270.016 472.509 265.135 470.679 259.113 470.679C253.091 470.679 248.21 472.509 248.21 474.768C248.21 477.026 253.091 478.857 259.113 478.857Z" fill="#2F2E41"/>
<path opacity="0.997" d="M199.891 377.748C196.414 362.174 207.53 346.438 224.72 342.599C241.91 338.76 258.664 348.274 262.142 363.848C265.62 379.422 254.227 385.166 237.042 389.004C219.857 392.842 203.367 393.322 199.891 377.748Z" fill="#3F3D56"/>
<path opacity="0.997" d="M241.841 410.337C241.841 410.337 244.965 396.591 239.029 397.216C233.093 397.841 224.971 398.153 222.784 398.153C220.597 398.153 208.101 396.591 206.226 404.714C204.351 412.837 201.852 422.834 207.163 429.082C207.163 429.082 209.037 456.574 216.223 458.449C223.409 460.324 242.465 462.51 249.339 453.449C251.351 450.754 252.756 447.655 253.457 444.365C254.158 441.076 254.139 437.673 253.4 434.392H250.276L241.841 410.337Z" fill="#7B97FF"/>
<path opacity="0.1" d="M210.287 431.268C210.287 431.268 215.598 433.768 226.532 432.205V436.891L210.287 435.641V431.268Z" fill="black"/>
<path opacity="0.997" d="M249.978 446.93L246.441 445.061L262.171 415.295C262.762 414.177 263.057 412.928 263.03 411.664C263.003 410.401 262.654 409.165 262.017 408.074C261.379 406.982 260.473 406.072 259.386 405.428C258.298 404.784 257.064 404.429 255.801 404.395L239.294 403.951L239.401 399.951L255.909 400.395C257.853 400.447 259.751 400.994 261.424 401.985C263.097 402.975 264.49 404.376 265.472 406.054C266.453 407.733 266.989 409.634 267.031 411.578C267.072 413.522 266.617 415.445 265.709 417.164L249.978 446.93Z" fill="#7B97FF"/>
<path opacity="0.997" d="M211.961 446.93L196.231 417.164C195.323 415.445 194.868 413.523 194.91 411.579C194.951 409.635 195.488 407.734 196.469 406.055C197.45 404.377 198.843 402.976 200.516 401.986C202.189 400.995 204.088 400.448 206.031 400.396L222.539 399.952L222.646 403.952L206.138 404.396C204.875 404.43 203.641 404.786 202.553 405.429C201.466 406.073 200.56 406.984 199.922 408.075C199.285 409.166 198.936 410.402 198.909 411.665C198.882 412.929 199.178 414.178 199.768 415.296L215.498 445.062L211.961 446.93Z" fill="#7B97FF"/>
<path opacity="0.997" d="M296.887 428.849C298.824 425.187 290.939 417.216 279.275 411.046C267.611 404.877 256.586 402.843 254.648 406.505C252.711 410.167 260.596 418.137 272.26 424.307C283.924 430.477 294.95 432.511 296.887 428.849Z" fill="#2F2E41"/>
</g>
</svg>
