<svg width="1034" height="1013" viewBox="0 0 1034 1013" fill="none" xmlns="http://www.w3.org/2000/svg">
<path opacity="0.997" d="M71.587 609.256C71.8632 609.256 72.087 609.032 72.087 608.756C72.087 608.48 71.8632 608.256 71.587 608.256C71.3109 608.256 71.087 608.48 71.087 608.756C71.087 609.032 71.3109 609.256 71.587 609.256Z" fill="white"/>
<path opacity="0.997" d="M141.587 700.256C141.863 700.256 142.087 700.032 142.087 699.756C142.087 699.48 141.863 699.256 141.587 699.256C141.311 699.256 141.087 699.48 141.087 699.756C141.087 700.032 141.311 700.256 141.587 700.256Z" fill="white"/>
<path opacity="0.997" d="M11.587 610.256C11.8632 610.256 12.087 610.032 12.087 609.756C12.087 609.48 11.8632 609.256 11.587 609.256C11.3109 609.256 11.087 609.48 11.087 609.756C11.087 610.032 11.3109 610.256 11.587 610.256Z" fill="white"/>
<path opacity="0.997" d="M131.587 571.256C131.863 571.256 132.087 571.032 132.087 570.756C132.087 570.48 131.863 570.256 131.587 570.256C131.311 570.256 131.087 570.48 131.087 570.756C131.087 571.032 131.311 571.256 131.587 571.256Z" fill="white"/>
<path opacity="0.997" d="M137.587 533.256C138.968 533.256 140.087 532.137 140.087 530.756C140.087 529.376 138.968 528.256 137.587 528.256C136.206 528.256 135.087 529.376 135.087 530.756C135.087 532.137 136.206 533.256 137.587 533.256Z" fill="white"/>
<path opacity="0.997" d="M142.334 510.258L911.655 0.000110672L970.824 592.163L422.334 953.592L246.001 893.258L142.334 510.258Z" fill="#5273EB"/>
<path opacity="0.997" d="M309.354 989.492C455.124 976.759 563.128 850.05 550.587 706.481C538.046 562.911 409.71 456.847 263.94 469.58C118.17 482.313 10.1663 609.021 22.707 752.591C35.2477 896.16 163.584 1002.22 309.354 989.492Z" fill="#5273EB"/>
<path opacity="0.997" d="M101.587 821.256C101.863 821.256 102.087 821.032 102.087 820.756C102.087 820.48 101.863 820.256 101.587 820.256C101.311 820.256 101.087 820.48 101.087 820.756C101.087 821.032 101.311 821.256 101.587 821.256Z" fill="white"/>
<path opacity="0.997" d="M36.587 711.256C37.4155 711.256 38.087 710.585 38.087 709.756C38.087 708.928 37.4155 708.256 36.587 708.256C35.7586 708.256 35.087 708.928 35.087 709.756C35.087 710.585 35.7586 711.256 36.587 711.256Z" fill="white"/>
<path opacity="0.997" d="M99.587 881.256C100.415 881.256 101.087 880.585 101.087 879.756C101.087 878.928 100.415 878.256 99.587 878.256C98.7586 878.256 98.087 878.928 98.087 879.756C98.087 880.585 98.7586 881.256 99.587 881.256Z" fill="white"/>
<g opacity="0.997">
<path opacity="0.997" d="M483.551 664.772C455.381 643.712 411.259 623.795 362.5 610.129C318.1 597.685 274.8 591.677 240.561 593.212L240.383 589.23C275.032 587.678 318.783 593.737 363.576 606.291C412.79 620.085 457.39 640.237 485.938 661.58L483.551 664.772Z" fill="#3F3D56"/>
<path opacity="0.997" d="M480.627 680.992C480.652 699.65 476.741 718.104 469.148 735.148C468.514 736.575 467.854 737.988 467.167 739.389C453.962 766.44 431.98 788.217 404.807 801.17C377.635 814.122 346.875 817.485 317.545 810.71C288.216 803.934 262.048 787.42 243.31 763.862C224.572 740.303 214.369 711.091 214.367 680.989C214.367 677.908 214.472 674.85 214.682 671.817C214.781 670.274 214.91 668.741 215.069 667.217C218.598 633.283 235.018 601.999 260.943 579.82C286.867 557.642 320.317 546.262 354.388 548.029C388.459 549.797 420.551 564.576 444.042 589.318C467.532 614.06 480.628 646.875 480.627 680.992Z" fill="#F2F2F2"/>
<path opacity="0.1" d="M469.147 735.148C468.513 736.575 467.853 737.989 467.166 739.389C463.276 739.812 459.181 740.119 454.882 740.31C451.323 740.469 447.66 740.549 443.917 740.549C411.225 740.549 371.88 734.514 331.686 723.249C286.892 710.693 246.368 693.132 217.574 673.796C216.593 673.139 215.63 672.48 214.684 671.819C214.783 670.277 214.912 668.743 215.071 667.219C216.598 668.307 218.172 669.397 219.794 670.487C248.249 689.587 288.368 706.966 332.762 719.41C372.605 730.578 411.579 736.561 443.897 736.561C447.592 736.561 451.194 736.483 454.703 736.326C459.812 736.096 464.627 735.704 469.147 735.148Z" fill="black"/>
<path opacity="0.997" d="M443.917 737.361C411.226 737.361 371.878 731.326 331.686 720.061C286.893 707.506 246.366 689.944 217.572 670.609C188.172 650.87 174.392 631.421 178.759 615.843C183.126 600.265 205.01 590.813 240.382 589.228L240.56 593.21C224.042 593.95 210.58 596.41 200.549 600.51C190.542 604.602 184.502 610.123 182.597 616.922C180.692 623.721 182.982 631.576 189.404 640.273C195.842 648.991 206.067 658.085 219.794 667.303C248.246 686.408 288.366 703.783 332.762 716.227C372.606 727.391 411.577 733.372 443.897 733.372C447.59 733.372 451.19 733.293 454.697 733.136C471.215 732.396 484.677 729.936 494.709 725.836C504.716 721.744 510.756 716.223 512.661 709.425C516.082 697.218 505.743 681.357 483.547 664.764L485.934 661.572C497.356 670.111 505.811 678.528 511.064 686.588C516.696 695.23 518.524 703.275 516.499 710.501C512.133 726.079 490.248 735.53 454.876 737.116C451.32 737.282 447.659 737.361 443.917 737.361Z" fill="#3F3D56"/>
<path opacity="0.997" d="M351.019 523.854C351.862 523.854 352.545 523.171 352.545 522.328C352.545 521.485 351.862 520.802 351.019 520.802C350.176 520.802 349.493 521.485 349.493 522.328C349.493 523.171 350.176 523.854 351.019 523.854Z" fill="#F2F2F2"/>
<path opacity="0.997" d="M148.632 590.05C150.081 590.05 151.256 588.875 151.256 587.426C151.256 585.977 150.081 584.802 148.632 584.802C147.183 584.802 146.008 585.977 146.008 587.426C146.008 588.875 147.183 590.05 148.632 590.05Z" fill="#CCCCCC"/>
<path opacity="0.997" d="M143.039 695.33C145.903 695.33 148.224 693.009 148.224 690.145C148.224 687.281 145.903 684.96 143.039 684.96C140.175 684.96 137.854 687.281 137.854 690.145C137.854 693.009 140.175 695.33 143.039 695.33Z" fill="#CCCCCC"/>
<path opacity="0.997" d="M454.246 534.935C456.154 534.935 457.701 533.388 457.701 531.48C457.701 529.572 456.154 528.025 454.246 528.025C452.338 528.025 450.791 529.572 450.791 531.48C450.791 533.388 452.338 534.935 454.246 534.935Z" fill="#CCCCCC"/>
<path opacity="0.997" d="M576.797 680.5C579.895 680.5 582.407 677.988 582.407 674.89C582.407 671.791 579.895 669.28 576.797 669.28C573.699 669.28 571.187 671.791 571.187 674.89C571.187 677.988 573.699 680.5 576.797 680.5Z" fill="#CCCCCC"/>
<path opacity="0.997" d="M532.928 587.694C534.257 587.694 535.335 586.616 535.335 585.287C535.335 583.958 534.257 582.88 532.928 582.88C531.599 582.88 530.521 583.958 530.521 585.287C530.521 586.616 531.599 587.694 532.928 587.694Z" fill="#CCCCCC"/>
<path opacity="0.997" d="M240.672 558.119C242.746 558.119 244.427 556.438 244.427 554.364C244.427 552.29 242.746 550.609 240.672 550.609C238.598 550.609 236.917 552.29 236.917 554.364C236.917 556.438 238.598 558.119 240.672 558.119Z" fill="#CCCCCC"/>
<path opacity="0.997" d="M524.504 665.921C525.833 665.921 526.911 664.843 526.911 663.514C526.911 662.185 525.833 661.107 524.504 661.107C523.175 661.107 522.097 662.185 522.097 663.514C522.097 664.843 523.175 665.921 524.504 665.921Z" fill="#CCCCCC"/>
<path opacity="0.997" d="M56.2429 675.367C57.8976 675.367 59.2389 674.026 59.2389 672.371C59.2389 670.716 57.8976 669.375 56.2429 669.375C54.5883 669.375 53.2469 670.716 53.2469 672.371C53.2469 674.026 54.5883 675.367 56.2429 675.367Z" fill="#CCCCCC"/>
<path opacity="0.997" d="M101.755 626.312C103.547 626.312 104.999 624.86 104.999 623.068C104.999 621.277 103.547 619.824 101.755 619.824C99.9633 619.824 98.511 621.277 98.511 623.068C98.511 624.86 99.9633 626.312 101.755 626.312Z" fill="#CCCCCC"/>
<path opacity="0.997" d="M310.069 478.4H303.669V472H300.234V478.4H293.834V481.84H300.234V488.24H303.669V481.84H310.069V478.4Z" fill="#CCCCCC"/>
<path opacity="0.997" d="M458.582 824.829H454.561V820.81H452.405V824.829H448.385V826.986H452.405V831.006H454.561V826.986H458.582V824.829Z" fill="#CCCCCC"/>
<path opacity="0.997" d="M551.37 804.252H548.37V801.247H546.747V804.252H543.747V805.866H546.747V808.871H548.361V805.866H551.361L551.37 804.252Z" fill="#CCCCCC"/>
<path opacity="0.1" d="M263.555 669.805C269.733 669.805 274.742 664.797 274.742 658.618C274.742 652.44 269.733 647.431 263.555 647.431C257.377 647.431 252.368 652.44 252.368 658.618C252.368 664.797 257.377 669.805 263.555 669.805Z" fill="black"/>
<path opacity="0.1" d="M387.123 782.185C393.301 782.185 398.31 777.176 398.31 770.998C398.31 764.82 393.301 759.811 387.123 759.811C380.945 759.811 375.936 764.82 375.936 770.998C375.936 777.176 380.945 782.185 387.123 782.185Z" fill="black"/>
<path opacity="0.1" d="M349.493 687.094C355.671 687.094 360.68 682.086 360.68 675.907C360.68 669.729 355.671 664.72 349.493 664.72C343.315 664.72 338.306 669.729 338.306 675.907C338.306 682.086 343.315 687.094 349.493 687.094Z" fill="black"/>
<path opacity="0.1" d="M269.149 748.624C275.327 748.624 280.336 743.615 280.336 737.437C280.336 731.259 275.327 726.25 269.149 726.25C262.971 726.25 257.962 731.259 257.962 737.437C257.962 743.615 262.971 748.624 269.149 748.624Z" fill="black"/>
<path opacity="0.1" d="M409.498 627.09C415.676 627.09 420.685 622.081 420.685 615.903C420.685 609.724 415.676 604.716 409.498 604.716C403.32 604.716 398.311 609.724 398.311 615.903C398.311 622.081 403.32 627.09 409.498 627.09Z" fill="black"/>
<path opacity="0.1" d="M446.619 702.858C452.797 702.858 457.806 697.849 457.806 691.671C457.806 685.492 452.797 680.484 446.619 680.484C440.441 680.484 435.432 685.492 435.432 691.671C435.432 697.849 440.441 702.858 446.619 702.858Z" fill="black"/>
<path opacity="0.997" d="M409.498 583.867C417.642 583.867 424.245 577.265 424.245 569.12C424.245 560.976 417.642 554.373 409.498 554.373C401.353 554.373 394.751 560.976 394.751 569.12C394.751 577.265 401.353 583.867 409.498 583.867Z" fill="white"/>
<path opacity="0.997" d="M409.497 547.763C403.967 547.763 398.664 549.96 394.754 553.87C390.845 557.78 388.648 563.083 388.648 568.612C388.648 580.127 409.497 617.937 409.497 617.937C409.497 617.937 430.346 580.126 430.346 568.612C430.346 565.874 429.807 563.163 428.759 560.634C427.711 558.104 426.175 555.806 424.239 553.87C422.303 551.934 420.005 550.398 417.475 549.35C414.946 548.302 412.235 547.763 409.497 547.763ZM409.497 578.782C407.586 578.782 405.718 578.216 404.129 577.154C402.54 576.092 401.302 574.583 400.57 572.818C399.839 571.052 399.648 569.109 400.021 567.235C400.393 565.361 401.314 563.639 402.665 562.288C404.016 560.937 405.738 560.017 407.612 559.644C409.486 559.271 411.429 559.462 413.194 560.194C414.96 560.925 416.469 562.163 417.531 563.752C418.592 565.341 419.159 567.209 419.159 569.12C419.159 571.683 418.141 574.14 416.329 575.952C414.517 577.764 412.059 578.782 409.497 578.782Z" fill="#7B97FF"/>
<path opacity="0.997" d="M263.498 623.867C271.642 623.867 278.245 617.265 278.245 609.12C278.245 600.976 271.642 594.373 263.498 594.373C255.353 594.373 248.751 600.976 248.751 609.12C248.751 617.265 255.353 623.867 263.498 623.867Z" fill="white"/>
<path opacity="0.997" d="M263.497 587.763C257.967 587.763 252.664 589.96 248.755 593.87C244.845 597.78 242.648 603.083 242.648 608.612C242.648 620.127 263.497 657.937 263.497 657.937C263.497 657.937 284.346 620.126 284.346 608.612C284.346 605.874 283.807 603.163 282.759 600.634C281.711 598.104 280.175 595.806 278.239 593.87C276.303 591.934 274.005 590.398 271.476 589.35C268.946 588.302 266.235 587.763 263.497 587.763ZM263.497 618.782C261.586 618.782 259.718 618.216 258.129 617.154C256.54 616.092 255.302 614.583 254.57 612.818C253.839 611.052 253.648 609.109 254.021 607.235C254.393 605.361 255.314 603.639 256.665 602.288C258.016 600.937 259.738 600.017 261.612 599.644C263.486 599.271 265.429 599.462 267.194 600.194C268.96 600.925 270.469 602.163 271.531 603.752C272.592 605.341 273.159 607.209 273.159 609.12C273.159 611.683 272.141 614.14 270.329 615.952C268.517 617.764 266.059 618.782 263.497 618.782Z" fill="#3F3D56"/>
<path opacity="0.997" d="M448.498 657.867C456.642 657.867 463.245 651.265 463.245 643.12C463.245 634.976 456.642 628.373 448.498 628.373C440.353 628.373 433.751 634.976 433.751 643.12C433.751 651.265 440.353 657.867 448.498 657.867Z" fill="white"/>
<path opacity="0.997" d="M448.497 621.763C442.967 621.763 437.664 623.96 433.754 627.87C429.845 631.78 427.648 637.083 427.648 642.612C427.648 654.126 448.497 691.937 448.497 691.937C448.497 691.937 469.346 654.126 469.346 642.612C469.346 637.083 467.149 631.78 463.239 627.87C459.329 623.96 454.026 621.763 448.497 621.763ZM448.497 652.782C446.586 652.782 444.718 652.216 443.129 651.154C441.54 650.092 440.302 648.583 439.57 646.818C438.839 645.052 438.648 643.109 439.021 641.235C439.393 639.361 440.314 637.639 441.665 636.288C443.016 634.937 444.738 634.017 446.612 633.644C448.486 633.271 450.429 633.462 452.194 634.194C453.96 634.925 455.469 636.163 456.531 637.752C457.592 639.341 458.159 641.209 458.159 643.12C458.159 645.683 457.141 648.14 455.329 649.952C453.517 651.764 451.059 652.782 448.497 652.782Z" fill="#CCCCCC"/>
<path opacity="0.997" d="M198.498 731.867C206.642 731.867 213.245 725.265 213.245 717.12C213.245 708.976 206.642 702.373 198.498 702.373C190.353 702.373 183.751 708.976 183.751 717.12C183.751 725.265 190.353 731.867 198.498 731.867Z" fill="white"/>
<path opacity="0.997" d="M198.497 695.763C192.967 695.763 187.664 697.96 183.754 701.87C179.845 705.78 177.648 711.083 177.648 716.612C177.648 728.127 198.497 765.938 198.497 765.938C198.497 765.938 219.346 728.127 219.346 716.613C219.346 711.084 217.149 705.781 213.239 701.871C209.329 697.961 204.026 695.764 198.497 695.764V695.763ZM198.497 726.782C196.586 726.782 194.718 726.216 193.129 725.154C191.54 724.092 190.302 722.583 189.57 720.818C188.839 719.052 188.648 717.109 189.021 715.235C189.393 713.361 190.314 711.639 191.665 710.288C193.016 708.937 194.738 708.017 196.612 707.644C198.486 707.271 200.429 707.462 202.194 708.194C203.96 708.925 205.469 710.163 206.531 711.752C207.592 713.341 208.159 715.209 208.159 717.12C208.159 719.683 207.141 722.14 205.329 723.952C203.517 725.764 201.059 726.782 198.497 726.782Z" fill="#7B97FF"/>
<path opacity="0.997" d="M537.939 835.535C540.802 833.139 536.933 823.803 529.298 814.685C521.663 805.566 513.154 800.117 510.291 802.513C507.428 804.91 511.297 814.245 518.932 823.364C526.567 832.483 535.076 837.932 537.939 835.535Z" fill="#2F2E41"/>
<path opacity="0.997" d="M478.306 854.609C502.091 854.609 521.373 835.327 521.373 811.542C521.373 787.757 502.091 768.475 478.306 768.475C454.521 768.475 435.239 787.757 435.239 811.542C435.239 835.327 454.521 854.609 478.306 854.609Z" fill="#2F2E41"/>
<path opacity="0.997" d="M496.535 845.341H483.451V868.783H496.535V845.341Z" fill="#2F2E41"/>
<path opacity="0.997" d="M470.368 845.341H457.284V868.783H470.368V845.341Z" fill="#2F2E41"/>
<path opacity="0.997" d="M485.632 873.144C491.654 873.144 496.535 871.313 496.535 869.055C496.535 866.797 491.654 864.966 485.632 864.966C479.61 864.966 474.729 866.797 474.729 869.055C474.729 871.313 479.61 873.144 485.632 873.144Z" fill="#2F2E41"/>
<path opacity="0.997" d="M459.464 872.599C465.486 872.599 470.367 870.768 470.367 868.51C470.367 866.252 465.486 864.421 459.464 864.421C453.442 864.421 448.561 866.252 448.561 868.51C448.561 870.768 453.442 872.599 459.464 872.599Z" fill="#2F2E41"/>
<path opacity="0.997" d="M464.783 757.405C468.629 741.918 485.604 732.805 502.698 737.049C519.792 741.293 530.532 757.289 526.687 772.776C522.842 788.263 510.087 788.313 492.987 784.068C475.887 779.823 460.938 772.892 464.783 757.405Z" fill="#7B97FF"/>
<path opacity="0.997" d="M449.257 800.785C450.857 797.412 443.443 790.546 432.697 785.449C421.952 780.353 411.944 778.956 410.344 782.329C408.744 785.702 416.158 792.568 426.904 797.665C437.649 802.761 447.657 804.158 449.257 800.785Z" fill="#2F2E41"/>
<path opacity="0.997" d="M471.868 816.813C479.798 816.813 486.227 810.384 486.227 802.454C486.227 794.524 479.798 788.095 471.868 788.095C463.938 788.095 457.509 794.524 457.509 802.454C457.509 810.384 463.938 816.813 471.868 816.813Z" fill="white"/>
<path opacity="0.997" d="M465.966 802.093C468.609 802.093 470.752 799.95 470.752 797.307C470.752 794.664 468.609 792.521 465.966 792.521C463.323 792.521 461.18 794.664 461.18 797.307C461.18 799.95 463.323 802.093 465.966 802.093Z" fill="#3F3D56"/>
<path opacity="0.997" d="M480.875 832.372C481.1 833.609 481.079 834.878 480.814 836.106C480.549 837.335 480.044 838.5 479.329 839.533C478.614 840.567 477.702 841.45 476.645 842.131C475.589 842.812 474.409 843.279 473.172 843.504C471.935 843.729 470.666 843.708 469.438 843.443C468.209 843.178 467.044 842.673 466.011 841.958C464.977 841.243 464.094 840.331 463.413 839.274C462.732 838.218 462.265 837.038 462.04 835.801V835.783C461.098 830.583 465.12 828.74 470.323 827.798C475.526 826.856 479.933 827.167 480.875 832.372Z" fill="white"/>
<path opacity="0.997" d="M389.611 720.049C385.181 716.311 379.76 713.941 374.007 713.229C368.255 712.516 362.419 713.49 357.211 716.033C352.002 718.576 347.645 722.579 344.669 727.553C341.694 732.528 340.229 738.26 340.452 744.052C340.675 749.844 342.576 755.446 345.925 760.177C349.275 764.908 353.927 768.564 359.315 770.699C364.704 772.834 370.597 773.357 376.278 772.204C381.958 771.051 387.181 768.271 391.311 764.204L427.985 795.149C428.261 795.383 428.581 795.559 428.925 795.67C429.27 795.78 429.633 795.821 429.994 795.791C430.354 795.76 430.705 795.66 431.027 795.494C431.349 795.328 431.634 795.1 431.868 794.824C432.102 794.548 432.278 794.228 432.389 793.883C432.499 793.539 432.54 793.176 432.51 792.815C432.479 792.454 432.379 792.103 432.213 791.782C432.047 791.46 431.819 791.175 431.543 790.941L394.86 759.992C399.12 753.877 400.943 746.392 399.972 739.004C399.001 731.615 395.306 724.855 389.611 720.049ZM387.247 757.013C384.39 760.399 380.593 762.862 376.336 764.09C372.079 765.318 367.554 765.256 363.333 763.912C359.111 762.568 355.383 760.003 352.619 756.54C349.856 753.077 348.181 748.873 347.807 744.458C347.433 740.044 348.377 735.617 350.518 731.739C352.66 727.861 355.903 724.705 359.839 722.67C363.774 720.635 368.225 719.813 372.627 720.307C377.03 720.802 381.187 722.591 384.573 725.448C389.113 729.279 391.945 734.757 392.446 740.676C392.947 746.596 391.077 752.472 387.246 757.012L387.247 757.013Z" fill="#3F3D56"/>
<path opacity="0.3" d="M355.681 759.686C351.384 756.06 348.607 750.95 347.903 745.371C347.199 739.793 348.619 734.153 351.881 729.573C351.453 730.005 351.039 730.456 350.639 730.928C348.726 733.174 347.276 735.776 346.372 738.584C345.467 741.392 345.126 744.351 345.369 747.291C345.611 750.232 346.432 753.095 347.784 755.717C349.136 758.339 350.993 760.668 353.248 762.571C355.502 764.473 358.11 765.912 360.923 766.803C363.735 767.695 366.695 768.023 369.634 767.767C372.573 767.511 375.433 766.677 378.049 765.314C380.665 763.95 382.986 762.083 384.878 759.819C385.278 759.347 385.654 758.863 386.005 758.367C382.039 762.353 376.718 764.701 371.101 764.945C365.483 765.19 359.979 763.312 355.682 759.686H355.681Z" fill="black"/>
<path opacity="0.997" d="M201.227 781.436C205.473 770.328 206.088 760.243 202.601 758.91C199.114 757.577 192.845 765.501 188.6 776.609C184.354 787.717 183.739 797.802 187.226 799.135C190.713 800.468 196.982 792.544 201.227 781.436Z" fill="#2F2E41"/>
<path opacity="0.997" d="M155.109 854.608C178.894 854.608 198.176 835.326 198.176 811.541C198.176 787.756 178.894 768.474 155.109 768.474C131.324 768.474 112.042 787.756 112.042 811.541C112.042 835.326 131.324 854.608 155.109 854.608Z" fill="#2F2E41"/>
<path opacity="0.997" d="M148.567 845.341H135.483V868.783H148.567V845.341Z" fill="#2F2E41"/>
<path opacity="0.997" d="M174.735 845.341H161.651V868.783H174.735V845.341Z" fill="#2F2E41"/>
<path opacity="0.997" d="M146.386 873.144C152.408 873.144 157.289 871.313 157.289 869.055C157.289 866.797 152.408 864.966 146.386 864.966C140.364 864.966 135.483 866.797 135.483 869.055C135.483 871.313 140.364 873.144 146.386 873.144Z" fill="#2F2E41"/>
<path opacity="0.997" d="M172.554 872.599C178.576 872.599 183.457 870.768 183.457 868.51C183.457 866.252 178.576 864.421 172.554 864.421C166.532 864.421 161.651 866.252 161.651 868.51C161.651 870.768 166.532 872.599 172.554 872.599Z" fill="#2F2E41"/>
<path opacity="0.997" d="M156.199 815.357C164.328 815.357 170.918 808.767 170.918 800.638C170.918 792.509 164.328 785.919 156.199 785.919C148.07 785.919 141.48 792.509 141.48 800.638C141.48 808.767 148.07 815.357 156.199 815.357Z" fill="white"/>
<path opacity="0.997" d="M156.199 805.544C158.908 805.544 161.105 803.347 161.105 800.638C161.105 797.928 158.908 795.732 156.199 795.732C153.489 795.732 151.293 797.928 151.293 800.638C151.293 803.347 153.489 805.544 156.199 805.544Z" fill="#3F3D56"/>
<path opacity="0.997" d="M113.332 771.49C109.855 755.916 120.971 740.18 138.161 736.341C155.351 732.502 172.105 742.016 175.583 757.59C179.061 773.164 167.668 778.908 150.483 782.746C133.298 786.584 116.809 787.064 113.332 771.49Z" fill="#7B97FF"/>
<path opacity="0.997" d="M126.059 800.785C127.659 797.412 120.245 790.546 109.499 785.449C98.7536 780.353 88.7457 778.956 87.1458 782.329C85.5459 785.702 92.96 792.568 103.706 797.665C114.451 802.761 124.459 804.158 126.059 800.785Z" fill="#2F2E41"/>
<path opacity="0.997" d="M133.954 827.078C133.954 831.293 144.807 839.617 156.854 839.617C168.901 839.617 180.189 827.75 180.189 823.535C180.189 819.32 168.897 824.353 156.854 824.353C144.811 824.353 133.954 822.863 133.954 827.078Z" fill="white"/>
<path opacity="0.997" d="M294.828 932.608C318.613 932.608 337.895 913.326 337.895 889.541C337.895 865.756 318.613 846.474 294.828 846.474C271.043 846.474 251.761 865.756 251.761 889.541C251.761 913.326 271.043 932.608 294.828 932.608Z" fill="#2F2E41"/>
<path opacity="0.997" d="M288.287 923.341H275.203V946.783H288.287V923.341Z" fill="#2F2E41"/>
<path opacity="0.997" d="M314.454 923.341H301.37V946.783H314.454V923.341Z" fill="#2F2E41"/>
<path opacity="0.997" d="M286.106 951.144C292.128 951.144 297.009 949.313 297.009 947.055C297.009 944.797 292.128 942.966 286.106 942.966C280.084 942.966 275.203 944.797 275.203 947.055C275.203 949.313 280.084 951.144 286.106 951.144Z" fill="#2F2E41"/>
<path opacity="0.997" d="M312.273 950.599C318.294 950.599 323.176 948.768 323.176 946.51C323.176 944.252 318.294 942.421 312.273 942.421C306.251 942.421 301.37 944.252 301.37 946.51C301.37 948.768 306.251 950.599 312.273 950.599Z" fill="#2F2E41"/>
<path opacity="0.997" d="M253.051 849.49C249.574 833.916 260.69 818.18 277.88 814.341C295.07 810.502 311.824 820.016 315.302 835.59C318.78 851.164 307.387 856.908 290.202 860.746C273.017 864.584 256.527 865.064 253.051 849.49Z" fill="#3F3D56"/>
<path opacity="0.997" d="M295.001 882.079C295.001 882.079 298.125 868.333 292.189 868.958C286.253 869.583 278.131 869.895 275.944 869.895C273.757 869.895 261.261 868.333 259.386 876.456C257.511 884.579 255.012 894.576 260.323 900.824C260.323 900.824 262.197 928.316 269.383 930.191C276.569 932.066 295.625 934.252 302.499 925.191C304.511 922.496 305.916 919.397 306.617 916.107C307.318 912.818 307.299 909.415 306.56 906.134H303.436L295.001 882.079Z" fill="#7B97FF"/>
<path opacity="0.1" d="M263.447 903.01C263.447 903.01 268.758 905.51 279.692 903.947V908.633L263.447 907.383V903.01Z" fill="black"/>
<path opacity="0.997" d="M303.138 918.672L299.601 916.803L315.331 887.037C315.921 885.919 316.217 884.67 316.19 883.406C316.163 882.143 315.814 880.907 315.177 879.816C314.539 878.725 313.633 877.814 312.546 877.17C311.458 876.527 310.224 876.171 308.961 876.137L292.454 875.693L292.561 871.693L309.069 872.137C311.013 872.189 312.911 872.736 314.584 873.727C316.257 874.717 317.65 876.118 318.631 877.797C319.613 879.475 320.149 881.377 320.191 883.32C320.232 885.264 319.777 887.187 318.869 888.906L303.138 918.672Z" fill="#7B97FF"/>
<path opacity="0.997" d="M265.121 918.672L249.391 888.906C248.483 887.187 248.028 885.265 248.07 883.321C248.111 881.377 248.648 879.476 249.629 877.797C250.61 876.119 252.003 874.718 253.676 873.728C255.349 872.738 257.247 872.19 259.191 872.138L275.699 871.694L275.806 875.694L259.298 876.138C258.035 876.172 256.801 876.528 255.713 877.172C254.626 877.815 253.72 878.726 253.082 879.817C252.445 880.908 252.096 882.144 252.069 883.408C252.042 884.671 252.338 885.921 252.928 887.038L268.658 916.804L265.121 918.672Z" fill="#7B97FF"/>
<path opacity="0.997" d="M350.047 900.591C351.984 896.929 344.099 888.959 332.435 882.789C320.771 876.619 309.745 874.586 307.808 878.247C305.871 881.909 313.756 889.88 325.42 896.05C337.084 902.22 348.11 904.253 350.047 900.591Z" fill="#2F2E41"/>
</g>
</svg>
