<svg width="246" height="287" viewBox="0 0 246 287" fill="none" xmlns="http://www.w3.org/2000/svg">
<path d="M245.861 82.1828V276.754C245.861 279.47 244.782 282.075 242.862 283.995C240.941 285.916 238.336 286.995 235.62 286.995H10.328C7.61195 286.995 5.00712 285.916 3.08656 283.995C1.166 282.075 0.0870361 279.47 0.0870361 276.754V10.4988C0.0870361 7.78273 1.166 5.17789 3.08656 3.25733C5.00712 1.33677 7.61195 0.257813 10.328 0.257812H184.417C186.042 0.265139 187.641 0.658913 189.084 1.4066C190.526 2.1543 191.77 3.23444 192.712 4.55781L243.912 76.2418C245.165 77.9705 245.847 80.0477 245.861 82.1828Z" fill="#5273EB"/>
</svg>
