<svg width="329" height="329" viewBox="0 0 329 329" fill="none" xmlns="http://www.w3.org/2000/svg">
<path d="M94.5003 253.048L143.61 184.245L152.532 190.613L103.423 259.417L94.5003 253.048Z" fill="#7993F3"/>
<path d="M181.972 198.549L190.894 192.18L220.977 234.329L212.055 240.697L181.972 198.549Z" fill="#7993F3"/>
<path d="M94.2075 68.9412L103.332 62.8547L152.632 136.761L143.508 142.848L94.2075 68.9412Z" fill="#7993F3"/>
<path d="M176.334 136.799L225.757 62.7104L234.881 68.797L185.458 142.886L176.334 136.799Z" fill="#7993F3"/>
<path d="M76.7667 159.018H131.6V169.985H76.7667V159.018Z" fill="#7993F3"/>
<path d="M197.401 159.018H274.168V169.985H197.401V159.018Z" fill="#7993F3"/>
<path d="M268.683 16.45H290.617C292.071 16.45 293.466 17.0277 294.494 18.056C295.522 19.0843 296.1 20.479 296.1 21.9333V76.7666C296.1 78.2208 295.522 79.6158 294.494 80.6439C293.466 81.672 292.071 82.25 290.617 82.25H191.917C190.462 82.25 189.068 81.672 188.039 80.6439C187.011 79.6158 186.433 78.2208 186.433 76.7666V21.9333C186.433 20.479 187.011 19.0843 188.039 18.056C189.068 17.0277 190.462 16.45 191.917 16.45H268.683Z" fill="#A9B0BB"/>
<path d="M60.3167 180.95H87.7333C89.1875 180.95 90.5825 180.372 91.6106 179.344C92.6387 178.316 93.2167 176.921 93.2167 175.467V153.533C93.2079 150.628 92.0498 147.843 89.9952 145.788C87.9401 143.734 85.1556 142.575 82.25 142.567H60.3167V180.95Z" fill="#CAD0D7"/>
<path d="M312.548 120.633H268.682C262.625 120.633 257.716 125.543 257.716 131.6V197.4C257.716 203.457 262.625 208.367 268.682 208.367H312.548C318.605 208.367 323.515 203.457 323.515 197.4V131.6C323.515 125.543 318.605 120.633 312.548 120.633Z" fill="#CAD0D7"/>
<path d="M219.334 5.4834H263.201C264.656 5.4834 266.05 6.06112 267.078 7.08941C268.107 8.11776 268.684 9.51244 268.684 10.9667V82.2501H213.851V10.9667C213.851 9.51244 214.429 8.11776 215.457 7.08941C216.486 6.06112 217.88 5.4834 219.334 5.4834Z" fill="#CAD0D7"/>
<path d="M65.8 180.95V137.083C65.8 135.629 65.2221 134.234 64.1939 133.206C63.1658 132.178 61.7709 131.6 60.3167 131.6H10.9667C9.51238 131.6 8.1177 132.178 7.08935 133.206C6.06106 134.234 5.48334 135.629 5.48334 137.083V175.467C5.48334 176.921 6.06106 178.316 7.08935 179.344C8.1177 180.373 9.51238 180.95 10.9667 180.95H65.8Z" fill="#F2A149"/>
<path d="M27.4167 197.4C33.4734 197.4 38.3833 192.49 38.3833 186.433C38.3833 180.376 33.4734 175.467 27.4167 175.467C21.3599 175.467 16.45 180.376 16.45 186.433C16.45 192.49 21.3599 197.4 27.4167 197.4Z" fill="#5273EB"/>
<path d="M71.2833 197.4C77.3402 197.4 82.25 192.49 82.25 186.433C82.25 180.376 77.3402 175.467 71.2833 175.467C65.2264 175.467 60.3167 180.376 60.3167 186.433C60.3167 192.49 65.2264 197.4 71.2833 197.4Z" fill="#5273EB"/>
<path d="M109.667 16.45H54.8333C51.805 16.45 49.35 18.9049 49.35 21.9333V76.7666C49.35 79.7951 51.805 82.25 54.8333 82.25H109.667C112.695 82.25 115.15 79.7951 115.15 76.7666V21.9333C115.15 18.9049 112.695 16.45 109.667 16.45Z" fill="#CE9965"/>
<path d="M71.2833 16.45H93.2167V38.3833C93.2167 39.8375 92.6387 41.2323 91.6106 42.2605C90.5825 43.2889 89.1875 43.8666 87.7333 43.8666H76.7667C75.3125 43.8666 73.9175 43.2889 72.8894 42.2605C71.8613 41.2323 71.2833 39.8375 71.2833 38.3833V16.45Z" fill="#E8BB91"/>
<path d="M164.5 213.85C191.755 213.85 213.85 191.755 213.85 164.5C213.85 137.244 191.755 115.15 164.5 115.15C137.245 115.15 115.15 137.244 115.15 164.5C115.15 191.755 137.245 213.85 164.5 213.85Z" fill="#5273EB"/>
<path d="M224.816 279.65C232.086 279.65 239.06 282.539 244.202 287.68C249.344 292.822 252.232 299.795 252.232 307.067V318.033C252.232 319.488 251.654 320.882 250.626 321.911C249.597 322.939 248.203 323.517 246.748 323.517H202.882C201.428 323.517 200.033 322.939 199.004 321.911C197.976 320.882 197.399 319.488 197.399 318.033V307.067C197.399 299.795 200.287 292.822 205.429 287.68C210.57 282.539 217.544 279.65 224.816 279.65Z" fill="#FA6C51"/>
<path d="M202.883 252.233V257.717C202.883 260.779 203.524 263.807 204.765 266.607C206.006 269.406 207.819 271.915 210.088 273.971C212.357 276.028 215.032 277.586 217.94 278.546C220.848 279.506 223.924 279.847 226.972 279.546C232.495 278.863 237.57 276.162 241.222 271.962C244.873 267.762 246.842 262.36 246.75 256.795V252.233H202.883Z" fill="#EFC7A4"/>
<path d="M246.75 252.233V243.12C246.936 240.824 246.652 238.515 245.916 236.332C245.179 234.149 244.005 232.14 242.465 230.427C240.926 228.714 239.053 227.332 236.961 226.368C234.869 225.403 232.602 224.875 230.3 224.817H219.333C214.97 224.817 210.786 226.55 207.702 229.635C204.617 232.72 202.883 236.904 202.883 241.267V252.233H246.75Z" fill="#FDCD56"/>
<path d="M137.083 257.717H49.35L83.2918 233.481C86.1876 231.412 89.658 230.3 93.2167 230.3C96.7753 230.3 100.246 231.412 103.141 233.481L137.083 257.717Z" fill="#5273EB"/>
<path d="M49.35 257.717H137.083V323.517H49.35V257.717Z" fill="#CAD0D7"/>
<path d="M285.133 164.5C283.679 164.499 282.284 163.921 281.256 162.893L275.773 157.41C274.774 156.375 274.221 154.99 274.234 153.553C274.246 152.115 274.823 150.74 275.84 149.723C276.856 148.706 278.231 148.13 279.669 148.117C281.107 148.104 282.492 148.657 283.526 149.656L285.829 151.959L298.54 143.487C299.139 143.088 299.811 142.81 300.517 142.67C301.224 142.53 301.951 142.531 302.657 142.672C303.363 142.812 304.034 143.092 304.633 143.492C305.231 143.893 305.745 144.407 306.145 145.006C306.545 145.605 306.822 146.277 306.962 146.984C307.102 147.69 307.102 148.418 306.961 149.123C306.82 149.829 306.541 150.501 306.141 151.1C305.74 151.698 305.225 152.212 304.626 152.612L288.176 163.578C287.275 164.179 286.216 164.5 285.133 164.5Z" fill="#7694FF"/>
<path d="M285.133 191.917C283.679 191.917 282.284 191.339 281.256 190.311L275.773 184.827C274.774 183.793 274.221 182.408 274.234 180.97C274.246 179.533 274.823 178.157 275.84 177.141C276.856 176.124 278.231 175.547 279.669 175.535C281.107 175.523 282.492 176.075 283.526 177.074L285.829 179.377L298.54 170.905C299.139 170.505 299.811 170.228 300.517 170.088C301.224 169.948 301.951 169.948 302.657 170.09C303.363 170.231 304.034 170.509 304.633 170.91C305.231 171.31 305.745 171.825 306.145 172.424C306.545 173.023 306.822 173.695 306.962 174.402C307.102 175.108 307.102 175.835 306.961 176.541C306.82 177.248 306.541 177.919 306.141 178.518C305.74 179.116 305.225 179.63 304.626 180.029L288.176 190.996C287.275 191.597 286.216 191.918 285.133 191.917Z" fill="#7694FF"/>
<path d="M246.75 32.9H235.783C234.329 32.9 232.934 32.3223 231.906 31.294C230.878 30.2657 230.3 28.871 230.3 27.4167C230.3 25.9624 230.878 24.5677 231.906 23.5394C232.934 22.5111 234.329 21.9333 235.783 21.9333H246.75C248.204 21.9333 249.599 22.5111 250.627 23.5394C251.655 24.5677 252.233 25.9624 252.233 27.4167C252.233 28.871 251.655 30.2657 250.627 31.294C249.599 32.3223 248.204 32.9 246.75 32.9Z" fill="#F4F6F8"/>
<path d="M213.85 43.8666H208.367C206.912 43.8666 205.518 43.2888 204.489 42.2606C203.461 41.2322 202.883 39.8375 202.883 38.3832C202.883 36.9289 203.461 35.5343 204.489 34.5059C205.518 33.4776 206.912 32.8999 208.367 32.8999H213.85V43.8666Z" fill="#F4F6F8"/>
<path d="M213.85 65.7999H208.367C206.912 65.7999 205.518 65.222 204.489 64.1939C203.461 63.1657 202.883 61.7708 202.883 60.3166C202.883 58.8624 203.461 57.4674 204.489 56.4393C205.518 55.4112 206.912 54.8333 208.367 54.8333H213.85V65.7999Z" fill="#F4F6F8"/>
<path d="M268.683 32.8999H274.167C275.621 32.8999 277.016 33.4776 278.044 34.5059C279.072 35.5343 279.65 36.9289 279.65 38.3832C279.65 39.8375 279.072 41.2322 278.044 42.2606C277.016 43.2888 275.621 43.8666 274.167 43.8666H268.683V32.8999Z" fill="#F4F6F8"/>
<path d="M268.683 54.8333H274.167C275.621 54.8333 277.016 55.4112 278.044 56.4393C279.072 57.4674 279.65 58.8624 279.65 60.3166C279.65 61.7708 279.072 63.1657 278.044 64.1939C277.016 65.222 275.621 65.7999 274.167 65.7999H268.683V54.8333Z" fill="#F4F6F8"/>
<path d="M246.75 54.8334H235.783C234.329 54.8334 232.934 54.2556 231.906 53.2274C230.878 52.199 230.3 50.8043 230.3 49.35C230.3 47.8957 230.878 46.5011 231.906 45.4727C232.934 44.4444 234.329 43.8667 235.783 43.8667H246.75C248.204 43.8667 249.599 44.4444 250.627 45.4727C251.655 46.5011 252.233 47.8957 252.233 49.35C252.233 50.8043 251.655 52.199 250.627 53.2274C249.599 54.2556 248.204 54.8334 246.75 54.8334Z" fill="#F4F6F8"/>
<path d="M235.782 82.25V71.2834C235.782 69.8292 236.36 68.4342 237.388 67.4061C238.416 66.378 239.811 65.8 241.265 65.8C242.72 65.8 244.114 66.378 245.143 67.4061C246.171 68.4342 246.748 69.8292 246.748 71.2834V82.25H235.782Z" fill="#A9B0BB"/>
<path d="M82.25 307.067H71.2833C69.8292 307.067 68.4342 306.489 67.4061 305.461C66.3779 304.432 65.8 303.037 65.8 301.583C65.8 300.129 66.3779 298.734 67.4061 297.706C68.4342 296.678 69.8292 296.1 71.2833 296.1H82.25C83.7042 296.1 85.0991 296.678 86.1273 297.706C87.1554 298.734 87.7333 300.129 87.7333 301.583C87.7333 303.037 87.1554 304.432 86.1273 305.461C85.0991 306.489 83.7042 307.067 82.25 307.067Z" fill="#CE9965"/>
<path d="M82.25 285.133H71.2833C69.8292 285.133 68.4342 284.555 67.4061 283.527C66.3779 282.499 65.8 281.104 65.8 279.65C65.8 278.196 66.3779 276.801 67.4061 275.773C68.4342 274.745 69.8292 274.167 71.2833 274.167H82.25C83.7042 274.167 85.0991 274.745 86.1273 275.773C87.1554 276.801 87.7333 278.196 87.7333 279.65C87.7333 281.104 87.1554 282.499 86.1273 283.527C85.0991 284.555 83.7042 285.133 82.25 285.133Z" fill="#CE9965"/>
<path d="M115.15 307.067H104.183C102.729 307.067 101.334 306.489 100.306 305.461C99.2779 304.432 98.7 303.037 98.7 301.583C98.7 300.129 99.2779 298.734 100.306 297.706C101.334 296.678 102.729 296.1 104.183 296.1H115.15C116.604 296.1 117.999 296.678 119.027 297.706C120.055 298.734 120.633 300.129 120.633 301.583C120.633 303.037 120.055 304.432 119.027 305.461C117.999 306.489 116.604 307.067 115.15 307.067Z" fill="#CE9965"/>
<path d="M252.233 257.717H197.4C195.946 257.717 194.551 257.139 193.523 256.111C192.495 255.082 191.917 253.688 191.917 252.233C191.917 250.779 192.495 249.384 193.523 248.356C194.551 247.328 195.946 246.75 197.4 246.75H252.233C253.688 246.75 255.082 247.328 256.111 248.356C257.139 249.384 257.717 250.779 257.717 252.233C257.717 253.688 257.139 255.082 256.111 256.111C255.082 257.139 253.688 257.717 252.233 257.717Z" fill="#F2A149"/>
<path d="M224.816 235.783C223.361 235.783 221.966 235.205 220.938 234.177C219.91 233.149 219.332 231.754 219.332 230.3V219.333C219.332 217.879 219.91 216.484 220.938 215.456C221.966 214.428 223.361 213.85 224.816 213.85C226.27 213.85 227.664 214.428 228.693 215.456C229.721 216.484 230.298 217.879 230.298 219.333V230.3C230.298 231.754 229.721 233.149 228.693 234.177C227.664 235.205 226.27 235.783 224.816 235.783Z" fill="#F2A149"/>
</svg>
