<svg width="246" height="287" viewBox="0 0 246 287" fill="none" xmlns="http://www.w3.org/2000/svg">
<path d="M245.861 82.1828V276.754C245.861 279.47 244.782 282.075 242.862 283.995C240.941 285.916 238.336 286.995 235.62 286.995H10.328C7.61195 286.995 5.00712 285.916 3.08656 283.995C1.166 282.075 0.0870361 279.47 0.0870361 276.754V10.4988C0.0870361 7.78273 1.166 5.17789 3.08656 3.25733C5.00712 1.33677 7.61195 0.257813 10.328 0.257812H184.417C186.042 0.265139 187.641 0.658913 189.084 1.4066C190.526 2.1543 191.77 3.23444 192.712 4.55781L243.912 76.2418C245.165 77.9705 245.847 80.0477 245.861 82.1828Z" fill="#5273EB"/>
<path d="M245.861 82.1828V92.4228H174.177C171.461 92.4228 168.856 91.344 166.936 89.4236C165.015 87.5033 163.936 84.8987 163.936 82.1828V0.257812H184.417C186.042 0.265139 187.641 0.658913 189.084 1.4066C190.526 2.1543 191.77 3.23444 192.712 4.55781L243.912 76.2418C245.165 77.9705 245.847 80.0477 245.861 82.1828Z" fill="#E7E7E7"/>
<path d="M171.617 174.348H156.256C154.898 174.348 153.596 173.808 152.635 172.848C151.675 171.888 151.136 170.585 151.136 169.227C151.136 167.869 151.675 166.567 152.635 165.607C153.596 164.646 154.898 164.107 156.256 164.107H186.976C189.674 164.08 192.253 162.99 194.152 161.072C196.051 159.154 197.116 156.565 197.116 153.866C197.116 151.168 196.051 148.578 194.152 146.661C192.253 144.743 189.674 143.653 186.976 143.626H174.176V133.386C174.149 130.687 173.059 128.109 171.141 126.21C169.224 124.311 166.634 123.246 163.936 123.246C161.237 123.246 158.647 124.311 156.73 126.21C154.812 128.109 153.722 130.687 153.695 133.386V143.626C150.312 143.765 146.991 144.572 143.922 146.002C140.853 147.432 138.098 149.455 135.816 151.955C133.533 154.455 131.769 157.383 130.624 160.569C129.479 163.755 128.977 167.136 129.146 170.517C129.315 173.899 130.152 177.213 131.609 180.269C133.066 183.325 135.114 186.062 137.634 188.322C140.155 190.582 143.098 192.32 146.294 193.437C149.49 194.553 152.875 195.025 156.255 194.826H171.617C172.975 194.826 174.277 195.365 175.238 196.326C176.198 197.286 176.738 198.588 176.738 199.946C176.738 201.304 176.198 202.607 175.238 203.567C174.277 204.527 172.975 205.067 171.617 205.067H140.895C139.542 205.054 138.199 205.309 136.945 205.817C135.691 206.326 134.55 207.078 133.588 208.03C132.627 208.982 131.863 210.116 131.342 211.365C130.821 212.614 130.553 213.954 130.553 215.307C130.553 216.661 130.821 218.001 131.342 219.25C131.863 220.499 132.627 221.632 133.588 222.585C134.55 223.537 135.691 224.289 136.945 224.798C138.199 225.306 139.542 225.561 140.895 225.548H153.695V235.795C153.722 238.493 154.812 241.072 156.73 242.971C158.647 244.87 161.237 245.935 163.936 245.935C166.634 245.935 169.224 244.87 171.141 242.971C173.059 241.072 174.149 238.493 174.176 235.795V225.551C177.559 225.412 180.88 224.604 183.949 223.175C187.018 221.745 189.773 219.722 192.055 217.222C194.338 214.721 196.102 211.794 197.247 208.608C198.392 205.422 198.894 202.041 198.725 198.659C198.556 195.278 197.719 191.964 196.262 188.908C194.805 185.852 192.757 183.115 190.237 180.855C187.716 178.595 184.773 176.857 181.577 175.74C178.381 174.624 174.996 174.152 171.616 174.351L171.617 174.348Z" fill="#E7E7E7"/>
<path d="M112.734 71.9417H41.05C38.3516 71.915 35.7728 70.8244 33.874 68.9068C31.9753 66.9892 30.9102 64.3997 30.9102 61.7012C30.9102 59.0026 31.9753 56.4132 33.874 54.4956C35.7728 52.578 38.3516 51.4874 41.05 51.4607H112.734C115.432 51.4874 118.011 52.578 119.91 54.4956C121.809 56.4132 122.874 59.0026 122.874 61.7012C122.874 64.3997 121.809 66.9892 119.91 68.9068C118.011 70.8244 115.432 71.915 112.734 71.9417Z" fill="#F4CD81"/>
<path d="M112.734 112.904H41.05C38.3516 112.877 35.7728 111.787 33.874 109.869C31.9753 107.951 30.9102 105.362 30.9102 102.663C30.9102 99.9648 31.9753 97.3753 33.874 95.4577C35.7728 93.5402 38.3516 92.4495 41.05 92.4229H112.734C115.432 92.4495 118.011 93.5402 119.91 95.4577C121.809 97.3753 122.874 99.9648 122.874 102.663C122.874 105.362 121.809 107.951 119.91 109.869C118.011 111.787 115.432 112.877 112.734 112.904Z" fill="#F4CD81"/>
<path d="M112.734 153.866H41.05C38.3516 153.839 35.7728 152.748 33.874 150.831C31.9753 148.913 30.9102 146.324 30.9102 143.625C30.9102 140.927 31.9753 138.337 33.874 136.42C35.7728 134.502 38.3516 133.411 41.05 133.385H112.734C115.432 133.411 118.011 134.502 119.91 136.42C121.809 138.337 122.874 140.927 122.874 143.625C122.874 146.324 121.809 148.913 119.91 150.831C118.011 152.748 115.432 153.839 112.734 153.866Z" fill="#F4CD81"/>
</svg>
