<svg width="134" height="355" viewBox="0 0 134 355" fill="none" xmlns="http://www.w3.org/2000/svg">
<g opacity="0.8">
<path opacity="0.8" d="M101.042 278.907C101.042 278.907 89.8153 276.282 58.7421 296.983C27.669 317.683 23.2523 316.372 14.2024 315.41C5.15243 314.448 0.210082 314.656 -11.0667 303.237C-11.0667 303.237 -23.2237 268.707 -30.4408 264.204C-37.6578 259.7 -63.3546 272.661 -63.3546 272.661C-63.3546 272.661 -94.4688 285.234 -107.553 243.006C-107.553 243.006 -108.317 209.737 -115.869 200.694C-115.869 200.694 -103.003 204.018 -84.5459 192.489C-66.0891 180.959 -47.4591 195.904 -47.4591 195.904C-47.4591 195.904 -40.3671 208.082 -39.7173 215.824C-39.0675 223.567 -35.4206 226.051 -26.4911 220.812C-26.4911 220.812 -22.8719 213.447 -31.2255 203.575C-39.5792 193.702 -45.5302 186.32 -45.0057 177.533C-44.4812 168.747 -41.1148 156.157 -25.0566 147.59C-8.9984 139.024 13.8781 134.259 24.1694 127.944C34.4606 121.629 36.866 118.088 36.866 118.088C36.866 118.088 31.1296 125.979 51.7587 152.376C72.3878 178.773 64.0982 192.903 64.0982 192.903C64.0982 192.903 58.8214 214.594 20.8478 218.877C20.8478 218.877 -15.2552 225.925 6.96733 238.193C6.96733 238.193 19.2487 233.572 37.2521 224.602C55.2556 215.633 72.8088 238.306 78.9924 255.028C85.0837 271.768 101.042 278.907 101.042 278.907Z" fill="#5273EB"/>
<path opacity="0.8" d="M29.305 141.671L29.4771 141.548C31.8413 146.819 19.1129 171.602 7.97984 191.346L7.77833 191.283C23.5619 163.436 31.1977 145.773 29.305 141.671Z" fill="#5273EB"/>
<path opacity="0.8" d="M8.10907 190.946L8.2315 191.118C-0.647264 206.968 -11.8981 225.968 -21.0435 240.138C-21.8775 241.514 -22.8065 242.904 -23.5329 244.358L-23.8572 244.121C-23.0369 242.652 -22.2019 241.276 -21.274 239.885C-12.2231 225.732 -0.676794 206.781 8.10907 190.946Z" fill="#5273EB"/>
<path opacity="0.8" d="M75.3515 268.906C75.3515 268.906 49.494 260.27 31.5341 267.702C13.5743 275.134 -31.5369 261.506 -31.5369 261.506C-31.5369 261.506 -50.5152 257.044 -55.3612 249.391C-55.3612 249.391 -69.6397 238.35 -71.3408 231.826C-73.042 225.303 -87.6615 210.298 -95.4969 210.962" stroke="#444053" stroke-width="1.00064" stroke-miterlimit="10"/>
<path opacity="0.8" d="M73.7862 281.399C73.7862 281.399 60.462 275.183 60.3709 265.534" stroke="#444053" stroke-width="1.00064" stroke-miterlimit="10"/>
<path opacity="0.8" d="M56.9733 294.868C56.9733 294.868 38.7168 291.345 33.1552 267.063" stroke="#444053" stroke-width="1.00064" stroke-miterlimit="10"/>
<path opacity="0.8" d="M30.1614 305.614C30.1614 305.614 11.5791 294.584 13.2152 269.833" stroke="#444053" stroke-width="1.00064" stroke-miterlimit="10"/>
<path opacity="0.8" d="M73.2413 253.741C73.2413 253.741 61.4472 259.623 65.1083 265.837" stroke="#444053" stroke-width="1.00064" stroke-miterlimit="10"/>
<path opacity="0.8" d="M54.6407 233.529C54.6407 233.529 38.7786 241.49 42.1201 265.071" stroke="#444053" stroke-width="1.00064" stroke-miterlimit="10"/>
<path opacity="0.8" d="M30.5295 231.696C30.5295 231.696 18.282 252.863 22.0879 269.674" stroke="#444053" stroke-width="1.00064" stroke-miterlimit="10"/>
<path opacity="0.8" d="M5.09261 243.277C5.09261 243.277 -7.75664 260.042 -4.52646 267.759" stroke="#444053" stroke-width="1.00064" stroke-miterlimit="10"/>
<path opacity="0.8" d="M43.9635 208.333C43.9635 208.333 8.71842 216.584 -1.00623 207.12" stroke="#444053" stroke-width="1.00064" stroke-miterlimit="10"/>
<path opacity="0.8" d="M-26.0079 159.123C-26.0079 159.123 -10.5311 190.449 3.80157 198.801" stroke="#444053" stroke-width="1.00064" stroke-miterlimit="10"/>
<path opacity="0.8" d="M54.6782 178.702C54.6782 178.702 29.4392 194.552 11.3544 185.457" stroke="#444053" stroke-width="0.750483" stroke-miterlimit="10"/>
<path opacity="0.8" d="M-3.03333 148.315C-3.03333 148.315 6.96433 171.609 16.2937 176.157" stroke="#444053" stroke-width="0.750483" stroke-miterlimit="10"/>
<path opacity="0.8" d="M46.277 152.19C46.277 152.19 31.978 160.383 25.5757 156.803" stroke="#444053" stroke-width="0.750483" stroke-miterlimit="10"/>
</g>
<g opacity="0.6">
<path opacity="0.6" d="M-24.457 135.536C-24.457 135.536 -7.98766 110.721 -11.3441 87.6926C-12.8012 78.0413 -11.0921 68.1776 -6.4729 59.5791C-4.23083 55.5155 -1.63697 51.6561 1.27893 48.0453" stroke="#535461" stroke-width="2.00105" stroke-miterlimit="10"/>
<path opacity="0.6" d="M-0.705867 33.5807C-1.75402 36.9209 1.32968 48.4978 1.32968 48.4978C1.32968 48.4978 10.3686 40.6704 11.4185 37.3271C11.6905 36.5333 11.8018 35.6934 11.746 34.8563C11.6903 34.0191 11.4685 33.2014 11.0937 32.4507C10.7189 31.7001 10.1986 31.0314 9.56292 30.4838C8.92726 29.9362 8.18901 29.5204 7.39116 29.2608C6.5933 29.0012 5.75178 28.9029 4.91557 28.9716C4.07936 29.0404 3.26517 29.2747 2.5204 29.6611C1.77563 30.0475 1.11516 30.5781 0.577432 31.2222C0.0397043 31.8663 -0.364536 32.6109 -0.611757 33.4126C-0.659015 33.4367 -0.682225 33.508 -0.70632 33.5798L-0.705867 33.5807Z" fill="#5273EB"/>
<path opacity="0.6" d="M-16.4563 49.0061C-15.5275 52.3572 -6.63403 60.4381 -6.63403 60.4381C-6.63403 60.4381 -3.28409 48.9331 -4.21646 45.5839C-4.44389 44.7818 -4.82711 44.0323 -5.34422 43.3784C-5.86134 42.7244 -6.50222 42.1788 -7.23027 41.7725C-7.95831 41.3663 -8.75925 41.1075 -9.58734 41.0108C-10.4154 40.9142 -11.2544 40.9817 -12.0565 41.2093C-12.863 41.4226 -13.6186 41.7953 -14.2787 42.3054C-14.9388 42.8155 -15.4901 43.4526 -15.8999 44.1792C-16.3098 44.9058 -16.57 45.7072 -16.6651 46.536C-16.7602 47.3648 -16.6883 48.2042 -16.4537 49.0048L-16.4563 49.0061Z" fill="#5273EB"/>
<path opacity="0.6" d="M5.85428 65.0164C2.72186 66.6108 -9.16891 65.5532 -9.16891 65.5532C-9.16891 65.5532 -3.02712 55.316 0.105295 53.7217C1.60028 52.9842 3.3256 52.8655 4.9075 53.3912C6.48939 53.917 7.80045 55.0448 8.55662 56.5304C9.31279 58.016 9.45317 59.7397 8.94735 61.3281C8.44153 62.9165 7.33026 64.2416 5.85428 65.0164Z" fill="#5273EB"/>
<path opacity="0.6" d="M3.54479 94.9931C0.0721351 95.5662 -10.9635 91.0253 -10.9635 91.0253C-10.9635 91.0253 -1.99717 83.0553 1.42868 82.5072C3.08472 82.2269 4.7843 82.6159 6.15351 83.5887C7.52272 84.5615 8.44942 86.0383 8.72974 87.6944C9.01005 89.3504 8.62102 91.05 7.64824 92.4192C6.67546 93.7884 5.1986 94.7151 3.54256 94.9954L3.54479 94.9931Z" fill="#5273EB"/>
<path opacity="0.6" d="M-2.70282 123.806C-6.00448 124.949 -17.6692 122.341 -17.6692 122.341C-17.6692 122.341 -10.1869 112.976 -6.88519 111.833C-6.09713 111.55 -5.26077 111.425 -4.42439 111.467C-3.58802 111.509 -2.76819 111.716 -2.01223 112.076C-1.25628 112.436 -0.579173 112.943 -0.0199905 113.566C0.539192 114.189 0.969379 114.917 1.24572 115.708C1.52206 116.498 1.6391 117.336 1.59006 118.172C1.54103 119.008 1.32691 119.826 0.960048 120.578C0.59319 121.331 0.0808578 122.004 -0.547362 122.558C-1.17558 123.111 -1.90725 123.535 -2.70014 123.805L-2.70282 123.806Z" fill="#5273EB"/>
<path opacity="0.25" d="M-0.705867 33.5807C-1.75402 36.9209 1.32968 48.4978 1.32968 48.4978C1.32968 48.4978 10.3686 40.6704 11.4185 37.3271C11.6905 36.5333 11.8018 35.6934 11.746 34.8563C11.6903 34.0191 11.4685 33.2014 11.0937 32.4507C10.7189 31.7001 10.1986 31.0314 9.56292 30.4838C8.92726 29.9362 8.18901 29.5204 7.39116 29.2608C6.5933 29.0012 5.75178 28.9029 4.91557 28.9716C4.07936 29.0404 3.26517 29.2747 2.5204 29.6611C1.77563 30.0475 1.11516 30.5781 0.577432 31.2222C0.0397043 31.8663 -0.364536 32.6109 -0.611757 33.4126C-0.659015 33.4367 -0.682225 33.508 -0.70632 33.5798L-0.705867 33.5807Z" fill="#5273EB"/>
<path opacity="0.25" d="M-16.4563 49.0061C-15.5275 52.3572 -6.63403 60.4381 -6.63403 60.4381C-6.63403 60.4381 -3.28409 48.9331 -4.21646 45.5839C-4.44389 44.7818 -4.82711 44.0323 -5.34422 43.3784C-5.86134 42.7244 -6.50222 42.1788 -7.23027 41.7725C-7.95831 41.3663 -8.75925 41.1075 -9.58734 41.0108C-10.4154 40.9142 -11.2544 40.9817 -12.0565 41.2093C-12.863 41.4226 -13.6186 41.7953 -14.2787 42.3054C-14.9388 42.8155 -15.4901 43.4526 -15.8999 44.1792C-16.3098 44.9058 -16.57 45.7072 -16.6651 46.536C-16.7602 47.3648 -16.6883 48.2042 -16.4537 49.0048L-16.4563 49.0061Z" fill="#5273EB"/>
<path opacity="0.25" d="M5.85428 65.0164C2.72186 66.6108 -9.16891 65.5532 -9.16891 65.5532C-9.16891 65.5532 -3.02712 55.316 0.105295 53.7217C1.60028 52.9842 3.3256 52.8655 4.9075 53.3912C6.48939 53.917 7.80045 55.0448 8.55662 56.5304C9.31279 58.016 9.45317 59.7397 8.94735 61.3281C8.44153 62.9165 7.33026 64.2416 5.85428 65.0164Z" fill="#5273EB"/>
<path opacity="0.25" d="M3.54479 94.9931C0.0721351 95.5662 -10.9635 91.0253 -10.9635 91.0253C-10.9635 91.0253 -1.99717 83.0553 1.42868 82.5072C3.08472 82.2269 4.7843 82.6159 6.15351 83.5887C7.52272 84.5615 8.44942 86.0383 8.72974 87.6944C9.01005 89.3504 8.62102 91.05 7.64824 92.4192C6.67546 93.7884 5.1986 94.7151 3.54256 94.9954L3.54479 94.9931Z" fill="#5273EB"/>
<path opacity="0.25" d="M-2.70282 123.806C-6.00448 124.949 -17.6692 122.341 -17.6692 122.341C-17.6692 122.341 -10.1869 112.976 -6.88519 111.833C-6.09713 111.55 -5.26077 111.425 -4.42439 111.467C-3.58802 111.509 -2.76819 111.716 -2.01223 112.076C-1.25628 112.436 -0.579173 112.943 -0.0199905 113.566C0.539192 114.189 0.969379 114.917 1.24572 115.708C1.52206 116.498 1.6391 117.336 1.59006 118.172C1.54103 119.008 1.32691 119.826 0.960048 120.578C0.59319 121.331 0.0808578 122.004 -0.547362 122.558C-1.17558 123.111 -1.90725 123.535 -2.70014 123.805L-2.70282 123.806Z" fill="#5273EB"/>
<path opacity="0.6" d="M-24.3915 134.608C-24.3915 134.608 0.737515 118.59 7.00751 96.1585C9.5567 86.738 15.1174 78.4099 22.8413 72.4446C26.5087 69.624 30.4289 67.1483 34.5519 65.0491" stroke="#535461" stroke-width="2.00105" stroke-miterlimit="10"/>
<path opacity="0.6" d="M38.6658 50.9448C36.3746 53.6052 34.4827 65.383 34.4827 65.383C34.4827 65.383 45.9126 61.8958 48.2288 59.2844C49.3344 58.0164 49.8911 56.3611 49.7763 54.6827C49.6615 53.0042 48.8847 51.4401 47.6167 50.3344C46.3486 49.2288 44.6933 48.6721 43.0149 48.7869C41.3365 48.9017 39.7724 49.6785 38.6667 50.9466L38.6658 50.9448Z" fill="#5273EB"/>
<path opacity="0.6" d="M18.0019 58.7132C17.5033 62.1935 22.3462 73.1175 22.3462 73.1175C22.3462 73.1175 30.0684 63.989 30.5696 60.5118C30.7947 58.8517 30.3541 57.1699 29.344 55.8334C28.3339 54.4969 26.8363 53.6141 25.1778 53.3776C23.5193 53.141 21.8346 53.5699 20.4911 54.5707C19.1476 55.5715 18.2544 57.063 18.0064 58.7199L18.0019 58.7132Z" fill="#5273EB"/>
<path opacity="0.6" d="M-3.39323 83.9455C-2.06007 87.1514 7.6098 94.1747 7.6098 94.1747C7.6098 94.1747 9.62122 82.3956 8.33532 79.1657C8.02171 78.3955 7.55947 77.6946 6.97497 77.103C6.39048 76.5114 5.6952 76.0407 4.92881 75.7179C4.16242 75.395 3.33994 75.2262 2.50833 75.2212C1.67672 75.2162 0.852261 75.375 0.0820355 75.6886C-0.688191 76.0022 -1.3891 76.4645 -1.98068 77.049C-2.57226 77.6335 -3.04293 78.3288 -3.36581 79.0951C-3.68869 79.8615 -3.85745 80.684 -3.86246 81.5156C-3.86748 82.3472 -3.70865 83.1717 -3.39504 83.9419L-3.39323 83.9455Z" fill="#5273EB"/>
<path opacity="0.6" d="M-15.3271 106.75C-14.541 110.174 -6.1901 118.715 -6.1901 118.715C-6.1901 118.715 -2.19922 107.421 -2.91268 104.024C-3.05148 103.204 -3.35042 102.419 -3.79245 101.714C-4.23448 101.01 -4.81094 100.4 -5.4889 99.9178C-6.16687 99.4362 -6.93307 99.0927 -7.74376 98.9072C-8.55444 98.7216 -9.39374 98.6975 -10.2137 98.8363C-11.0337 98.9751 -11.8183 99.2741 -12.5228 99.7161C-13.2272 100.158 -13.8377 100.735 -14.3194 101.413C-14.8011 102.091 -15.1445 102.857 -15.3301 103.667C-15.5156 104.478 -15.5397 105.317 -15.4009 106.137C-15.3596 106.342 -15.3342 106.549 -15.3249 106.757L-15.3271 106.75Z" fill="#5273EB"/>
<path opacity="0.6" d="M31.9383 82.3371C28.4391 82.5049 17.9655 76.7214 17.9655 76.7214C17.9655 76.7214 27.729 69.8433 31.275 69.6483C32.1185 69.5862 32.9659 69.6932 33.7674 69.963C34.569 70.2328 35.3086 70.6598 35.943 71.2192C36.5773 71.7786 37.0936 72.459 37.4615 73.2205C37.8295 73.982 38.0417 74.8093 38.0857 75.6539C38.1297 76.4985 38.0046 77.3434 37.7178 78.139C37.431 78.9346 36.9882 79.665 36.4155 80.2872C35.8427 80.9095 35.1515 81.4111 34.3823 81.7627C33.6131 82.1143 32.7814 82.3088 31.9361 82.3348L31.9383 82.3371Z" fill="#5273EB"/>
<path opacity="0.6" d="M17.6942 108.823C14.3298 107.966 6.02806 99.2852 6.02806 99.2852C6.02806 99.2852 17.4327 95.6313 20.8211 96.5359C21.6278 96.7413 22.3863 97.1035 23.0531 97.6019C23.7199 98.1003 24.282 98.7252 24.7073 99.4409C25.1327 100.157 25.4128 100.949 25.5319 101.773C25.651 102.597 25.6066 103.436 25.4013 104.243C25.196 105.05 24.8337 105.808 24.3353 106.475C23.8369 107.142 23.212 107.704 22.4963 108.129C21.7806 108.555 20.9882 108.835 20.1643 108.954C19.3403 109.073 18.501 109.029 17.6942 108.823Z" fill="#5273EB"/>
<path opacity="0.6" d="M0.289932 132.619C-3.18871 132.358 -12.7873 125.234 -12.7873 125.234C-12.7873 125.234 -2.15769 119.705 1.34544 120.012C2.18055 120.071 2.99556 120.296 3.74322 120.673C4.49087 121.05 5.1563 121.571 5.7009 122.207C6.24551 122.843 6.65848 123.58 6.91584 124.377C7.1732 125.174 7.26982 126.014 7.20014 126.848C7.13046 127.682 6.89584 128.494 6.50989 129.237C6.12394 129.98 5.59434 130.639 4.9518 131.176C4.30926 131.713 3.56654 132.116 2.76675 132.364C1.96695 132.612 1.12599 132.698 0.292598 132.618L0.289932 132.619Z" fill="#5273EB"/>
</g>
</svg>
