<svg width="108" height="456" viewBox="0 0 108 456" fill="none" xmlns="http://www.w3.org/2000/svg">
<g opacity="0.8">
<path opacity="0.8" d="M72.6959 145.664C72.6959 145.664 57.2815 157.216 50.4192 219.217C43.5569 281.219 37.1366 285.466 26.1905 296.02C15.2444 306.573 10.2048 313.122 -16.5218 315.299C-16.5218 315.299 -73.776 293.791 -87.2899 298.196C-100.804 302.601 -111.8 349.41 -111.8 349.41C-111.8 349.41 -129.109 402.741 -197.217 374.158C-197.217 374.158 -240.624 339.418 -260.315 339.376C-260.315 339.376 -242.246 326.472 -237.187 290.462C-232.128 254.452 -192.997 246.653 -192.997 246.653C-192.997 246.653 -169.795 250.648 -159.186 258.128C-148.577 265.609 -141.48 263.61 -138.601 246.552C-138.601 246.552 -144.144 234.012 -165.75 234.106C-187.357 234.201 -203.195 233.89 -213.887 223.786C-224.578 213.683 -237.074 195.855 -230.801 166.102C-224.528 136.349 -206.066 101.946 -203.103 81.9917C-200.139 62.0378 -202.079 55.1618 -202.079 55.1618C-202.079 55.1618 -198.135 70.9769 -142.195 72.9077C-86.2558 74.8385 -77.0663 100.621 -77.0663 100.621C-77.0663 100.621 -54.963 130.663 -90.2508 183.874C-90.2508 183.874 -119.989 237.657 -80.4201 222.384C-80.4201 222.384 -73.1503 201.702 -65.3041 169.025C-57.458 136.349 -9.58787 138.222 18.4573 148.255C46.4226 158.427 72.6959 145.664 72.6959 145.664Z" fill="#5273EB"/>
<path opacity="0.8" d="M32.3084 167.813C32.3084 167.813 -6.50893 191.643 -16.2775 222.618C-26.0461 253.593 -91.9191 296.704 -91.9191 296.704C-91.9191 296.704 -118.007 316.21 -133.006 314.197C-133.006 314.197 -162.47 320.622 -172.648 315.796C-182.826 310.97 -217.733 313.578 -225.292 324.319" stroke="#444053" stroke-miterlimit="10"/>
<path opacity="0.8" d="M46.6237 183.23C46.6237 183.23 24.3588 193.616 11.9111 183.371" stroke="#444053" stroke-miterlimit="10"/>
<path opacity="0.8" d="M45.8141 219.214C45.8141 219.214 21.7037 238.802 -15.3513 219.853" stroke="#444053" stroke-miterlimit="10"/>
<path opacity="0.8" d="M30.7859 265.074C30.7859 265.074 -3.28404 277.02 -33.2137 248.354" stroke="#444053" stroke-miterlimit="10"/>
<path opacity="0.8" d="M10.6285 154.236C10.6285 154.236 5.49661 175.652 17.383 177.635" stroke="#444053" stroke-miterlimit="10"/>
<path opacity="0.8" d="M-35.2129 156.344C-35.2129 156.344 -42.0539 185.204 -8.27611 206.237" stroke="#444053" stroke-miterlimit="10"/>
</g>
</svg>
