<svg width="29" height="29" viewBox="0 0 29 29" fill="none" xmlns="http://www.w3.org/2000/svg">
<path d="M14.5 0C8.8783 0 4.30469 4.57362 4.30469 10.1953C4.30469 12.0947 4.83082 13.9483 5.82656 15.5565L13.9197 28.5984C14.0747 28.8482 14.3478 29 14.6415 29C14.6438 29 14.646 29 14.6483 29C14.9446 28.9977 15.2183 28.8412 15.3705 28.587L23.2573 15.4187C24.1981 13.8446 24.6953 12.0383 24.6953 10.1953C24.6953 4.57362 20.1217 0 14.5 0ZM21.7991 14.5463L14.6287 26.5183L7.27079 14.6612C6.44197 13.3227 5.99258 11.7784 5.99258 10.1953C5.99258 5.51057 9.81525 1.68789 14.5 1.68789C19.1847 1.68789 23.0018 5.51057 23.0018 10.1953C23.0018 11.7315 22.582 13.2362 21.7991 14.5463Z" fill="#5273EB"/>
<path d="M14.5 5.09766C11.6892 5.09766 9.40234 7.38446 9.40234 10.1953C9.40234 12.9882 11.6519 15.293 14.5 15.293C17.3832 15.293 19.5977 12.9575 19.5977 10.1953C19.5977 7.38446 17.3108 5.09766 14.5 5.09766ZM14.5 13.6051C12.6163 13.6051 11.0902 12.0739 11.0902 10.1953C11.0902 8.32141 12.6261 6.78555 14.5 6.78555C16.3739 6.78555 17.9041 8.32141 17.9041 10.1953C17.9041 12.0465 16.4135 13.6051 14.5 13.6051Z" fill="#5273EB"/>
</svg>
