<svg width="29" height="29" viewBox="0 0 29 29" fill="none" xmlns="http://www.w3.org/2000/svg">
<path d="M17.8479 8.38756C17.8478 7.72543 17.6514 7.07819 17.2835 6.52768C16.9156 5.97718 16.3927 5.54814 15.7809 5.29482C15.1691 5.04149 14.496 4.97525 13.8466 5.10449C13.1972 5.23372 12.6007 5.55261 12.1325 6.02084C11.6644 6.48907 11.3455 7.08562 11.2164 7.73504C11.0873 8.38445 11.1536 9.05759 11.407 9.66931C11.6604 10.281 12.0895 10.8039 12.6401 11.1717C13.1906 11.5396 13.8379 11.7359 14.5 11.7359C15.3877 11.7348 16.2387 11.3817 16.8663 10.754C17.4939 10.1263 17.847 9.27523 17.8479 8.38756ZM11.9451 8.38756C11.9452 7.88226 12.0951 7.38833 12.3759 6.96823C12.6567 6.54814 13.0557 6.22073 13.5226 6.02742C13.9895 5.83412 14.5032 5.78358 14.9987 5.88222C15.4943 5.98085 15.9495 6.22422 16.3068 6.58156C16.6641 6.93889 16.9074 7.39414 17.0059 7.88974C17.1044 8.38533 17.0538 8.89903 16.8604 9.36585C16.667 9.83268 16.3396 10.2317 15.9194 10.5124C15.4993 10.7931 15.0053 10.943 14.5 10.943C13.8226 10.9422 13.1731 10.6727 12.6941 10.1936C12.2151 9.71454 11.9457 9.06501 11.9451 8.38756Z" fill="#5273EB"/>
<path d="M27.9415 27.4297L24.7093 18.9563C24.6807 18.8812 24.6299 18.8167 24.5638 18.7711C24.4976 18.7256 24.4192 18.7012 24.3389 18.7011H18.2217C18.2591 18.6402 18.2963 18.5811 18.3337 18.5199C20.6874 14.623 21.8719 11.2142 21.8549 8.38938C21.8552 6.43868 21.0806 4.56774 19.7015 3.18815C18.3224 1.80856 16.4517 1.03334 14.501 1.033C12.5503 1.03267 10.6794 1.80727 9.29979 3.18639C7.9202 4.56551 7.14497 6.43618 7.14464 8.38688C7.12765 11.2142 8.31212 14.6235 10.6659 18.5199C10.7033 18.5817 10.7404 18.6409 10.7778 18.7011H4.66061C4.5803 18.7012 4.50189 18.7256 4.43575 18.7711C4.36961 18.8167 4.31885 18.8812 4.29018 18.9563L1.05849 27.4297C1.03547 27.4897 1.0274 27.5545 1.035 27.6183C1.0426 27.6822 1.06563 27.7432 1.1021 27.7962C1.13857 27.8491 1.18738 27.8924 1.24432 27.9222C1.30127 27.9521 1.36463 27.9677 1.42892 27.9675H27.5711C27.6354 27.9677 27.6987 27.9521 27.7557 27.9222C27.8126 27.8924 27.8614 27.8491 27.8979 27.7962C27.9344 27.7432 27.9574 27.6822 27.965 27.6183C27.9726 27.5545 27.9645 27.4897 27.9415 27.4297ZM7.93784 8.38756C7.93799 7.52581 8.10787 6.67252 8.43779 5.87642C8.7677 5.08032 9.25119 4.357 9.86065 3.74775C10.4701 3.1385 11.1936 2.65526 11.9898 2.32562C12.786 1.99598 13.6394 1.82639 14.5011 1.82654C15.3629 1.82669 16.2162 1.99657 17.0123 2.32649C17.8084 2.6564 18.5317 3.13989 19.1409 3.74935C19.7502 4.35881 20.2334 5.0823 20.5631 5.87851C20.8927 6.67473 21.0623 7.52807 21.0621 8.38983C21.0961 14.0217 15.8308 20.9679 14.5 22.6336C13.1692 20.9686 7.90363 14.0242 7.93784 8.38756ZM14.198 23.5172C14.2352 23.5609 14.2815 23.5961 14.3336 23.6202C14.3858 23.6443 14.4425 23.6568 14.5 23.6568C14.5574 23.6568 14.6142 23.6443 14.6663 23.6202C14.7185 23.5961 14.7648 23.5609 14.802 23.5172C15.8547 22.2348 16.8306 20.8913 17.7247 19.4937H24.0655L24.573 20.8247L12.182 25.2316L7.76542 19.493H11.2749C12.169 20.8908 13.1451 22.2346 14.198 23.5172ZM12.1682 26.0773H12.1705L19.5625 23.4492L22.4297 27.1746H9.08515L12.1682 26.0773ZM4.93407 19.493H6.7647L11.3961 25.5109L6.71916 27.1744H2.00439L4.93407 19.493ZM23.4313 27.1746L20.348 23.1685L24.8566 21.5651L26.996 27.1746H23.4313Z" fill="#5273EB"/>
</svg>
