<svg width="858" height="640" viewBox="0 0 858 640" fill="none" xmlns="http://www.w3.org/2000/svg">
<g opacity="0.8">
<path opacity="0.8" d="M254.937 429.173C250.767 433.681 248.413 439.573 248.33 445.714C248.247 451.854 250.44 457.808 254.487 462.427L393.868 617.045C395.813 619.277 398.209 621.072 400.897 622.312C403.586 623.552 406.506 624.209 409.467 624.239C412.427 624.27 415.361 623.674 418.075 622.49C420.788 621.306 423.221 619.561 425.212 617.37L850.528 163.486C852.879 160.927 854.661 157.899 855.758 154.601C856.854 151.303 857.238 147.81 856.887 144.353C856.588 140.922 855.551 137.597 853.846 134.604C852.142 131.612 849.81 129.024 847.011 127.018L679.765 10.265C675.635 7.32316 670.572 5.99293 665.529 6.52486C660.486 7.05679 655.812 9.41417 652.387 13.153L254.937 429.173Z" fill="#3F3D56"/>
<path opacity="0.8" d="M853.438 133.913C852.601 135.293 851.624 136.583 850.522 137.763L426.211 600.221C424.22 602.412 421.787 604.157 419.074 605.341C416.36 606.525 413.427 607.122 410.466 607.091C407.506 607.06 404.585 606.404 401.897 605.164C399.208 603.924 396.812 602.129 394.867 599.897L252.487 438.847C251.512 437.759 250.641 436.582 249.887 435.331C244.427 444.331 247.251 454.399 254.487 462.431L393.868 617.046C395.813 619.278 398.209 621.073 400.897 622.313C403.586 623.553 406.506 624.21 409.467 624.24C412.428 624.271 415.361 623.675 418.075 622.491C420.788 621.307 423.221 619.562 425.212 617.371L850.528 163.486C854.132 159.527 856.363 154.511 856.888 149.183C857.414 143.855 856.206 138.499 853.444 133.913H853.438Z" fill="#6C63FF"/>
<path opacity="0.8" d="M814.06 139.506L796.752 127.678C798.581 131.175 799.25 135.163 798.663 139.065C798.075 142.968 796.262 146.582 793.485 149.386C790.827 152.06 787.292 153.684 783.532 153.96C779.771 154.236 776.038 153.144 773.018 150.886L661.018 68.356C658.427 66.3805 656.413 63.7462 655.186 60.7277C653.959 57.7092 653.565 54.4169 654.043 51.194C654.429 48.0037 655.692 44.983 657.693 42.4682C659.694 39.9535 662.353 38.0432 665.375 36.95L656.458 30.856C655.314 30.0664 653.921 29.7221 652.541 29.8878C651.161 30.0536 649.889 30.718 648.964 31.756L272.189 428.621C271.048 429.89 270.429 431.544 270.457 433.251C270.486 434.957 271.159 436.59 272.341 437.821L409.176 580.728C409.719 581.292 410.373 581.739 411.096 582.04C411.819 582.341 412.596 582.491 413.379 582.479C414.162 582.468 414.934 582.295 415.648 581.973C416.362 581.65 417.002 581.184 417.528 580.604L815.07 149.484C815.714 148.782 816.202 147.951 816.5 147.046C816.798 146.141 816.9 145.182 816.799 144.235C816.713 143.295 816.424 142.385 815.951 141.569C815.478 140.752 814.832 140.048 814.06 139.506Z" fill="white"/>
<path opacity="0.8" d="M379.202 340.99L494.785 457.795L769.707 166.667L630.182 69.329L379.202 340.99Z" fill="#E6E6E6"/>
<path opacity="0.8" d="M759.022 238.515C759.386 238.899 759.825 239.205 760.311 239.413C760.798 239.622 761.321 239.73 761.851 239.73C762.38 239.73 762.904 239.622 763.39 239.413C763.876 239.205 764.315 238.899 764.679 238.515L788.721 212.747C789.473 211.917 789.89 210.836 789.89 209.716C789.89 208.595 789.473 207.514 788.721 206.684C788.357 206.3 787.918 205.995 787.432 205.786C786.945 205.577 786.422 205.469 785.893 205.469C785.363 205.469 784.84 205.577 784.353 205.786C783.867 205.995 783.428 206.3 783.064 206.684L759.022 232.452C758.27 233.282 757.853 234.363 757.853 235.484C757.853 236.604 758.27 237.685 759.022 238.515Z" fill="#3F3D56"/>
<path opacity="0.8" d="M718.522 281.924C718.88 282.319 719.316 282.634 719.803 282.85C720.291 283.066 720.817 283.177 721.35 283.177C721.883 283.177 722.41 283.066 722.897 282.85C723.384 282.634 723.821 282.319 724.179 281.924L748.221 256.155C748.975 255.325 749.393 254.244 749.393 253.123C749.393 252.002 748.975 250.921 748.221 250.091C747.863 249.696 747.427 249.38 746.94 249.164C746.452 248.947 745.925 248.836 745.392 248.836C744.859 248.836 744.332 248.947 743.845 249.164C743.358 249.38 742.921 249.696 742.564 250.091L718.522 275.865C717.771 276.695 717.354 277.775 717.354 278.895C717.354 280.014 717.771 281.094 718.522 281.924Z" fill="#3F3D56"/>
<path opacity="0.8" d="M381.871 470.19C396.783 470.19 408.871 457.234 408.871 441.251C408.871 425.268 396.783 412.312 381.871 412.312C366.959 412.312 354.871 425.268 354.871 441.251C354.871 457.234 366.959 470.19 381.871 470.19Z" fill="#6C63FF"/>
<path opacity="0.8" d="M643.249 626.039H69.168V623.701H643.644L643.249 626.039Z" fill="#3F3D56"/>
<path opacity="0.8" d="M578.872 191.183H293.462V251.58H578.872V191.183Z" fill="#E6E6E6"/>
<path opacity="0.8" d="M578.872 95.749H293.462V156.146H578.872V95.749Z" fill="#E6E6E6"/>
<path opacity="0.8" d="M578.872 0H293.462V60.397H578.872V0Z" fill="#E6E6E6"/>
<path opacity="0.8" d="M299.546 53.875H572.787V6.521H299.546V53.875Z" fill="white"/>
<path opacity="0.8" d="M299.546 149.834H572.787V102.48H299.546V149.834Z" fill="white"/>
<path opacity="0.8" d="M299.546 245.058H572.787V197.704H299.546V245.058Z" fill="white"/>
<path opacity="0.8" d="M323.466 47.848C332.762 47.848 340.298 39.7708 340.298 29.807C340.298 19.8432 332.762 11.766 323.466 11.766C314.17 11.766 306.634 19.8432 306.634 29.807C306.634 39.7708 314.17 47.848 323.466 47.848Z" fill="#6C63FF"/>
<path opacity="0.8" d="M529.839 22.7469H363.716V26.6689H529.839V22.7469Z" fill="#6C63FF"/>
<path opacity="0.8" d="M529.839 32.944H363.716V36.866H529.839V32.944Z" fill="#6C63FF"/>
<path opacity="0.8" d="M323.466 144.38C332.762 144.38 340.298 136.303 340.298 126.339C340.298 116.375 332.762 108.298 323.466 108.298C314.17 108.298 306.634 116.375 306.634 126.339C306.634 136.303 314.17 144.38 323.466 144.38Z" fill="#CCCCCC"/>
<path opacity="0.8" d="M529.839 119.28H363.716V123.202H529.839V119.28Z" fill="#CCCCCC"/>
<path opacity="0.8" d="M529.839 129.477H363.716V133.399H529.839V129.477Z" fill="#CCCCCC"/>
<path opacity="0.8" d="M323.466 239.815C332.762 239.815 340.298 231.738 340.298 221.774C340.298 211.81 332.762 203.733 323.466 203.733C314.17 203.733 306.634 211.81 306.634 221.774C306.634 231.738 314.17 239.815 323.466 239.815Z" fill="#CCCCCC"/>
<path opacity="0.8" d="M529.839 214.715H363.716V218.637H529.839V214.715Z" fill="#CCCCCC"/>
<path opacity="0.8" d="M529.839 224.911H363.716V228.833H529.839V224.911Z" fill="#CCCCCC"/>
<path opacity="0.8" d="M12.8579 633.155L20.2209 634.082C26.0369 637.84 32.8629 639.255 40.4209 638.967C41.5001 638.917 42.5459 638.578 43.4488 637.985C44.3517 637.391 45.0784 636.566 45.5529 635.596C45.9948 634.715 46.2413 633.75 46.2759 632.765C46.3104 631.78 46.132 630.8 45.7529 629.89C45.3968 629.007 44.8396 628.219 44.1256 627.589C43.4116 626.96 42.5605 626.505 41.6399 626.262L36.0449 624.862L22.5449 610.71L14.4009 594.91L2.57094 596.364L0.10794 616.431C-0.54106 624.777 5.09994 632.172 12.8599 633.148L12.8579 633.155Z" fill="#2F2E41"/>
<path opacity="0.8" d="M127.528 623.004L134.744 624.824C140.122 629.268 146.754 631.507 154.295 632.144C155.366 632.229 156.44 632.02 157.402 631.541C158.363 631.061 159.176 630.329 159.752 629.422C160.285 628.595 160.632 627.662 160.77 626.688C160.908 625.713 160.834 624.721 160.552 623.778C160.291 622.856 159.822 622.006 159.18 621.294C158.539 620.582 157.742 620.027 156.852 619.672L151.442 617.601L139.534 601.893L133.122 585.203H121.22L116.64 604.838C115.108 613.046 119.928 621.081 127.528 623.004Z" fill="#2F2E41"/>
<path opacity="0.8" d="M133.448 586.309L119.982 588.529L98.7481 473.621L61.9761 406.453L17.4351 601.853L0.862107 605.184C2.72011 495.146 -6.34989 356.615 14.3281 339.84L104.445 350.94L143.806 464.183L133.448 586.309Z" fill="#2F2E41"/>
<path opacity="0.8" d="M68.1897 168.864C85.352 168.864 99.2647 153.952 99.2647 135.557C99.2647 117.162 85.352 102.25 68.1897 102.25C51.0275 102.25 37.1147 117.162 37.1147 135.557C37.1147 153.952 51.0275 168.864 68.1897 168.864Z" fill="#FFB8B8"/>
<path opacity="0.8" d="M24.6851 186.626L61.9751 193.287L71.2981 157.759L44.3661 148.876L24.6851 186.626Z" fill="#FFB8B8"/>
<path opacity="0.8" d="M9.14795 344.278L108.588 354.27C100.616 324.559 93.312 294.952 99.266 265.452C106.826 239.116 99.529 223.452 79.585 211.052L66.1199 178.852L29.866 174.411C20.217 191.195 16.3165 210.673 18.7579 229.878C23.9279 271.878 22.5279 310.84 9.14795 344.278Z" fill="#6C63FF"/>
<path opacity="0.8" d="M55.9707 97.757C66.5837 96.971 78.8537 96.757 80.3907 99.75C91.3807 99.199 100.952 103.308 105.367 112.87C105.744 113.706 105.947 114.61 105.962 115.527C105.976 116.443 105.803 117.354 105.453 118.201C105.122 119.024 104.614 119.764 103.964 120.368C103.314 120.972 102.539 121.425 101.694 121.694C96.1187 123.417 87.6207 125.548 81.4207 124.868C68.5437 141.094 73.9617 170.689 86.4607 187.979L75.1667 190.46L53.7347 158.471L60.4977 193.684L34.4167 198.256L25.3167 153.506C23.4055 142.879 23.8837 131.961 26.7167 121.542C27.0181 120.496 27.3828 119.47 27.8087 118.468C32.9267 106.536 43.7447 98.581 55.9727 97.756L55.9707 97.757Z" fill="#2F2E41"/>
<path opacity="0.8" d="M73.37 377.587L72.683 403.362C72.483 410.733 77.639 417.013 84.483 417.747C86.6285 417.958 88.7924 417.618 90.7706 416.761C92.7487 415.904 94.4758 414.557 95.789 412.847C97.1741 411.064 98.1336 408.988 98.5941 406.777C99.0546 404.566 99.0039 402.28 98.446 400.092L93.046 378.692L77.508 287.653L78.544 234.362L45.397 233.252L51.612 293.204L73.37 377.587Z" fill="#FFB8B8"/>
<path opacity="0.8" d="M43.3281 238.807C55.2747 233.904 68.6716 233.904 80.6181 238.807L78.5461 194.398C78.5461 184.587 71.1261 176.634 61.9731 176.634C52.8201 176.634 45.4001 184.587 45.4001 194.398L43.3281 238.807Z" fill="#6C63FF"/>
</g>
</svg>
