<svg width="183" height="433" viewBox="0 0 183 433" fill="none" xmlns="http://www.w3.org/2000/svg">
<g opacity="0.8">
<path opacity="0.8" d="M350.373 171.77C350.373 171.77 337.412 181.482 331.641 233.622C325.87 285.762 320.474 289.327 311.268 298.206C302.062 307.085 297.825 312.587 275.351 314.418C275.351 314.418 227.206 296.331 215.842 300.036C204.477 303.741 195.231 343.102 195.231 343.102C195.231 343.102 180.676 387.948 123.404 363.913C123.404 363.913 86.9013 334.7 70.3481 334.667C70.3481 334.667 85.5422 323.815 89.7962 293.535C94.0502 263.255 126.955 256.696 126.955 256.696C126.955 256.696 146.466 260.054 155.388 266.345C164.309 272.635 170.276 270.953 172.699 256.61C172.699 256.61 168.038 246.066 149.868 246.145C131.698 246.224 118.379 245.966 109.39 237.467C100.402 228.967 89.8921 213.98 95.1676 188.96C100.443 163.94 115.967 135.011 118.459 118.232C120.951 101.452 119.314 95.667 119.314 95.667C119.314 95.667 122.63 108.966 169.67 110.59C216.71 112.213 224.437 133.895 224.437 133.895C224.437 133.895 243.024 159.157 213.35 203.903C213.35 203.903 188.343 249.13 221.617 236.286C221.617 236.286 227.731 218.894 234.328 191.416C240.926 163.938 281.181 165.512 304.764 173.95C328.28 182.504 350.373 171.77 350.373 171.77Z" fill="#5273EB"/>
<path opacity="0.8" d="M137.875 125.096L137.897 124.8C145.706 127.014 160.893 163.09 172.099 192.902L171.848 193.06C156.119 150.928 143.999 126.762 137.875 125.096Z" fill="#5273EB"/>
<path opacity="0.8" d="M171.782 192.401L172.078 192.424C181.125 216.292 191.421 245.556 198.416 268.192C199.144 270.332 199.803 272.587 200.712 274.683L200.164 274.819C199.322 272.611 198.595 270.469 197.936 268.215C190.874 245.693 180.897 216.154 171.782 192.401Z" fill="#5273EB"/>
<path opacity="0.8" d="M199.963 274.387L200.554 274.433C216.557 317.659 263.442 348.153 263.893 348.424L254.833 350.105C254.333 349.65 216.056 317.977 199.963 274.387Z" fill="#5273EB"/>
<path opacity="0.8" d="M316.416 190.399C316.416 190.399 283.775 210.438 275.562 236.48C267.349 262.523 211.952 298.782 211.952 298.782C211.952 298.782 190.014 315.185 177.403 313.489C177.403 313.489 152.628 318.893 144.068 314.835C135.509 310.776 106.156 312.969 99.7949 322.002" stroke="#444053" stroke-miterlimit="10"/>
<path opacity="0.8" d="M178.319 260.142C178.319 260.142 195.078 258.285 193.873 254.619" stroke="#444053" stroke-miterlimit="10"/>
<path opacity="0.8" d="M222.868 169.505C222.868 169.505 199.933 214.891 180.965 216.815" stroke="#444053" stroke-miterlimit="10"/>
<path opacity="0.8" d="M114.696 234.304C114.696 234.304 170.636 240.191 185.101 228.747" stroke="#444053" stroke-miterlimit="10"/>
<path opacity="0.8" d="M106.725 200.396C106.725 200.396 154.417 212.019 176.349 204.127" stroke="#444053" stroke-miterlimit="10"/>
<path opacity="0.8" d="M200.644 131.218C200.644 131.218 194.93 172.7 168.804 183.951" stroke="#444053" stroke-width="0.75" stroke-miterlimit="10"/>
<path opacity="0.8" d="M115.831 165.907C115.831 165.907 149.933 176.175 163.256 170.24" stroke="#444053" stroke-width="0.75" stroke-miterlimit="10"/>
<path opacity="0.8" d="M164.521 116.324C164.521 116.324 160.431 139.112 150.797 142.773" stroke="#444053" stroke-width="0.75" stroke-miterlimit="10"/>
<path opacity="0.8" d="M178.419 281.887C178.419 281.887 204.252 297.409 201.833 305.559" stroke="#444053" stroke-miterlimit="10"/>
<path opacity="0.8" d="M177.299 359.278C177.299 359.278 196.442 332.832 189.83 311.357" stroke="#444053" stroke-miterlimit="10"/>
<path opacity="0.8" d="M143.612 270.73C143.612 270.73 165.752 293.172 161.594 316.075" stroke="#444053" stroke-miterlimit="10"/>
<path opacity="0.8" d="M139.708 359.459C139.708 359.459 158.366 343.874 151.212 316.341" stroke="#444053" stroke-miterlimit="10"/>
<path opacity="0.8" d="M107.881 279.156C107.881 279.156 128.978 294.31 132.018 312.71" stroke="#444053" stroke-miterlimit="10"/>
<path opacity="0.8" d="M106.388 338.354C106.388 338.354 116.348 322.035 113.325 314.951" stroke="#444053" stroke-miterlimit="10"/>
</g>
<g opacity="0.6">
<path opacity="0.6" d="M195.861 118.951C195.861 118.951 186.939 90.5565 166.939 78.6864C158.526 73.7507 151.938 66.222 148.162 57.228C146.415 52.9315 145.048 48.4903 144.076 43.9551" stroke="#535461" stroke-width="1.99975" stroke-miterlimit="10"/>
<path opacity="0.6" d="M131.591 36.4034C133.527 39.3175 144.459 44.2002 144.459 44.2002C144.459 44.2002 144.061 32.2576 142.124 29.3401C141.678 28.6298 141.096 28.0153 140.411 27.5323C139.725 27.0493 138.951 26.7075 138.132 26.5267C137.313 26.346 136.466 26.3299 135.641 26.4794C134.816 26.6289 134.029 26.941 133.326 27.3976C132.623 27.8542 132.017 28.4461 131.545 29.1389C131.073 29.8317 130.743 30.6115 130.575 31.433C130.407 32.2545 130.404 33.1011 130.566 33.9238C130.728 34.7464 131.053 35.5285 131.52 36.2247C131.509 36.2765 131.55 36.3393 131.59 36.4032L131.591 36.4034Z" fill="#5273EB"/>
<path opacity="0.6" d="M133.672 58.3365C136.86 59.7217 148.728 57.8932 148.728 57.8932C148.728 57.8932 141.897 48.058 138.709 46.6767C137.943 46.3491 137.12 46.1757 136.287 46.1662C135.453 46.1568 134.627 46.3116 133.853 46.6218C133.08 46.932 132.376 47.3915 131.78 47.974C131.184 48.5565 130.709 49.2507 130.382 50.0169C130.04 50.7775 129.855 51.5988 129.836 52.4322C129.817 53.2657 129.966 54.0945 130.273 54.8697C130.579 55.6449 131.038 56.3508 131.622 56.9457C132.206 57.5406 132.904 58.0125 133.673 58.3336L133.672 58.3365Z" fill="#5273EB"/>
<path opacity="0.6" d="M152.473 85.5663C155.933 85.1593 165.205 77.6102 165.205 77.6102C165.205 77.6102 154.359 72.5833 150.899 72.9903C150.074 73.0934 149.276 73.358 148.553 73.7691C147.83 74.1803 147.194 74.7299 146.683 75.3866C146.172 76.0433 145.796 76.7942 145.575 77.5964C145.354 78.3987 145.293 79.2366 145.396 80.0622C145.499 80.8879 145.764 81.6852 146.175 82.4087C146.586 83.1321 147.136 83.7674 147.793 84.2784C149.119 85.3104 150.801 85.7733 152.468 85.5653L152.473 85.5663Z" fill="#5273EB"/>
<path opacity="0.6" d="M171.351 102.966C174.855 103.114 185.291 97.281 185.291 97.281C185.291 97.281 175.472 90.513 171.975 90.313C170.307 90.2471 168.681 90.8422 167.449 91.969C166.217 93.0958 165.481 94.6631 165.398 96.3303C165.316 97.9975 165.895 99.6297 167.01 100.872C168.125 102.115 169.685 102.867 171.351 102.965L171.351 102.966Z" fill="#5273EB"/>
<path opacity="0.6" d="M160.136 51.0703C159.405 54.506 151.108 63.0783 151.108 63.0783C151.108 63.0783 147.017 51.8713 147.748 48.4355C148.115 46.8106 149.107 45.3957 150.51 44.4973C151.913 43.599 153.613 43.2895 155.243 43.6361C156.872 43.9826 158.299 44.9573 159.215 46.3488C160.131 47.7403 160.462 49.4366 160.136 51.0703Z" fill="#5273EB"/>
<path opacity="0.6" d="M181.971 71.71C180.233 74.7679 169.767 80.4859 169.767 80.4859C169.767 80.4859 169.213 68.5101 170.941 65.5042C171.764 64.0415 173.135 62.9658 174.751 62.5137C176.368 62.0616 178.098 62.2702 179.56 63.0936C181.023 63.9169 182.099 65.2876 182.551 66.9041C183.003 68.5206 182.794 70.2504 181.971 71.7131L181.971 71.71Z" fill="#5273EB"/>
<path opacity="0.25" d="M131.591 36.4034C133.527 39.3175 144.459 44.2002 144.459 44.2002C144.459 44.2002 144.061 32.2576 142.124 29.3401C141.678 28.6298 141.096 28.0153 140.411 27.5323C139.725 27.0493 138.951 26.7075 138.132 26.5267C137.313 26.346 136.466 26.3299 135.641 26.4794C134.816 26.6289 134.029 26.941 133.326 27.3976C132.623 27.8542 132.017 28.4461 131.545 29.1389C131.073 29.8317 130.743 30.6115 130.575 31.433C130.407 32.2545 130.404 33.1011 130.566 33.9238C130.728 34.7464 131.053 35.5285 131.52 36.2247C131.509 36.2765 131.55 36.3393 131.59 36.4032L131.591 36.4034Z" fill="#5273EB"/>
<path opacity="0.25" d="M133.672 58.3365C136.86 59.7217 148.728 57.8932 148.728 57.8932C148.728 57.8932 141.897 48.058 138.709 46.6767C137.943 46.3491 137.12 46.1757 136.287 46.1662C135.453 46.1568 134.627 46.3116 133.853 46.6218C133.08 46.932 132.376 47.3915 131.78 47.974C131.184 48.5565 130.709 49.2507 130.382 50.0169C130.04 50.7775 129.855 51.5988 129.836 52.4322C129.817 53.2657 129.966 54.0945 130.273 54.8697C130.579 55.6449 131.038 56.3508 131.622 56.9457C132.206 57.5406 132.904 58.0125 133.673 58.3336L133.672 58.3365Z" fill="#5273EB"/>
<path opacity="0.25" d="M152.473 85.5663C155.933 85.1593 165.205 77.6102 165.205 77.6102C165.205 77.6102 154.359 72.5833 150.899 72.9903C150.074 73.0934 149.276 73.358 148.553 73.7691C147.83 74.1803 147.194 74.7299 146.683 75.3866C146.172 76.0433 145.796 76.7942 145.575 77.5964C145.354 78.3987 145.293 79.2366 145.396 80.0622C145.499 80.8879 145.764 81.6852 146.175 82.4087C146.586 83.1321 147.136 83.7674 147.793 84.2784C149.119 85.3104 150.801 85.7733 152.468 85.5653L152.473 85.5663Z" fill="#5273EB"/>
<path opacity="0.25" d="M171.351 102.966C174.855 103.114 185.291 97.281 185.291 97.281C185.291 97.281 175.472 90.513 171.975 90.313C170.307 90.2471 168.681 90.8422 167.449 91.969C166.217 93.0958 165.481 94.6631 165.398 96.3303C165.316 97.9975 165.895 99.6297 167.01 100.872C168.125 102.115 169.685 102.867 171.351 102.965L171.351 102.966Z" fill="#5273EB"/>
<path opacity="0.25" d="M160.136 51.0703C159.405 54.506 151.108 63.0783 151.108 63.0783C151.108 63.0783 147.017 51.8713 147.748 48.4355C148.115 46.8106 149.107 45.3957 150.51 44.4973C151.913 43.599 153.613 43.2895 155.243 43.6361C156.872 43.9826 158.299 44.9573 159.215 46.3488C160.131 47.7403 160.462 49.4366 160.136 51.0703Z" fill="#5273EB"/>
<path opacity="0.25" d="M181.971 71.71C180.233 74.7679 169.767 80.4859 169.767 80.4859C169.767 80.4859 169.213 68.5101 170.941 65.5042C171.764 64.0415 173.135 62.9658 174.751 62.5137C176.368 62.0616 178.098 62.2702 179.56 63.0936C181.023 63.9169 182.099 65.2876 182.551 66.9041C183.003 68.5206 182.794 70.2504 181.971 71.7131L181.971 71.71Z" fill="#5273EB"/>
<path opacity="0.6" d="M195.182 118.316C195.182 118.316 198.537 88.7258 185.053 69.7527C179.338 61.85 176.364 52.2946 176.586 42.5442C176.7 37.922 177.242 33.3202 178.203 28.7976" stroke="#535461" stroke-width="1.99975" stroke-miterlimit="10"/>
<path opacity="0.6" d="M169.832 16.7347C170.459 20.1871 178.419 29.0612 178.419 29.0612C178.419 29.0612 182.895 17.9898 182.323 14.5488C182.033 12.8927 181.097 11.4196 179.721 10.4536C178.345 9.4876 176.642 9.10777 174.986 9.39769C173.329 9.68761 171.856 10.6235 170.89 11.9996C169.924 13.3756 169.544 15.079 169.834 16.7351L169.832 16.7347Z" fill="#5273EB"/>
<path opacity="0.6" d="M162.876 37.6709C165.266 40.2462 176.797 43.3517 176.797 43.3517C176.797 43.3517 174.561 31.6141 172.175 29.0386C171.026 27.8201 169.443 27.1051 167.77 27.0495C166.096 26.994 164.469 27.6024 163.243 28.742C162.016 29.8817 161.29 31.4601 161.223 33.1329C161.156 34.8058 161.753 36.4373 162.884 37.6716L162.876 37.6709Z" fill="#5273EB"/>
<path opacity="0.6" d="M169.027 70.1542C172.355 71.134 183.891 68.0376 183.891 68.0376C183.891 68.0376 176.005 59.0699 172.687 58.0382C171.892 57.7976 171.057 57.716 170.23 57.7982C169.403 57.8803 168.6 58.1245 167.867 58.5169C167.135 58.9093 166.486 59.4421 165.96 60.085C165.433 60.7278 165.038 61.4681 164.798 62.2636C164.557 63.0591 164.475 63.8942 164.557 64.7212C164.64 65.5482 164.884 66.351 165.276 67.0836C165.669 67.8163 166.201 68.4644 166.844 68.9911C167.487 69.5178 168.227 69.9128 169.023 70.1534L169.027 70.1542Z" fill="#5273EB"/>
<path opacity="0.6" d="M179.239 93.7615C182.393 95.3032 194.278 94.1856 194.278 94.1856C194.278 94.1856 188.014 83.9855 184.926 82.4036C184.202 81.9959 183.405 81.7348 182.579 81.6354C181.754 81.5359 180.918 81.5999 180.117 81.8237C179.317 82.0476 178.568 82.4269 177.915 82.94C177.261 83.4531 176.714 84.09 176.307 84.8142C175.899 85.5385 175.638 86.3359 175.538 87.161C175.439 87.9862 175.503 88.8228 175.727 89.6232C175.951 90.4236 176.33 91.1721 176.843 91.8259C177.356 92.4797 177.993 93.0261 178.717 93.4337C178.902 93.53 179.079 93.6404 179.246 93.7639L179.239 93.7615Z" fill="#5273EB"/>
<path opacity="0.6" d="M189.99 41.6965C187.92 44.5203 176.843 49.0206 176.843 49.0206C176.843 49.0206 177.638 37.1119 179.716 34.2346C180.198 33.5404 180.813 32.9494 181.527 32.4963C182.24 32.0432 183.037 31.7372 183.871 31.596C184.704 31.4549 185.557 31.4816 186.38 31.6745C187.203 31.8674 187.979 32.2227 188.663 32.7195C189.346 33.2163 189.924 33.8446 190.362 34.5676C190.8 35.2906 191.089 36.0937 191.212 36.9298C191.335 37.766 191.29 38.6183 191.08 39.4369C190.869 40.2555 190.498 41.0238 189.986 41.6968L189.99 41.6965Z" fill="#5273EB"/>
</g>
</svg>
