<svg width="163" height="456" viewBox="0 0 163 456" fill="none" xmlns="http://www.w3.org/2000/svg">
<path opacity="0.8" d="M415.696 145.664C415.696 145.664 400.282 157.216 393.419 219.217C386.557 281.219 380.137 285.466 369.191 296.02C358.244 306.573 353.205 313.122 326.478 315.299C326.478 315.299 269.224 293.791 255.71 298.196C242.196 302.601 231.2 349.41 231.2 349.41C231.2 349.41 213.891 402.741 145.783 374.158C145.783 374.158 102.376 339.418 82.6849 339.376C82.6849 339.376 100.754 326.472 105.813 290.462C110.872 254.452 150.003 246.653 150.003 246.653C150.003 246.653 173.205 250.648 183.814 258.128C194.423 265.609 201.52 263.61 204.399 246.552C204.399 246.552 198.856 234.012 177.25 234.106C155.643 234.201 139.805 233.89 129.113 223.786C118.422 213.683 105.926 195.855 112.199 166.102C118.472 136.349 136.934 101.946 139.897 81.9917C142.861 62.0378 140.921 55.1618 140.921 55.1618C140.921 55.1618 144.865 70.9769 200.805 72.9077C256.744 74.8385 265.934 100.621 265.934 100.621C265.934 100.621 288.037 130.663 252.749 183.874C252.749 183.874 223.011 237.657 262.58 222.384C262.58 222.384 269.85 201.702 277.696 169.025C285.542 136.349 333.412 138.222 361.457 148.255C389.423 158.427 415.696 145.664 415.696 145.664Z" fill="#5273EB"/>
</svg>
