<?xml version="1.0" standalone="no"?>
<!DOCTYPE svg PUBLIC "-//W3C//DTD SVG 20010904//EN"
 "http://www.w3.org/TR/2001/REC-SVG-20010904/DTD/svg10.dtd">
<svg version="1.0" xmlns="http://www.w3.org/2000/svg"
 width="177.000000pt" height="177.000000pt" viewBox="0 0 177.000000 177.000000"
 preserveAspectRatio="xMidYMid meet">
<metadata>
Created by potrace 1.11, written by Peter Selinger 2001-2013
</metadata>
<g transform="translate(0.000000,177.000000) scale(0.100000,-0.100000)"
fill="#000000" stroke="none">
<path d="M360 1353 l0 -193 106 0 c79 0 105 3 102 13 -3 10 -119 221 -184 332
l-24 40 0 -192z"/>
<path d="M370 1088 c0 -4 10 -17 23 -30 12 -13 40 -45 62 -72 75 -92 71 -91
206 -91 117 -1 133 3 134 32 0 26 15 16 95 -60 l82 -78 -83 -78 c-46 -43 -85
-78 -86 -77 -2 1 -4 13 -6 27 -4 24 -4 24 -133 24 -71 1 -131 -2 -134 -6 -6
-7 -104 -120 -137 -157 -13 -14 -23 -28 -23 -31 0 -12 513 -4 558 8 63 18 141
87 177 156 26 52 30 68 29 139 -1 52 -7 94 -18 119 -34 78 -126 155 -206 173
-44 10 -540 12 -540 2z"/>
<path d="M163 153 c-9 -3 -13 -27 -13 -73 0 -67 0 -68 28 -72 16 -2 43 0 60 4
25 7 32 14 32 32 0 14 -5 26 -11 28 -9 3 -9 10 1 27 10 19 9 26 -2 37 -13 13
-73 24 -95 17z m60 -49 c-8 -20 -33 -17 -33 4 0 10 3 22 7 25 10 11 32 -13 26
-29z m7 -48 c0 -17 -24 -38 -33 -29 -15 15 -6 43 13 43 11 0 20 -6 20 -14z"/>
<path d="M415 150 c-64 -25 -68 -114 -6 -139 40 -17 111 4 107 31 -3 24 -17
37 -32 31 -8 -3 -13 -8 -10 -11 3 -2 1 -13 -4 -22 -13 -24 -49 -14 -56 15 -15
59 19 104 54 72 17 -15 32 -14 32 3 0 7 -46 30 -58 29 -4 0 -16 -4 -27 -9z"/>
<path d="M612 141 c-9 -19 -8 -119 1 -128 9 -8 68 -8 95 1 23 8 29 35 11 53
-8 8 -8 17 0 31 16 30 -6 51 -57 55 -32 3 -45 -1 -50 -12z m68 -32 c0 -10 -7
-19 -15 -19 -9 0 -15 9 -15 25 0 18 4 23 15 19 8 -4 15 -15 15 -25z m5 -49 c8
-13 -14 -42 -26 -34 -5 3 -9 14 -9 25 0 20 24 26 35 9z"/>
<path d="M769 153 c-13 -3 -16 -16 -16 -60 0 -82 41 -115 95 -77 19 13 22 24
22 75 0 33 -4 59 -10 59 -5 0 -10 -6 -11 -12 0 -7 -1 -33 -2 -58 -2 -38 -5
-45 -24 -48 -13 -2 -23 0 -24 5 -1 4 -2 31 -3 60 -2 58 -4 61 -27 56z"/>
<path d="M912 140 c-25 -27 -19 -52 19 -74 16 -9 29 -21 29 -26 0 -15 -21 -23
-33 -11 -15 15 -27 14 -27 -3 0 -18 17 -24 54 -20 56 6 62 55 12 85 -22 13
-33 26 -29 34 4 11 10 12 25 4 21 -11 38 -4 22 10 -22 21 -53 22 -72 1z"/>
<path d="M1391 141 c-29 -29 -26 -46 9 -71 17 -12 30 -28 30 -36 0 -17 -27
-19 -33 -1 -3 9 -8 9 -16 1 -9 -8 -8 -14 3 -23 19 -16 73 -5 85 16 12 22 2 51
-19 58 -24 8 -43 32 -35 45 4 7 12 7 26 -1 22 -11 39 -4 23 10 -22 21 -53 22
-73 2z"/>
<path d="M1528 153 c-39 -10 -34 -73 7 -91 14 -6 25 -16 25 -21 0 -17 -20 -23
-36 -10 -20 17 -31 2 -12 -17 24 -24 76 -10 84 23 6 21 0 31 -31 58 -27 22
-35 34 -26 39 6 4 19 2 27 -5 19 -16 30 -4 14 16 -13 15 -21 16 -52 8z"/>
<path d="M297 83 c1 -38 2 -71 2 -75 1 -3 9 -5 19 -4 14 2 17 15 19 74 2 68 1
72 -20 72 -21 0 -22 -4 -20 -67z"/>
<path d="M1027 143 c-3 -7 -2 -115 2 -134 0 -3 8 -6 16 -6 18 0 23 17 23 90 1
49 -1 57 -18 57 -10 0 -21 -3 -23 -7z"/>
<path d="M1102 78 c3 -82 24 -98 22 -18 l-1 49 36 -51 c20 -29 41 -52 46 -52
6 -1 11 31 13 72 2 59 0 72 -12 72 -11 0 -15 -8 -12 -30 2 -16 0 -30 -3 -30
-4 0 -15 14 -24 30 -13 21 -26 30 -43 30 -24 0 -25 -1 -22 -72z"/>
<path d="M1252 78 l3 -72 35 1 c54 1 60 2 60 13 0 6 -6 10 -12 9 -7 -1 -20 -1
-30 0 -24 2 -15 35 10 39 30 5 28 22 -2 22 -30 0 -30 33 0 38 44 9 35 22 -14
22 l-53 0 3 -72z"/>
</g>
</svg>
