<svg width="32" height="33" viewBox="0 0 32 33" fill="none" xmlns="http://www.w3.org/2000/svg">
<path d="M0.327531 14.7919L0.592577 14.9149V18.7C0.59311 19.1375 0.780583 19.5569 1.11387 19.8662C1.44715 20.1755 1.89902 20.3495 2.37036 20.35V25.85H1.77776C1.6206 25.85 1.46987 25.9079 1.35874 26.0111C1.24761 26.1142 1.18517 26.2541 1.18517 26.4V33H2.37036V26.95H15.4074V33H16.5926V26.95H29.6296V33H30.8148V26.4C30.8148 26.2541 30.7524 26.1142 30.6413 26.0111C30.5301 25.9079 30.3794 25.85 30.2222 25.85H29.6296V20.35C30.101 20.3495 30.5529 20.1755 30.8861 19.8662C31.2194 19.5569 31.4069 19.1375 31.4074 18.7V14.9149L31.6725 14.7919C31.8054 14.7302 31.9085 14.6244 31.9613 14.4954C32.0141 14.3665 32.0128 14.2238 31.9576 14.0957L31.244 12.44C31.0644 12.0255 30.7963 11.649 30.4559 11.333C30.1156 11.0171 29.7099 10.7683 29.2633 10.6016L28.4076 10.284C28.4319 10.1572 28.4443 10.0287 28.4445 9.9V7.15C28.4445 7.05946 28.4204 6.97031 28.3743 6.89048C28.3283 6.81065 28.2617 6.7426 28.1806 6.69238L26.7466 5.80515C26.4519 5.62274 26.1093 5.51801 25.7555 5.50212C25.4016 5.48623 25.0497 5.55978 24.7374 5.71492C24.4251 5.87006 24.1639 6.10098 23.9819 6.38304C23.7998 6.6651 23.7037 6.98774 23.7037 7.31654V9.9C23.7039 10.0287 23.7162 10.1572 23.7406 10.284L22.8849 10.6016C22.2649 10.8331 21.7273 11.2213 21.3333 11.7223V9.41492L21.5984 9.29193C21.7313 9.23021 21.8344 9.12439 21.8872 8.99544C21.9401 8.86649 21.9387 8.72382 21.8835 8.59573L21.1699 6.93999C20.9903 6.52548 20.7222 6.14896 20.3819 5.83304C20.0415 5.51712 19.6358 5.26834 19.1892 5.10163L18.3335 4.78396C18.3579 4.65722 18.3702 4.52874 18.3704 4.4V1.81654C18.3704 1.48775 18.2742 1.16512 18.0922 0.883055C17.9102 0.600993 17.6491 0.370078 17.3367 0.214935C17.0244 0.0597923 16.6725 -0.0137607 16.3187 0.00212061C15.9649 0.0180019 15.6223 0.122722 15.3275 0.305112L13.8935 1.19238C13.8123 1.2426 13.7458 1.31065 13.6997 1.39048C13.6537 1.47031 13.6296 1.55946 13.6296 1.65V4.4C13.6298 4.52874 13.6422 4.65722 13.6665 4.78396L12.8108 5.10163C12.3642 5.26834 11.9585 5.51712 11.6181 5.83304C11.2778 6.14896 11.0097 6.52548 10.8301 6.93999L10.1165 8.59573C10.0613 8.72382 10.0599 8.86649 10.1128 8.99544C10.1656 9.12439 10.2687 9.23021 10.4016 9.29193L10.6667 9.41492V11.7223C10.2727 11.2213 9.7351 10.8331 9.11508 10.6016L8.2594 10.284C8.28377 10.1572 8.29611 10.0287 8.29629 9.9V7.31654C8.2963 6.98775 8.20016 6.66512 8.01813 6.38305C7.83609 6.10099 7.57498 5.87008 7.26264 5.71494C6.9503 5.55979 6.59845 5.48624 6.24461 5.50212C5.89077 5.518 5.54821 5.62272 5.25346 5.80511L3.81943 6.69238C3.73826 6.7426 3.6717 6.81065 3.62566 6.89048C3.57963 6.97031 3.55554 7.05946 3.55554 7.15V9.9C3.55572 10.0287 3.56807 10.1572 3.59244 10.284L2.73675 10.6016C2.29014 10.7683 1.88445 11.0171 1.54406 11.333C1.20367 11.649 0.935612 12.0255 0.755989 12.44L0.0423745 14.0957C-0.0128201 14.2238 -0.0141393 14.3665 0.0386784 14.4954C0.0914961 14.6244 0.194594 14.7302 0.327531 14.7919ZM1.77776 18.7V15.4649L2.37036 15.7399V19.25C2.21325 19.2498 2.06262 19.1918 1.95153 19.0887C1.84043 18.9856 1.77794 18.8458 1.77776 18.7ZM3.55554 25.85V17.6H8.29629V19.25C7.98207 19.2503 7.68082 19.3663 7.45863 19.5726C7.23644 19.7788 7.11146 20.0584 7.1111 20.35V23.0543L6.51048 19.7096C6.48741 19.5812 6.41601 19.4645 6.30897 19.3803C6.20193 19.2962 6.0662 19.25 5.92592 19.25C5.78563 19.25 5.6499 19.2962 5.54286 19.3803C5.43582 19.4645 5.36442 19.5812 5.34135 19.7096L4.2387 25.85H3.55554ZM22.5185 15.95V19.25C22.3614 19.2498 22.2108 19.1918 22.0997 19.0887C21.9886 18.9856 21.9261 18.8458 21.9259 18.7V15.4649L22.5185 15.7399V15.95ZM20.3221 14.6885C20.3669 14.7305 20.4188 14.7654 20.4757 14.7919L20.7407 14.9149V18.7C20.7407 18.8874 20.7751 19.0734 20.8427 19.25H19.5556V14.85C19.8209 14.8503 20.0829 14.7951 20.3221 14.6885ZM18.3704 19.25H17.671L16.5811 14.1921C16.5542 14.0675 16.4816 13.9553 16.3757 13.8747C16.2698 13.7941 16.137 13.75 16 13.75C15.863 13.75 15.7302 13.7941 15.6243 13.8747C15.5184 13.9553 15.4458 14.0675 15.4189 14.1921L14.329 19.25H13.6296V12.1H18.3704V19.25ZM16.4623 19.25H15.5377L16 17.1045L16.4623 19.25ZM12.4444 19.25H11.1573C11.2249 19.0734 11.2593 18.8874 11.2593 18.7V14.9149L11.5243 14.7919C11.5812 14.7654 11.6331 14.7305 11.678 14.6885C11.9172 14.7951 12.1791 14.8503 12.4444 14.85V19.25ZM10.0741 18.7C10.0739 18.8458 10.0114 18.9856 9.9003 19.0887C9.78921 19.1918 9.63859 19.2498 9.48147 19.25V15.7399L10.0741 15.4649V18.7ZM6.41154 25.85H5.44029L5.92592 23.1455L6.41154 25.85ZM8.29622 25.85L8.29557 20.35L8.29629 20.35H15.4074V25.85H8.29622ZM16.5926 25.85V20.35H23.7037V25.85H16.5926ZM25.5884 25.85L26.0741 23.1455L26.5597 25.85H25.5884ZM27.7613 25.85L26.6586 19.7096C26.6356 19.5812 26.5642 19.4645 26.4571 19.3803C26.3501 19.2962 26.2144 19.25 26.0741 19.25C25.9338 19.25 25.7981 19.2962 25.691 19.3803C25.584 19.4645 25.5126 19.5812 25.4895 19.7096L24.8889 23.0543V20.35C24.8885 20.0584 24.7636 19.7788 24.5414 19.5726C24.3192 19.3663 24.0179 19.2503 23.7037 19.25V17.6H28.4445V25.85H27.7613ZM30.2222 18.7C30.2221 18.8458 30.1596 18.9856 30.0485 19.0887C29.9374 19.1918 29.7868 19.2498 29.6296 19.25V15.7399L30.2222 15.4649V18.7ZM26.0741 11C25.7599 10.9997 25.4586 10.8837 25.2364 10.6774C25.0142 10.4712 24.8893 10.1916 24.8889 9.9V8.8H27.2593V9.9C27.2589 10.1916 27.1339 10.4712 26.9117 10.6774C26.6896 10.8837 26.3883 10.9997 26.0741 11ZM24.8889 7.31654C24.8889 7.18685 24.9268 7.05958 24.9986 6.94833C25.0704 6.83707 25.1734 6.74598 25.2966 6.68478C25.4198 6.62359 25.5586 6.59457 25.6982 6.60084C25.8377 6.6071 25.9729 6.6484 26.0891 6.72035L27.2593 7.44437V7.7H24.8889V7.31654ZM22.0046 12.8485C22.1243 12.5722 22.303 12.3212 22.5299 12.1106C22.7568 11.9 23.0273 11.7341 23.325 11.6229L24.2344 11.2853C24.5538 11.6508 24.9908 11.9119 25.4815 12.0304V14.85H26.6667V12.0304C27.1574 11.9119 27.5944 11.6508 27.9137 11.2853L28.8231 11.6229C29.1209 11.7341 29.3913 11.9 29.6182 12.1106C29.8452 12.3212 30.0239 12.5722 30.1436 12.8485L30.6547 14.0344L28.772 14.9081C28.6736 14.9538 28.5908 15.024 28.5329 15.1109C28.4751 15.1977 28.4445 15.2979 28.4445 15.4V16.5H23.7037V15.4C23.7037 15.2979 23.6731 15.1977 23.6152 15.1109C23.5574 15.024 23.4746 14.9538 23.3762 14.9081L21.4935 14.0344L22.0046 12.8485ZM20.1482 13.2C20.148 13.3458 20.0855 13.4856 19.9744 13.5887C19.8633 13.6918 19.7127 13.7498 19.5556 13.75V10.2399L20.1482 9.96492V13.2ZM16 5.5C15.6858 5.49967 15.3845 5.38367 15.1623 5.17745C14.9402 4.97123 14.8152 4.69164 14.8148 4.4V3.3H17.1852V4.4C17.1848 4.69164 17.0598 4.97123 16.8377 5.17745C16.6155 5.38367 16.3142 5.49967 16 5.5ZM14.8148 1.94437L15.985 1.22031C16.1013 1.14838 16.2364 1.10709 16.376 1.10083C16.5155 1.09458 16.6543 1.1236 16.7775 1.1848C16.9007 1.246 17.0037 1.33708 17.0755 1.44834C17.1473 1.5596 17.1852 1.68685 17.1852 1.81654V2.2H14.8148V1.94437ZM11.9305 7.34853C12.0502 7.0722 12.2289 6.82118 12.4558 6.61057C12.6828 6.39996 12.9532 6.23409 13.2509 6.12294L14.1603 5.78532C14.4797 6.15085 14.9167 6.41193 15.4074 6.53038V9.35H16.5926V6.53038C17.0833 6.41193 17.5203 6.15085 17.8397 5.78533L18.7491 6.12294C19.0468 6.23409 19.3172 6.39996 19.5442 6.61057C19.7711 6.82118 19.9498 7.07219 20.0695 7.34853L20.5806 8.5344L18.6979 9.40807C18.5995 9.45375 18.5167 9.52397 18.4589 9.61085C18.401 9.69774 18.3704 9.79786 18.3704 9.9V11H13.6296V9.9C13.6296 9.79786 13.599 9.69774 13.5411 9.61086C13.4833 9.52397 13.4005 9.45376 13.3021 9.40808L11.4194 8.5344L11.9305 7.34853ZM12.4444 10.2399V13.75C12.2873 13.7498 12.1367 13.6918 12.0256 13.5887C11.9145 13.4856 11.852 13.3458 11.8518 13.2V9.96492L12.4444 10.2399ZM5.92592 11C5.6117 10.9997 5.31045 10.8837 5.08826 10.6774C4.86607 10.4712 4.74109 10.1916 4.74073 9.9V8.8H7.1111V9.9C7.11074 10.1916 6.98576 10.4712 6.76357 10.6774C6.54138 10.8837 6.24014 10.9997 5.92592 11ZM4.74073 7.44437L5.91094 6.72031C6.02721 6.64838 6.16233 6.60709 6.30189 6.60083C6.44146 6.59458 6.58024 6.6236 6.70343 6.6848C6.82662 6.746 6.9296 6.83708 7.0014 6.94834C7.0732 7.0596 7.11111 7.18685 7.1111 7.31654V7.7H4.74073V7.44437ZM1.8564 12.8485C1.97614 12.5722 2.15484 12.3212 2.38176 12.1106C2.60868 11.9 2.87912 11.7341 3.17685 11.6229L4.08625 11.2853C4.40561 11.6508 4.84261 11.9119 5.33332 12.0304V14.85H6.51851V12.0304C7.00922 11.9119 7.44622 11.6508 7.76558 11.2853L8.67498 11.6229C8.97271 11.7341 9.24315 11.9 9.47007 12.1106C9.69699 12.3212 9.87569 12.5722 9.99544 12.8485L10.5065 14.0344L8.62384 14.9081C8.52541 14.9538 8.44263 15.024 8.38478 15.1109C8.32693 15.1977 8.29628 15.2979 8.29629 15.4V16.5H3.55554V15.4C3.55555 15.2979 3.52491 15.1977 3.46705 15.1109C3.4092 15.024 3.32642 14.9538 3.228 14.9081L1.34533 14.0344L1.8564 12.8485Z" fill="white"/>
</svg>
