<svg width="28" height="28" viewBox="0 0 28 28" fill="none" xmlns="http://www.w3.org/2000/svg">
<path d="M27.5484 0H0.451613C0.331838 0 0.216968 0.0475805 0.132274 0.132274C0.0475805 0.216968 0 0.331838 0 0.451613V27.5484C0 27.6682 0.0475805 27.783 0.132274 27.8677C0.216968 27.9524 0.331838 28 0.451613 28H27.5484C27.6682 28 27.783 27.9524 27.8677 27.8677C27.9524 27.783 28 27.6682 28 27.5484V0.451613C28 0.331838 27.9524 0.216968 27.8677 0.132274C27.783 0.0475805 27.6682 0 27.5484 0ZM27.0968 0.903226V9.03226H0.903226V0.903226H27.0968ZM0.903226 27.0968V9.93548H27.0968V27.0968H0.903226Z" fill="white"/>
<path d="M3.16113 2.70972H4.06436V7.22585H3.16113V2.70972Z" fill="white"/>
<path d="M16.2578 2.70972H17.161V7.22585H16.2578V2.70972Z" fill="white"/>
<path d="M5.87087 4.73748L7.29345 6.99554C7.3319 7.06398 7.38752 7.12122 7.45484 7.16161C7.52215 7.202 7.59884 7.22415 7.67732 7.22586C7.71926 7.23179 7.76183 7.23179 7.80377 7.22586C7.90062 7.1977 7.98525 7.13794 8.04418 7.05609C8.10311 6.97424 8.13294 6.87503 8.12893 6.77425V2.70974H7.22571V5.19812L5.80313 2.94006C5.75637 2.84986 5.68057 2.77807 5.58796 2.73627C5.49536 2.69448 5.39137 2.68513 5.2928 2.70974C5.19596 2.73789 5.11133 2.79766 5.0524 2.87951C4.99347 2.96136 4.96363 3.06057 4.96764 3.16135V7.22586H5.87087V4.73748Z" fill="white"/>
<path d="M10.0122 7.02262C10.0535 7.0841 10.1093 7.13447 10.1747 7.16929C10.2401 7.20412 10.313 7.22234 10.3871 7.22234C10.4611 7.22234 10.5341 7.20412 10.5994 7.16929C10.6648 7.13447 10.7206 7.0841 10.7619 7.02262L11.6651 5.66778C11.7145 5.5943 11.7412 5.50793 11.7419 5.41939V2.70972H10.8387V5.28391L10.3871 5.96133L9.93545 5.28391V2.70972H9.03223V5.41939C9.03292 5.50793 9.05962 5.5943 9.109 5.66778L10.0122 7.02262Z" fill="white"/>
<path d="M14.0003 7.22585C14.3597 7.22585 14.7043 7.0831 14.9584 6.82902C15.2124 6.57494 15.3552 6.23033 15.3552 5.87101V4.06456C15.3552 3.70523 15.2124 3.36062 14.9584 3.10654C14.7043 2.85246 14.3597 2.70972 14.0003 2.70972C13.641 2.70972 13.2964 2.85246 13.0423 3.10654C12.7882 3.36062 12.6455 3.70523 12.6455 4.06456V5.87101C12.6455 6.23033 12.7882 6.57494 13.0423 6.82902C13.2964 7.0831 13.641 7.22585 14.0003 7.22585ZM13.5487 4.06456C13.5487 3.94478 13.5963 3.82991 13.681 3.74522C13.7657 3.66052 13.8806 3.61294 14.0003 3.61294C14.1201 3.61294 14.235 3.66052 14.3197 3.74522C14.4044 3.82991 14.452 3.94478 14.452 4.06456V5.87101C14.452 5.99078 14.4044 6.10565 14.3197 6.19035C14.235 6.27504 14.1201 6.32262 14.0003 6.32262C13.8806 6.32262 13.7657 6.27504 13.681 6.19035C13.5963 6.10565 13.5487 5.99078 13.5487 5.87101V4.06456Z" fill="white"/>
<path d="M19.4193 7.22585H19.8709C20.2302 7.22585 20.5748 7.0831 20.8289 6.82902C21.083 6.57494 21.2257 6.23033 21.2257 5.87101H20.3225C20.3225 5.99078 20.2749 6.10565 20.1902 6.19035C20.1055 6.27504 19.9907 6.32262 19.8709 6.32262H19.4193C19.2995 6.32262 19.1846 6.27504 19.1 6.19035C19.0153 6.10565 18.9677 5.99078 18.9677 5.87101V4.06456C18.9677 3.94478 19.0153 3.82991 19.1 3.74522C19.1846 3.66052 19.2995 3.61294 19.4193 3.61294H19.8709C19.9907 3.61294 20.1055 3.66052 20.1902 3.74522C20.2749 3.82991 20.3225 3.94478 20.3225 4.06456H21.2257C21.2257 3.70523 21.083 3.36062 20.8289 3.10654C20.5748 2.85246 20.2302 2.70972 19.8709 2.70972H19.4193C19.06 2.70972 18.7154 2.85246 18.4613 3.10654C18.2072 3.36062 18.0645 3.70523 18.0645 4.06456V5.87101C18.0645 6.23033 18.2072 6.57494 18.4613 6.82902C18.7154 7.0831 19.06 7.22585 19.4193 7.22585Z" fill="white"/>
<path d="M22.5805 7.22585H24.8386V6.32262H23.0321V5.41939H24.8386V4.51617H23.0321V3.61294H24.8386V2.70972H22.5805C22.4607 2.70972 22.3459 2.7573 22.2612 2.84199C22.1765 2.92669 22.1289 3.04155 22.1289 3.16133V6.77423C22.1289 6.89401 22.1765 7.00888 22.2612 7.09357C22.3459 7.17827 22.4607 7.22585 22.5805 7.22585Z" fill="white"/>
<path d="M25.7421 11.7419H2.25825C2.13848 11.7419 2.02361 11.7895 1.93892 11.8742C1.85422 11.9589 1.80664 12.0738 1.80664 12.1936V25.7419C1.80664 25.8617 1.85422 25.9766 1.93892 26.0613C2.02361 26.146 2.13848 26.1936 2.25825 26.1936H25.7421C25.8619 26.1936 25.9768 26.146 26.0615 26.0613C26.1462 25.9766 26.1937 25.8617 26.1937 25.7419V12.1936C26.1937 12.0738 26.1462 11.9589 26.0615 11.8742C25.9768 11.7895 25.8619 11.7419 25.7421 11.7419ZM25.2905 14.4516H14.4518V12.6452H25.2905V14.4516ZM13.5486 12.6452V14.4516H2.70987V12.6452H13.5486ZM2.70987 15.3548H13.5486V25.2903H2.70987V15.3548ZM14.4518 25.2903V15.3548H25.2905V25.2903H14.4518Z" fill="white"/>
<path d="M19.8709 18.0645C20.1105 18.0645 20.3402 18.1597 20.5096 18.3291C20.679 18.4984 20.7741 18.7282 20.7741 18.9677H21.6774C21.6761 18.5683 21.5424 18.1805 21.2972 17.8651C21.0521 17.5496 20.7093 17.3244 20.3225 17.2245V16.2581H19.4193V17.2245C18.9986 17.3387 18.6334 17.6012 18.3911 17.9634C18.1487 18.3257 18.0455 18.7635 18.1005 19.1959C18.1556 19.6283 18.3651 20.0262 18.6904 20.3163C19.0158 20.6063 19.435 20.769 19.8709 20.7742C20.0495 20.7742 20.2242 20.8272 20.3727 20.9264C20.5212 21.0257 20.637 21.1667 20.7054 21.3318C20.7737 21.4968 20.7916 21.6784 20.7568 21.8536C20.7219 22.0288 20.6359 22.1898 20.5096 22.3161C20.3833 22.4424 20.2223 22.5284 20.0471 22.5633C19.8719 22.5981 19.6903 22.5802 19.5253 22.5119C19.3602 22.4435 19.2191 22.3278 19.1199 22.1792C19.0207 22.0307 18.9677 21.8561 18.9677 21.6774H18.0645C18.0658 22.0769 18.1994 22.4647 18.4446 22.7801C18.6897 23.0955 19.0325 23.3208 19.4193 23.4206V24.3871H20.3225V23.4206C20.7432 23.3064 21.1084 23.044 21.3507 22.6817C21.5931 22.3194 21.6963 21.8817 21.6413 21.4493C21.5862 21.0169 21.3767 20.619 21.0514 20.3289C20.726 20.0388 20.3068 19.8762 19.8709 19.871C19.6314 19.871 19.4016 19.7758 19.2322 19.6064C19.0628 19.437 18.9677 19.2073 18.9677 18.9677C18.9677 18.7282 19.0628 18.4984 19.2322 18.3291C19.4016 18.1597 19.6314 18.0645 19.8709 18.0645Z" fill="white"/>
<path d="M3.61279 17.1611H12.6451V18.0644H3.61279V17.1611Z" fill="white"/>
<path d="M3.61279 19.8711H12.6451V20.7743H3.61279V19.8711Z" fill="white"/>
<path d="M3.61279 22.5806H12.6451V23.4838H3.61279V22.5806Z" fill="white"/>
</svg>
