<svg width="32" height="32" viewBox="0 0 32 32" fill="none" xmlns="http://www.w3.org/2000/svg">
<path d="M24.213 10.7605C24.137 10.5792 24.0438 10.4084 23.9354 10.25H25.5625C27.1477 10.25 28.4375 8.96024 28.4375 7.37499C28.4375 5.78974 27.1477 4.5 25.5625 4.5H20.5575C20.8757 4.03737 21.0625 3.47768 21.0625 2.875C21.0625 1.28975 19.7727 0 18.1875 0H2.875C1.28975 0 0 1.28975 0 2.875C0 4.46025 1.28975 5.74999 2.875 5.74999H7.87999C7.5618 6.21262 7.37499 6.77231 7.37499 7.37499C7.37499 7.97768 7.56174 8.53737 7.87999 8.99999H6.24999C4.66474 8.99999 3.375 10.2897 3.375 11.875C3.375 12.7854 3.80087 13.5979 4.46343 14.125C3.80087 14.6521 3.375 15.4645 3.375 16.375C3.375 17.2854 3.80087 18.0979 4.46343 18.625C3.80087 19.1521 3.375 19.9645 3.375 20.875C3.375 21.7854 3.80087 22.5979 4.46343 23.125C3.80087 23.6521 3.375 24.4645 3.375 25.375C3.375 26.9602 4.66474 28.25 6.24999 28.25H13.6156C15.556 30.3254 18.3164 31.625 21.375 31.625C27.2337 31.625 32 26.8587 32 21C32 16.124 28.6982 12.0052 24.213 10.7605ZM25.5625 5.74999C26.4585 5.74999 27.1875 6.47899 27.1875 7.37499C27.1875 8.27099 26.4585 8.99999 25.5625 8.99999H21.5625H10.25C9.35393 8.99999 8.62499 8.27099 8.62499 7.37499C8.62499 6.47899 9.35393 5.74999 10.25 5.74999H25.5625ZM2.875 4.5C1.97894 4.5 1.25 3.771 1.25 2.875C1.25 1.979 1.97894 1.25 2.875 1.25H18.1875C19.0835 1.25 19.8125 1.979 19.8125 2.875C19.8125 3.771 19.0835 4.5 18.1875 4.5H2.875ZM6.24999 10.25H21.5625C21.8142 10.25 22.0553 10.3085 22.2715 10.4132C21.9759 10.3884 21.677 10.3751 21.375 10.3751C18.441 10.3751 15.781 11.5706 13.8564 13.5H6.24999C5.35399 13.5 4.625 12.771 4.625 11.875C4.625 10.979 5.35399 10.25 6.24999 10.25ZM6.24999 14.75H12.7884C12.0789 15.722 11.5304 16.8184 11.182 18H6.24999C5.35393 18 4.625 17.271 4.625 16.375C4.625 15.479 5.35393 14.75 6.24999 14.75ZM6.24999 19.25H10.895C10.8002 19.8195 10.7501 20.404 10.7501 21C10.7501 21.5092 10.7869 22.0098 10.8564 22.5H6.24999C5.35393 22.5 4.625 21.771 4.625 20.875C4.625 19.9789 5.35393 19.25 6.24999 19.25ZM6.24999 27C5.35393 27 4.625 26.271 4.625 25.375C4.625 24.4789 5.35393 23.75 6.24999 23.75H11.1116C11.427 24.9258 11.9393 26.0216 12.6112 27H6.24999ZM21.375 30.375C16.2057 30.375 12 26.1694 12 21C12 15.8307 16.2057 11.6251 21.375 11.6251C26.5444 11.6251 30.75 15.8307 30.75 21C30.75 26.1694 26.5444 30.375 21.375 30.375Z" fill="white"/>
</svg>
