<svg width="29" height="29" viewBox="0 0 29 29" fill="none" xmlns="http://www.w3.org/2000/svg">
<path d="M28.0645 9.35484H27.129V0H14.9677V9.35484H14.0323V0H1.87097V9.35484H0.935484C0.419564 9.35484 0 9.7744 0 10.2903V11.2258C0 11.7417 0.419564 12.1613 0.935484 12.1613H3.39721C3.31956 12.4611 3.27419 12.7731 3.27419 13.0968C3.27419 14.3971 3.94166 15.5435 4.95105 16.2143C2.08706 17.0983 0 19.7691 0 22.9194C0 23.8759 0.578597 24.6977 1.40323 25.0597V29H14.0323V22.9194C14.0323 19.7691 11.9452 17.0983 9.08121 16.2143C10.0906 15.5435 10.7581 14.3971 10.7581 13.0968C10.7581 12.7731 10.7127 12.4611 10.635 12.1613H28.0645C28.5804 12.1613 29 11.7417 29 11.2258V10.2903C29 9.7744 28.5804 9.35484 28.0645 9.35484ZM19.6452 0.935484H22.4516V1.87097H19.6452V0.935484ZM15.9032 0.935484H18.7097V2.80645H23.3871V0.935484H26.1935V9.35484H23.3871V7.48387H18.7097V9.35484H15.9032V0.935484ZM22.4516 9.35484H19.6452V8.41935H22.4516V9.35484ZM6.54839 0.935484H9.35484V1.87097H6.54839V0.935484ZM2.80645 0.935484H5.6129V2.80645H10.2903V0.935484H13.0968V9.35484H10.2903V7.48387H5.6129V9.35484H2.80645V0.935484ZM6.54839 9.35484V8.41935H9.35484V9.35484H6.54839ZM0.935484 11.2258V10.2903H4.54926C4.24523 10.5579 3.98516 10.8736 3.78029 11.2258H0.935484ZM2.33871 25.2581H4.20968V28.0645H2.33871V25.2581ZM6.78226 21.9839H5.14516V19.6452H8.41935V21.9839H10.7581V28.0645H5.14516V25.2581H6.78226C7.685 25.2581 8.41935 24.5237 8.41935 23.621C8.41935 22.7182 7.685 21.9839 6.78226 21.9839ZM9.35484 20.3065L10.0967 21.0484H9.35484V20.3065ZM13.0968 22.9194V28.0645H11.6935V21.3225L9.08074 18.7097H4.20968V21.9839H2.80645V22.9194H6.78226C7.16908 22.9194 7.48387 23.2341 7.48387 23.621C7.48387 24.0078 7.16908 24.3226 6.78226 24.3226H2.33871C1.56506 24.3226 0.935484 23.693 0.935484 22.9194C0.935484 19.5666 3.66335 16.8387 7.01613 16.8387C10.3689 16.8387 13.0968 19.5666 13.0968 22.9194ZM7.01613 15.9032C5.46837 15.9032 4.20968 14.6445 4.20968 13.0968C4.20968 11.549 5.46837 10.2903 7.01613 10.2903C8.56389 10.2903 9.82258 11.549 9.82258 13.0968C9.82258 14.6445 8.56389 15.9032 7.01613 15.9032ZM28.0645 11.2258H10.252C10.0476 10.8736 9.78703 10.5579 9.483 10.2903H28.0645V11.2258Z" fill="white"/>
</svg>
