<svg width="539" height="435" viewBox="0 0 539 435" fill="none" xmlns="http://www.w3.org/2000/svg">
<path d="M517.148 0.260578H355.78C347.992 0.259494 340.436 2.90857 334.354 7.77217C328.272 12.6358 324.026 19.4244 322.314 27.0216L240.779 388.682C239.89 392.626 239.874 396.718 240.733 400.669C241.592 404.621 243.305 408.337 245.752 411.556C248.199 414.776 251.321 417.421 254.898 419.306C258.476 421.192 262.422 422.272 266.461 422.471L432.351 430.644C441.234 431.081 449.972 428.272 456.936 422.74C463.9 417.208 468.613 409.331 470.196 400.58L516.451 144.88L519.892 145.863L528.745 97.3976L525.203 96.5126L538.114 25.1376C538.667 22.0804 538.539 18.9388 537.739 15.9367C536.939 12.9347 535.486 10.1462 533.484 7.76995C531.483 5.39374 528.982 3.48837 526.159 2.18966C523.337 0.89096 520.263 0.230911 517.156 0.25658L517.148 0.260578Z" fill="#3F3D56"/>
<path d="M377.021 8.06163H358.186C352.776 8.06163 347.53 9.91168 343.317 13.3047C339.103 16.6976 336.177 21.4295 335.024 26.7146L256.759 385.422C256.308 387.487 256.309 389.625 256.76 391.69C257.211 393.755 258.103 395.699 259.375 397.388C260.646 399.076 262.267 400.471 264.127 401.476C265.987 402.48 268.042 403.072 270.151 403.21L435.502 414.048C440.167 414.353 444.781 412.931 448.464 410.051C452.146 407.172 454.64 403.037 455.469 398.437L522.253 27.6736C522.685 25.2738 522.586 22.8083 521.961 20.4512C521.336 18.0942 520.202 15.9029 518.638 14.0321C517.074 12.1613 515.118 10.6565 512.909 9.62404C510.7 8.59156 508.291 8.0565 505.853 8.05664H487.986C486.257 8.05652 484.575 8.62655 483.202 9.6785C481.83 10.7304 480.842 12.2056 480.392 13.8756C479.995 15.3505 479.123 16.6533 477.911 17.5822C476.698 18.511 475.213 19.0142 473.686 19.0136H388.856C385.867 19.0135 382.988 17.8857 380.794 15.8554C378.6 13.8252 377.252 11.0419 377.021 8.06163Z" fill="white"/>
<path d="M468.427 258.826C468.749 258.837 469.064 258.731 469.314 258.53C469.565 258.328 469.734 258.042 469.792 257.726L506.36 55.9156C506.395 55.7237 506.388 55.5265 506.34 55.3375C506.291 55.1485 506.203 54.9722 506.08 54.8206C505.959 54.6702 505.805 54.5484 505.632 54.4639C505.458 54.3794 505.267 54.3342 505.074 54.3316L338.712 52.3666H338.697C338.395 52.3691 338.103 52.4742 337.868 52.6646C337.634 52.855 337.471 53.1195 337.406 53.4146L294.297 248.677C294.255 248.867 294.255 249.064 294.296 249.255C294.337 249.446 294.419 249.625 294.536 249.782C294.652 249.936 294.801 250.064 294.971 250.155C295.142 250.246 295.331 250.298 295.524 250.308L468.427 258.826Z" fill="#E6E6E6"/>
<path d="M324.059 271.875C323.908 271.875 323.761 271.926 323.642 272.02C323.524 272.114 323.441 272.245 323.406 272.393L321.848 279.07C321.826 279.164 321.824 279.261 321.844 279.356C321.863 279.451 321.902 279.54 321.959 279.618C322.016 279.696 322.09 279.761 322.174 279.808C322.258 279.855 322.352 279.884 322.448 279.892L410.458 286.147C410.621 286.157 410.783 286.108 410.912 286.008C411.042 285.909 411.132 285.766 411.164 285.606L412.664 277.881C412.683 277.787 412.681 277.69 412.659 277.597C412.637 277.503 412.595 277.416 412.537 277.34C412.478 277.264 412.404 277.202 412.32 277.157C412.235 277.112 412.142 277.086 412.046 277.081L324.098 271.873L324.059 271.875Z" fill="#E6E6E6"/>
<path d="M430.986 310.949C431.144 310.96 431.301 310.915 431.429 310.822C431.557 310.729 431.648 310.594 431.686 310.441L433.593 302.7C433.616 302.605 433.619 302.506 433.6 302.411C433.582 302.315 433.542 302.225 433.485 302.146C433.428 302.067 433.355 302.001 433.27 301.953C433.185 301.906 433.09 301.877 432.993 301.87L320.599 294.009C320.446 293.996 320.294 294.037 320.169 294.124C320.043 294.212 319.951 294.34 319.909 294.487L317.927 301.177C317.899 301.272 317.892 301.373 317.908 301.471C317.924 301.57 317.961 301.663 318.018 301.746C318.074 301.828 318.148 301.896 318.234 301.946C318.32 301.996 318.417 302.026 318.516 302.035L430.986 310.949Z" fill="#E6E6E6"/>
<path d="M424.95 335.763C425.108 335.774 425.265 335.729 425.393 335.636C425.521 335.544 425.612 335.408 425.65 335.255L427.557 327.514C427.58 327.419 427.583 327.32 427.564 327.225C427.546 327.129 427.506 327.039 427.449 326.96C427.392 326.881 427.319 326.815 427.234 326.767C427.149 326.72 427.054 326.691 426.957 326.684L314.563 318.823C314.41 318.81 314.258 318.851 314.133 318.939C314.007 319.026 313.915 319.154 313.873 319.301L311.891 325.991C311.863 326.086 311.856 326.187 311.872 326.285C311.888 326.384 311.925 326.477 311.982 326.56C312.038 326.642 312.112 326.71 312.198 326.76C312.284 326.81 312.381 326.841 312.48 326.849L424.95 335.763Z" fill="#E6E6E6"/>
<path d="M230.08 423.121C230.08 428.734 178.705 429.331 115.473 433.283C52.297 437.227 0.866028 428.734 0.866028 423.121C0.866028 417.508 52.538 406.216 115.473 412.959C178.704 419.733 230.08 417.508 230.08 423.121Z" fill="#E6E6E6"/>
<path d="M373.186 378.184C373.346 378.2 373.507 378.158 373.638 378.065C373.77 377.972 373.863 377.834 373.9 377.678L377.933 361.548C377.957 361.453 377.96 361.355 377.941 361.259C377.923 361.164 377.885 361.073 377.828 360.994C377.772 360.915 377.699 360.849 377.614 360.801C377.53 360.753 377.436 360.724 377.339 360.716L308.318 354.911C308.157 354.899 307.997 354.946 307.867 355.041C307.737 355.137 307.645 355.276 307.607 355.433L304.167 370.914C304.146 371.006 304.146 371.103 304.165 371.196C304.185 371.289 304.224 371.377 304.28 371.454C304.336 371.53 304.407 371.594 304.49 371.642C304.573 371.689 304.664 371.718 304.759 371.727L373.186 378.184Z" fill="#7B97FF"/>
<path d="M94.493 312.454C95.3631 311.859 96.0919 311.08 96.6279 310.172C97.164 309.265 97.4943 308.251 97.5955 307.202C97.6967 306.152 97.5663 305.094 97.2136 304.101C96.8608 303.107 96.2943 302.204 95.5541 301.454L98.349 239.071L84.121 240.671L84.948 301.69C83.7674 303.014 83.114 304.726 83.1117 306.5C83.1094 308.274 83.7583 309.987 84.9355 311.315C86.1126 312.642 87.736 313.491 89.4977 313.701C91.2594 313.911 93.037 313.467 94.493 312.454Z" fill="#A0616A"/>
<path d="M120.451 418.055L128.551 419.479L136.551 388.921L125.941 386.821L120.451 418.055Z" fill="#A0616A"/>
<path d="M142.846 429.742L117.395 425.267L119.124 415.434L134.742 418.18C137.349 418.638 139.668 420.114 141.188 422.282C142.708 424.45 143.304 427.134 142.846 429.742V429.742Z" fill="#2F2E41"/>
<path d="M98.224 422.108H106.446L110.357 390.394H98.223L98.224 422.108Z" fill="#A0616A"/>
<path d="M122.301 429.744L96.46 429.745L96.4595 419.761L112.317 419.76C114.964 419.76 117.504 420.812 119.376 422.684C121.249 424.556 122.301 427.096 122.301 429.744V429.744Z" fill="#2F2E41"/>
<path d="M132.527 410.741C132.399 410.741 132.27 410.733 132.143 410.718L122.466 409.918C122.025 409.866 121.599 409.725 121.214 409.503C120.829 409.282 120.493 408.984 120.227 408.629C119.961 408.273 119.77 407.867 119.665 407.436C119.561 407.004 119.545 406.555 119.62 406.118L129.227 358.718L123.192 326.89C123.143 326.631 123.002 326.398 122.795 326.235C122.588 326.072 122.329 325.989 122.066 326.002C121.803 326.015 121.553 326.123 121.363 326.306C121.173 326.489 121.056 326.734 121.033 326.997L112.139 407.897C112.057 408.749 111.646 409.536 110.994 410.091C110.342 410.647 109.5 410.927 108.645 410.873L99.527 410.534C98.7281 410.477 97.9775 410.13 97.4171 409.557C96.8566 408.985 96.5251 408.228 96.485 407.428L97.213 309.668L144.481 303.759L147.781 354.759L147.768 354.813L135.706 408.24C135.532 408.952 135.125 409.585 134.549 410.038C133.972 410.491 133.261 410.738 132.528 410.74L132.527 410.741Z" fill="#2F2E41"/>
<path d="M112.802 198.65C121.899 198.65 129.274 191.275 129.274 182.178C129.274 173.08 121.899 165.706 112.802 165.706C103.705 165.706 96.33 173.08 96.33 182.178C96.33 191.275 103.705 198.65 112.802 198.65Z" fill="#A0616A"/>
<path d="M128.322 317.102C125.746 317.117 123.219 316.394 121.041 315.019C113.06 310.032 103.999 312.014 99.307 313.639C98.8413 313.802 98.3448 313.857 97.8545 313.801C97.3643 313.745 96.893 313.579 96.476 313.316C96.0637 313.057 95.7154 312.708 95.457 312.296C95.1986 311.883 95.0369 311.417 94.984 310.934L86.453 234.734C85.7246 228.594 87.1491 222.393 90.4836 217.187C93.8181 211.981 98.8558 208.093 104.737 206.188C105.189 206.046 105.648 205.912 106.115 205.788C109.857 204.773 113.777 204.591 117.597 205.254C121.418 205.917 125.046 207.409 128.228 209.626C131.469 211.866 134.179 214.79 136.169 218.191C138.158 221.592 139.377 225.388 139.741 229.312L146.924 306.026C146.973 306.522 146.906 307.023 146.728 307.49C146.55 307.956 146.267 308.374 145.9 308.713C143.385 311.04 136.076 317.101 128.322 317.102Z" fill="#7B97FF"/>
<path d="M102.341 251.073L83.093 248.956C82.5453 248.895 82.017 248.718 81.544 248.435C81.0711 248.152 80.6647 247.771 80.3524 247.317C80.0402 246.863 79.8295 246.347 79.7347 245.804C79.6399 245.261 79.6632 244.704 79.803 244.172L84.703 225.497C85.0199 222.69 86.4388 220.124 88.6474 218.364C90.856 216.604 93.6735 215.793 96.48 216.11C99.2865 216.426 101.852 217.845 103.613 220.054C105.373 222.263 106.184 225.08 105.867 227.887L106.594 247.118C106.615 247.668 106.517 248.217 106.306 248.727C106.096 249.236 105.778 249.694 105.375 250.07C104.971 250.445 104.492 250.729 103.968 250.903C103.445 251.076 102.891 251.135 102.343 251.075L102.341 251.073Z" fill="#7B97FF"/>
<path d="M146.85 309.783C147.641 309.087 148.27 308.227 148.693 307.261C149.115 306.296 149.321 305.25 149.295 304.197C149.269 303.144 149.012 302.109 148.543 301.166C148.073 300.223 147.403 299.394 146.578 298.739L141.834 236.474L127.892 239.613L136.074 300.25C135.062 301.707 134.621 303.484 134.833 305.245C135.045 307.006 135.895 308.629 137.224 309.804C138.552 310.98 140.265 311.627 142.039 311.623C143.813 311.619 145.524 310.965 146.847 309.784L146.85 309.783Z" fill="#A0616A"/>
<path d="M122.547 247.158C122.143 246.782 121.826 246.324 121.615 245.815C121.405 245.306 121.307 244.757 121.328 244.207L122.056 224.976C121.759 222.179 122.58 219.379 124.34 217.186C126.1 214.993 128.656 213.585 131.45 213.269C134.245 212.954 137.05 213.756 139.255 215.502C141.46 217.247 142.885 219.794 143.219 222.586L148.119 241.261C148.259 241.794 148.282 242.35 148.187 242.893C148.092 243.436 147.882 243.952 147.57 244.406C147.257 244.86 146.851 245.241 146.378 245.524C145.905 245.807 145.377 245.984 144.829 246.045L125.581 248.162C125.033 248.222 124.479 248.163 123.956 247.99C123.433 247.816 122.953 247.531 122.55 247.156L122.547 247.158Z" fill="#7B97FF"/>
<path d="M111.822 199.271C111.528 199.271 111.236 199.237 110.95 199.171L110.866 199.151C96.384 196.938 93.1831 188.551 92.4811 185.044C91.7541 181.417 92.581 177.916 94.453 176.556C93.9339 175.185 93.7091 173.721 93.7932 172.258C93.8772 170.795 94.2684 169.366 94.9411 168.064C97.2881 163.852 102.373 162.431 103.056 162.253C107.119 159.253 111.98 161.253 112.864 161.662C120.723 158.755 123.729 161.174 124.27 161.715C127.783 162.346 129.924 163.703 130.635 165.75C131.97 169.594 127.748 174.375 127.567 174.577L127.473 174.677L121.182 174.977C120.585 175.005 120.001 175.159 119.467 175.428C118.934 175.696 118.462 176.074 118.084 176.537C117.706 177 117.429 177.537 117.272 178.113C117.115 178.69 117.08 179.293 117.171 179.884C117.341 180.646 117.556 181.397 117.815 182.134C118.888 185.491 119.693 188.36 118.656 189.45C118.421 189.66 118.131 189.801 117.82 189.855C117.509 189.909 117.188 189.874 116.896 189.755C115.912 189.492 115.245 189.547 114.912 189.919C114.396 190.495 114.553 191.954 115.356 194.027C115.608 194.682 115.676 195.393 115.553 196.085C115.429 196.776 115.119 197.42 114.656 197.948C114.307 198.359 113.873 198.69 113.384 198.918C112.894 199.146 112.362 199.265 111.822 199.267V199.271Z" fill="#2F2E41"/>
</svg>
