<svg width="429" height="346" viewBox="0 0 429 346" fill="none" xmlns="http://www.w3.org/2000/svg">
<path d="M281.814 193.284C272.782 198.701 256.689 205.484 240.245 198.513L229.615 194.004L250.915 170.125C233.916 151.383 224.511 126.978 224.536 101.675C224.562 76.3719 234.015 51.9863 251.052 33.278C268.088 14.5696 291.485 2.88128 316.675 0.494404C341.866 -1.89248 367.042 5.19341 387.289 20.369C407.536 35.5445 421.401 57.7206 426.179 82.5686C430.956 107.417 426.302 133.153 413.126 154.755C399.95 176.356 379.196 192.273 354.917 199.397C330.637 206.521 304.574 204.342 281.815 193.285L281.814 193.284ZM240.999 101.617C240.953 113.281 243.32 124.828 247.952 135.532C252.585 146.237 259.382 155.867 267.917 163.817L273.793 169.339L260.393 184.365C266.215 183.006 271.705 180.494 276.54 176.977L280.771 173.966L285.322 176.466C301.727 185.461 320.633 188.817 339.131 186.018C357.63 183.219 374.696 174.42 387.705 160.974C400.715 147.528 408.946 130.181 411.133 111.6C413.32 93.0191 409.342 74.2344 399.81 58.1354C390.278 42.0364 375.721 29.515 358.378 22.4973C341.035 15.4796 321.867 14.3543 303.822 19.2947C285.777 24.235 269.854 34.9672 258.505 49.8404C247.155 64.7136 241.006 82.9039 241.004 101.613L240.999 101.617Z" fill="#3F3D56"/>
<path d="M232.724 101.616C232.732 81.1051 239.478 61.1649 251.924 44.8621C264.371 28.5593 281.828 16.7968 301.612 11.3838C321.395 5.97081 342.409 7.20703 361.422 14.9023C380.434 22.5977 396.392 36.3259 406.841 53.9756C417.29 71.6253 421.652 92.2189 419.255 112.589C416.858 132.959 407.835 151.978 393.574 166.72C379.314 181.462 360.605 191.111 340.325 194.183C320.046 197.254 299.319 193.579 281.332 183.721C274.86 188.321 259.072 197.51 243.476 190.894L262.25 169.848C252.917 161.104 245.481 150.535 240.402 138.797C235.323 127.06 232.709 114.404 232.724 101.615V101.616Z" fill="#5273EB"/>
<path opacity="0.1" d="M404.017 101.818C404.015 78.4218 395.253 55.8743 379.457 38.6153C363.662 21.3562 341.976 10.6365 318.672 8.56697C321.399 8.32797 324.158 8.19897 326.947 8.19897C351.724 8.27995 375.459 18.1794 392.951 35.7283C410.442 53.2771 420.264 77.0441 420.264 101.821C420.264 126.599 410.442 150.366 392.951 167.915C375.459 185.464 351.724 195.363 326.947 195.444C324.162 195.444 321.408 195.313 318.685 195.075C341.988 193.002 363.671 182.28 379.464 165.02C395.257 147.76 404.016 125.213 404.017 101.818Z" fill="black"/>
<path d="M110.604 323.345C87.2106 323.356 64.5242 315.326 46.3468 300.601C28.1695 285.875 15.6058 265.349 10.7613 242.463C5.91676 219.577 9.08586 195.721 19.7375 174.893C30.3891 154.065 47.8759 137.532 69.2673 128.063C90.6588 118.594 114.655 116.765 137.234 122.883C159.813 129.002 179.603 142.695 193.288 161.668C206.973 180.641 213.72 203.742 212.399 227.098C211.079 250.454 201.77 272.646 186.034 289.956L207.334 313.835L196.704 318.344C180.259 325.319 164.167 318.532 155.135 313.115C141.254 319.844 126.028 323.342 110.602 323.345H110.604ZM110.604 136.1C97.5948 136.105 84.7589 139.083 73.077 144.808C61.3952 150.533 51.1767 158.853 43.2023 169.131C35.2279 179.41 29.7086 191.375 27.0664 204.113C24.4241 216.851 24.7287 230.025 27.957 242.627C31.1852 255.229 37.2516 266.927 45.6925 276.826C54.1335 286.725 64.7257 294.563 76.6596 299.742C88.5936 304.921 101.553 307.303 114.549 306.706C127.545 306.11 140.232 302.55 151.641 296.3L156.184 293.8L160.415 296.811C165.25 300.327 170.74 302.839 176.562 304.199L163.162 289.173L169.038 283.651C177.573 275.701 184.37 266.071 189.003 255.366C193.635 244.662 196.003 233.115 195.956 221.451C195.931 198.822 186.931 177.127 170.929 161.126C154.928 145.125 133.233 136.125 110.604 136.1Z" fill="#3F3D56"/>
<path d="M204.226 221.447C204.218 200.936 197.472 180.997 185.025 164.694C172.579 148.392 155.122 136.63 135.338 131.217C115.555 125.804 94.5409 127.041 75.5288 134.736C56.5166 142.432 40.559 156.16 30.1103 173.809C19.6615 191.459 15.3003 212.052 17.6974 232.422C20.0944 252.792 29.117 271.81 43.3775 286.552C57.638 301.294 76.3465 310.942 96.6257 314.014C116.905 317.086 137.632 313.41 155.618 303.553C162.09 308.153 177.878 317.342 193.474 310.726L174.7 289.681C184.033 280.936 191.47 270.368 196.549 258.63C201.628 246.892 204.241 234.236 204.226 221.447Z" fill="#5273EB"/>
<path opacity="0.1" d="M33.53 220.974C33.5316 197.577 42.2933 175.028 58.0898 157.768C73.8862 140.509 95.5726 129.789 118.878 127.72C116.151 127.481 113.392 127.352 110.603 127.352C85.7728 127.352 61.9596 137.216 44.4019 154.773C26.8443 172.331 16.9805 196.144 16.9805 220.974C16.9805 245.805 26.8443 269.618 44.4019 287.176C61.9596 304.733 85.7728 314.597 110.603 314.597C113.388 314.597 116.142 314.466 118.865 314.228C95.5619 312.156 73.8788 301.435 58.085 284.175C42.2912 266.916 33.5313 244.369 33.53 220.974Z" fill="black"/>
<path d="M348.325 71.872C342.199 61.522 330.081 61.039 330.081 61.039C330.081 61.039 318.272 59.529 310.696 75.293C303.635 89.986 293.89 104.172 309.127 107.612L311.879 99.046L313.579 108.246C315.748 108.402 317.925 108.439 320.098 108.357C336.416 107.83 351.956 108.511 351.456 102.657C350.796 94.875 354.219 81.831 348.325 71.872Z" fill="#2F2E41"/>
<path d="M308.257 162.515C308.077 163.653 307.816 164.778 307.476 165.879C307.093 166.957 306.501 167.954 306.15 169.043C305.033 172.514 306.582 176.384 309.055 179.064C311.2 181.378 313.969 183.022 317.028 183.798C319.28 184.28 321.576 184.521 323.879 184.518C330.247 184.734 336.779 184.927 342.813 182.881C344.719 182.218 346.56 181.381 348.313 180.381C348.866 180.117 349.354 179.733 349.74 179.257C350.144 178.559 350.324 177.754 350.255 176.951C350.241 174.251 349.694 171.566 349.824 168.869C350 167.384 350.071 165.889 350.038 164.394C349.848 162.703 349.139 161.112 348.01 159.839C346.88 158.566 345.385 157.673 343.729 157.283C341.996 157.015 340.232 157.015 338.499 157.283C333.976 157.718 329.433 157.921 324.889 157.892C320.246 157.862 315.631 157.154 311.011 157.08C309.645 157.058 309.672 157.48 309.237 158.802C308.837 160.019 308.51 161.259 308.257 162.515Z" fill="#2F2E41"/>
<path d="M321.434 95.857C321.296 97.0423 320.898 98.1824 320.268 99.196C319.46 100.296 318.143 100.932 317.274 101.989C315.966 103.58 315.891 105.819 315.886 107.879C315.886 109.779 315.92 111.8 316.978 113.379C317.731 114.357 318.666 115.182 319.731 115.806C323.699 118.48 327.988 121.206 332.772 121.291C333.763 121.37 334.759 121.235 335.693 120.895C336.627 120.555 337.476 120.019 338.185 119.322C338.748 118.62 339.191 117.83 339.495 116.984C340.719 113.968 341.462 110.779 341.695 107.533C341.871 106.007 341.729 104.461 341.277 102.993C340.696 101.372 339.52 100.039 338.744 98.502C337.826 96.675 337.49 94.6106 337.782 92.587C337.821 92.4443 337.809 92.2927 337.748 92.158C337.684 92.0858 337.604 92.0293 337.515 91.9931C337.426 91.9568 337.329 91.9417 337.233 91.949L327.746 91.266C326.863 91.2225 325.983 91.1223 325.112 90.966C324.601 90.866 323.25 90.136 322.762 90.329C321.856 90.684 321.619 94.889 321.434 95.857Z" fill="#A0616A"/>
<path opacity="0.1" d="M321.434 96.154C321.296 97.3393 320.898 98.4794 320.268 99.493C319.46 100.593 318.143 101.229 317.274 102.286C315.966 103.877 315.891 106.116 315.886 108.176C315.886 110.076 315.92 112.098 316.978 113.676C317.731 114.654 318.666 115.478 319.731 116.103C323.699 118.777 327.988 121.503 332.772 121.588C333.763 121.667 334.759 121.532 335.693 121.192C336.627 120.852 337.476 120.316 338.185 119.619C338.748 118.917 339.191 118.127 339.495 117.281C340.719 114.265 341.462 111.076 341.695 107.83C341.871 106.304 341.729 104.758 341.277 103.29C340.696 101.669 339.52 100.336 338.744 98.799C337.826 96.9717 337.49 94.907 337.782 92.883C337.821 92.7403 337.809 92.5887 337.748 92.454C337.684 92.3817 337.604 92.3252 337.515 92.289C337.426 92.2527 337.329 92.2376 337.233 92.245L327.746 91.562C326.863 91.5185 325.983 91.4183 325.112 91.262C324.601 91.162 323.25 90.432 322.762 90.625C321.856 90.98 321.619 95.185 321.434 96.154Z" fill="black"/>
<path d="M330.507 97.131C338.194 97.131 344.426 90.8992 344.426 83.212C344.426 75.5247 338.194 69.293 330.507 69.293C322.82 69.293 316.588 75.5247 316.588 83.212C316.588 90.8992 322.82 97.131 330.507 97.131Z" fill="#A0616A"/>
<path d="M323.386 114.385C324.074 115.181 324.903 115.844 325.831 116.339C326.799 116.739 327.838 116.937 328.885 116.921C331.394 116.992 334.114 116.532 335.859 114.728C338.109 112.403 338.035 108.653 339.798 105.94C339.94 105.694 340.134 105.482 340.366 105.318C340.662 105.157 340.996 105.08 341.333 105.096C343.56 105.075 345.5 106.52 347.251 107.896C348.075 108.463 348.782 109.184 349.334 110.018C349.679 110.693 349.916 111.419 350.034 112.169C350.806 116.431 351.284 120.741 351.464 125.069C351.618 127.456 351.773 129.844 351.764 132.236C351.726 140.115 349.895 147.862 348.074 155.528C348.024 156.033 347.869 156.523 347.618 156.964C347.368 157.406 347.028 157.79 346.62 158.093C346.22 158.273 345.789 158.378 345.351 158.403C340.145 159.104 334.907 159.54 329.657 159.71C327.608 159.741 325.559 159.692 323.512 159.561C323.16 159.556 322.81 159.496 322.477 159.381C322.025 159.164 321.636 158.834 321.348 158.423C318.507 154.844 318.34 149.895 318.358 145.323C318.403 134.151 318.803 122.988 319.558 111.834C319.647 111.357 319.64 110.868 319.54 110.394C319.439 109.92 319.245 109.47 318.97 109.071C320.261 110.985 321.74 112.765 323.386 114.385Z" fill="white"/>
<path d="M320.438 98.314C319.968 99.165 316.502 101.278 315.833 101.983C312.095 105.924 305.271 105.776 301.852 109.996C300.719 111.544 299.938 113.321 299.564 115.202C298.914 117.825 298.564 120.687 299.656 123.16C300.704 125.54 302.91 127.186 304.408 129.312C306.052 131.647 306.792 134.481 307.5 137.247C308.141 139.26 308.427 141.37 308.347 143.481C308.115 145.867 306.961 148.052 306.279 150.35C305.597 152.648 305.479 155.386 307.056 157.192C308.336 158.424 309.998 159.182 311.767 159.341C313.991 159.675 316.233 159.87 318.481 159.925C320.466 160.013 322.653 160.025 324.181 158.757C324.752 158.217 325.206 157.566 325.515 156.844C325.824 156.121 325.981 155.343 325.976 154.557C325.957 152.989 325.803 151.426 325.514 149.885C325.302 148.274 325.221 146.649 325.153 145.025C324.848 137.74 324.806 130.451 325.028 123.157C325.14 121.641 325.066 120.117 324.807 118.619C324.244 116.701 323.451 114.859 322.447 113.131C320.689 109.754 319.894 105.959 320.147 102.161C320.407 98.261 322.107 95.286 320.438 98.314Z" fill="white"/>
<path d="M339.983 98.607C340.699 99.343 343.132 99.586 344.043 100.059C344.9 100.455 345.794 100.764 346.712 100.983C350.034 101.94 353.195 103.39 356.088 105.283C356.689 105.635 357.221 106.093 357.656 106.637C358.114 107.383 358.41 108.218 358.523 109.086C359.824 113.601 359.56 118.424 357.776 122.771L355.107 131.302C353.115 137.67 351.107 144.102 350.55 150.75C350.24 154.435 350.378 158.144 350.961 161.796C351.016 161.974 351.032 162.161 351.009 162.346C350.986 162.53 350.923 162.707 350.826 162.866C350.65 163.04 350.418 163.146 350.172 163.166C348.862 163.207 347.57 162.846 346.472 162.13C342.905 160.354 339.098 159.107 335.172 158.43C336.706 156.213 337.89 153.772 338.682 151.195C339.132 149.558 339.485 147.897 339.742 146.219L340.983 139.039C341.488 136.415 341.844 133.764 342.048 131.099C342.142 130.099 342.083 129.09 341.875 128.108C341.589 127.172 341.209 126.267 340.741 125.408C338.604 121.157 337.836 116.348 338.541 111.643C338.893 109.607 339.578 107.568 339.292 105.521C339.018 103.553 339.303 102.021 338.798 100.077C336.725 92.096 338.636 97.226 339.983 98.607Z" fill="white"/>
<path d="M301.817 116.726C300.884 118.661 299.325 120.31 298.794 122.392C298.587 123.365 298.499 124.36 298.53 125.354C298.438 126.852 298.586 128.356 298.969 129.807C299.269 130.725 299.747 131.572 300.094 132.472C300.578 133.729 300.794 135.074 300.727 136.42C300.633 138.284 300 140.094 299.951 141.96C299.873 144.895 301.23 147.653 302.551 150.273C302.884 149.447 303.394 148.705 304.044 148.097C304.695 147.489 305.47 147.03 306.316 146.753C307.162 146.476 308.059 146.387 308.943 146.493C309.827 146.599 310.677 146.896 311.434 147.365C311.737 146.992 311.881 146.515 311.834 146.037C311.932 142.632 312.026 139.228 312.117 135.823C312.26 130.557 312.397 125.223 311.186 120.095C310.731 117.75 309.716 115.549 308.228 113.68C307.407 112.735 304.618 110.245 303.27 111.304C302.664 111.78 302.805 113.077 302.709 113.733C302.563 114.771 302.259 115.78 301.809 116.727L301.817 116.726Z" fill="white"/>
<path d="M359.589 111.148C359.964 112.544 360.125 113.988 360.065 115.432C360.083 118.375 360.044 121.318 359.948 124.26C359.963 125.769 359.769 127.273 359.374 128.73C359.074 129.677 358.608 130.565 358.297 131.509C357.365 134.338 357.874 137.409 357.954 140.384C358.01 141.348 357.928 142.315 357.71 143.255C357.218 145.101 355.896 146.592 354.973 148.265C354.246 149.926 353.427 151.545 352.521 153.116C351.474 154.598 349.662 155.772 347.906 155.316C347.259 155.082 346.665 154.719 346.162 154.25C345.658 153.78 345.255 153.214 344.976 152.584C343.549 149.926 343.061 146.863 343.591 143.893C344.248 140.279 346.371 137.073 347.136 133.48C348.187 128.547 346.589 123.456 346.636 118.412C346.614 117.621 346.722 116.832 346.954 116.076C347.447 114.956 348.146 113.938 349.015 113.076C350.011 111.921 350.936 110.707 351.785 109.441C352.355 108.59 353.13 106.402 354.141 106.22C356.4 105.821 359.029 109.404 359.589 111.148Z" fill="white"/>
<path d="M290.101 160.321C288.852 160.007 287.566 159.871 286.279 159.915C284.927 159.99 283.607 160.351 282.406 160.976C281.204 161.601 280.15 162.474 279.312 163.537C278.475 164.601 277.873 165.831 277.547 167.145C277.222 168.459 277.18 169.827 277.424 171.159C277.736 172.602 278.245 173.994 278.938 175.297C279.833 177.42 281.244 179.285 283.043 180.724C284.173 181.449 285.391 182.028 286.666 182.449L296.548 186.172C298.002 186.72 299.456 187.272 300.924 187.772C308.3 190.322 315.989 191.85 323.779 192.316C326.151 192.538 328.542 192.417 330.879 191.956C331.444 191.882 331.961 191.603 332.332 191.171C332.521 190.843 332.632 190.476 332.657 190.098L333.265 185.841C333.401 185.248 333.383 184.63 333.213 184.046C332.855 183.36 332.276 182.814 331.57 182.498C325.07 178.767 317.488 176.708 312.019 171.587C310.732 170.381 309.654 168.47 308.09 167.651C306.316 166.722 304.228 166.192 302.39 165.337C298.385 163.473 294.444 161.32 290.101 160.321Z" fill="#2F2E41"/>
<path opacity="0.1" d="M299.967 166.064C303.46 167.159 318.207 174.741 320.734 177.388C320.395 177.51 308.9 171.068 308.555 170.964C305.393 170.095 302.297 169.004 299.289 167.698C298.689 167.421 295.398 166.119 295.547 165.363C295.715 164.508 299.347 165.864 299.967 166.064Z" fill="black"/>
<path d="M343.542 194.526C343.74 194.541 343.937 194.483 344.096 194.363C344.166 194.274 344.217 194.171 344.246 194.062C344.276 193.953 344.284 193.838 344.269 193.726L344.253 187.926C342.543 187.219 340.733 186.782 338.889 186.632L330.346 185.49C330.546 185.516 329.01 189.17 329.246 189.657C329.66 190.517 332.824 191.279 333.717 191.684C336.82 193.096 340.046 194.647 343.542 194.526Z" fill="#A0616A"/>
<path d="M316.737 187.906C315.124 188.163 313.324 188.39 312.279 189.646C310.954 191.238 311.518 193.612 312.15 195.585C312.188 195.84 312.278 196.084 312.412 196.303C312.547 196.523 312.724 196.713 312.933 196.863C313.143 197.013 313.38 197.119 313.631 197.176C313.883 197.232 314.143 197.238 314.396 197.192C315.86 197.423 317.36 197.231 318.718 196.637C319.3 196.252 319.861 195.836 320.397 195.389C321.345 194.758 322.387 194.282 323.484 193.978C325.501 193.343 327.578 192.916 329.682 192.701C330.511 192.663 331.331 192.519 332.123 192.271C332.519 192.144 332.88 191.927 333.178 191.638C333.476 191.348 333.703 190.994 333.842 190.602C333.91 190.059 333.866 189.507 333.711 188.982C333.556 188.456 333.294 187.968 332.942 187.549C332.264 186.338 331.385 185.252 330.342 184.338C328.75 183.101 327.963 184.051 326.359 184.838C323.324 186.336 320.081 187.37 316.739 187.904L316.737 187.906Z" fill="#A0616A"/>
<path d="M312.521 189.359L302.279 186.334C301.05 185.906 299.767 185.657 298.467 185.595C297.816 185.568 297.168 185.681 296.564 185.925C295.961 186.169 295.416 186.54 294.967 187.011C294.26 188.018 293.838 189.198 293.747 190.426L293.323 193.011C293.041 194.314 292.961 195.653 293.086 196.981C293.154 197.645 293.373 198.285 293.725 198.852C294.078 199.419 294.555 199.897 295.121 200.252C296.538 201.025 298.275 200.652 299.857 200.324C303.052 199.671 306.302 199.322 309.563 199.283C310.791 199.379 312.025 199.183 313.163 198.71C313.792 198.337 314.32 197.817 314.702 197.193C315.084 196.57 315.308 195.863 315.354 195.133C315.552 192.922 314.813 190.034 312.521 189.359Z" fill="#2F2E41"/>
<path d="M347.568 186.721C348.862 186.346 350.124 185.867 351.34 185.288C353.168 184.764 355.071 184.554 356.969 184.668C357.396 184.586 357.836 184.607 358.253 184.73C358.67 184.853 359.051 185.074 359.365 185.374C359.679 185.674 359.917 186.045 360.059 186.456C360.2 186.867 360.242 187.306 360.179 187.736L361.036 193.736C361.266 194.856 361.289 196.008 361.106 197.136C361.007 197.699 360.758 198.224 360.387 198.658C360.015 199.093 359.534 199.419 358.994 199.605C357.655 199.953 356.342 199.098 355.077 198.536C351.916 197.136 348.242 197.49 344.947 196.436C344.632 196.373 344.334 196.244 344.073 196.057C343.811 195.87 343.593 195.63 343.431 195.352C343.318 195.019 343.278 194.666 343.313 194.316C343.37 192.388 342.963 189.756 343.543 187.916C344.065 186.255 346.086 186.721 347.568 186.721Z" fill="#2F2E41"/>
<path d="M369.242 157.907C371.288 157.394 373.41 157.249 375.507 157.479C376.453 157.467 377.391 157.658 378.256 158.04C379.122 158.422 379.895 158.985 380.524 159.692C381.153 160.399 381.622 161.233 381.901 162.137C382.179 163.041 382.259 163.995 382.137 164.933C382.202 169.017 380.847 172.998 378.304 176.194C377.683 177.002 376.944 177.713 376.113 178.303C375.216 178.864 374.26 179.325 373.262 179.677L351.132 188.406C345.36 190.83 339.435 192.872 333.395 194.519C333.229 194.599 333.049 194.645 332.865 194.655C332.68 194.664 332.496 194.637 332.323 194.574C332.15 194.511 331.991 194.414 331.855 194.289C331.72 194.164 331.611 194.013 331.535 193.845C329.596 191.076 327.97 188.1 326.685 184.973C326.625 184.898 326.583 184.811 326.563 184.717C326.544 184.623 326.547 184.526 326.573 184.433C326.599 184.341 326.647 184.256 326.712 184.186C326.777 184.116 326.859 184.062 326.949 184.03L342.602 175.036C343.75 174.436 344.82 173.697 345.788 172.836C346.465 172.18 347.019 171.409 347.424 170.559C347.748 169.881 347.779 168.282 348.193 167.781C348.607 167.28 349.987 167.251 350.628 167.059C351.532 166.783 352.418 166.449 353.279 166.059C356.779 164.493 359.898 162.217 363.255 160.383C365.138 159.307 367.15 158.475 369.242 157.907Z" fill="#2F2E41"/>
<path opacity="0.1" d="M360.369 164.623C357.68 166.643 354.198 168.499 351.533 170.572C350.623 171.279 335.46 179.805 335.245 180.937C337.732 181.356 353.571 170.275 355.837 169.169C358.065 167.984 360.165 166.573 362.103 164.956C362.61 164.562 364.76 163.376 363.303 162.935C362.484 162.688 360.976 164.22 360.369 164.623Z" fill="black"/>
<path d="M341.866 98.8059H318.26C317.301 98.8059 316.381 99.1869 315.703 99.865C315.025 100.543 314.644 101.463 314.644 102.422V103.746H314.388V106.707H314.644V108.78H314.388V110.557H314.644V132.413C314.644 133.372 315.025 134.292 315.703 134.97C316.381 135.648 317.301 136.029 318.26 136.029H341.866C342.825 136.028 343.744 135.647 344.422 134.969C345.099 134.291 345.48 133.372 345.48 132.413V102.422C345.48 101.463 345.099 100.543 344.421 99.865C343.743 99.1869 342.823 98.8059 341.864 98.8059H341.866Z" fill="#D0CDE1"/>
<path d="M345.617 70.875L333.644 64.603L317.11 67.169L313.689 82.278L322.204 81.95L324.583 76.399V81.858L328.512 81.707L330.792 72.869L332.218 82.277L346.187 81.992L345.617 70.875Z" fill="#2F2E41"/>
<path d="M304.949 155.95C305.491 156.871 306.261 157.636 307.184 158.173C307.79 158.45 308.451 158.585 309.117 158.568C309.782 158.551 310.436 158.381 311.026 158.073C312.205 157.441 313.17 156.473 313.799 155.293C314.997 152.92 315.485 150.253 315.207 147.61C315.045 144.974 314.482 142.379 314.233 139.75C314.052 137.839 314.033 135.917 314.023 133.997C313.978 133.593 314.063 133.186 314.265 132.834C314.613 132.488 315.063 132.263 315.549 132.193C318.175 131.413 319.918 128.951 321.168 126.513C322.114 124.935 322.599 123.123 322.568 121.283C322.407 119.461 321.097 117.625 319.277 117.439C318.522 117.445 317.777 117.614 317.092 117.933C316.407 118.252 315.799 118.714 315.309 119.289C312.579 121.955 310.824 125.462 310.327 129.246C310.237 131.112 310.012 132.968 309.653 134.801C308.577 138.642 305.21 141.001 303.533 144.452C301.683 148.258 302.703 152.581 304.949 155.95Z" fill="#A0616A"/>
<path d="M354.491 141.278C354.108 142.169 353.551 142.974 352.852 143.645C352.153 144.317 351.326 144.842 350.421 145.189C349.296 145.641 348.055 145.717 346.883 145.406C346.302 145.245 345.766 144.952 345.316 144.55C344.867 144.148 344.516 143.647 344.291 143.088C344.112 142.524 344.013 141.937 343.999 141.346C343.717 138.756 344.003 136.136 344.836 133.668C345.199 132.735 345.688 131.85 345.974 130.891C346.256 129.783 346.4 128.645 346.403 127.502L346.712 120.435C346.763 119.922 346.728 119.404 346.607 118.903C346.169 117.92 345.416 117.11 344.466 116.603C342.348 115.13 340.256 113.412 339.23 111.046C338.878 110.334 338.752 109.532 338.868 108.746C339.088 108.062 339.495 107.454 340.044 106.991C340.594 106.528 341.262 106.229 341.973 106.128C342.889 105.928 343.836 105.915 344.757 106.091C345.678 106.266 346.554 106.627 347.332 107.15C348.11 107.673 348.774 108.349 349.284 109.135C349.794 109.922 350.14 110.804 350.3 111.728C350.438 112.528 350.437 113.34 350.518 114.145C350.69 115.853 351.232 117.5 351.571 119.183C352.407 123.329 351.971 127.615 352.8 131.76C353.492 135.224 356.097 137.489 354.491 141.278Z" fill="#A0616A"/>
<path d="M330.378 114.703C332.013 114.703 333.339 113.377 333.339 111.742C333.339 110.107 332.013 108.781 330.378 108.781C328.743 108.781 327.417 110.107 327.417 111.742C327.417 113.377 328.743 114.703 330.378 114.703Z" fill="#6C63FF"/>
<path d="M8.82304 218.177C13.6478 218.177 17.559 214.266 17.559 209.441C17.559 204.616 13.6478 200.705 8.82304 200.705C3.99828 200.705 0.0870361 204.616 0.0870361 209.441C0.0870361 214.266 3.99828 218.177 8.82304 218.177Z" fill="#2F2E41"/>
<path d="M40.489 235.375L36.089 231.098L27.253 233.843L28.102 244.074L46.269 243.23L40.688 235.647L40.489 235.375Z" fill="#FBBEBE"/>
<path d="M30.865 235.286C38.665 235.286 44.988 228.963 44.988 221.163C44.988 213.363 38.665 207.04 30.865 207.04C23.0651 207.04 16.742 213.363 16.742 221.163C16.742 228.963 23.0651 235.286 30.865 235.286Z" fill="#FBBEBE"/>
<path d="M118.545 253.502C118.545 253.502 135.896 283.32 140.025 287.796C141.989 289.999 144.081 292.084 146.291 294.04C146.291 294.04 144.349 300.479 141.258 300.249C139.496 300.143 137.768 299.717 136.158 298.992C136.158 298.992 134.778 295.415 132.371 293.846C129.964 292.277 110.299 272.931 110.758 266.746C111.217 260.561 118.545 253.502 118.545 253.502Z" fill="#2F2E41"/>
<path d="M56.7531 296.053C56.7531 296.053 75.253 310.412 100.395 296.92L102.562 295.326C102.562 295.326 98.905 303.552 98.562 305.782C98.169 308.368 88.649 323.515 87.095 324.241C86.3362 324.508 85.6745 324.995 85.195 325.641L91.7881 332.897L94.226 331.103C94.226 331.103 103.726 317.637 106.51 315.174C109.294 312.711 122.534 287.307 122.534 287.307C122.534 287.307 127.598 277.735 114.96 277.015C102.322 276.295 96.507 279.74 96.507 279.74L74.078 283.303L56.7531 296.053Z" fill="#2F2E41"/>
<path d="M146.504 292.63L155.861 299.104C155.861 299.104 167.799 302.844 160.445 305.333C153.091 307.822 133.713 308.722 133.274 305.288C132.835 301.854 134.038 296.449 135.005 296.744C135.972 297.039 142.682 298.783 146.504 292.63Z" fill="#2F2E41"/>
<path d="M95.0611 328.876L96.7931 338.387C96.7931 338.387 101.718 347.805 95.8051 344.887C89.8921 341.969 77.7051 330.864 79.5051 328.537C81.3051 326.21 85.2741 323.686 85.6771 324.444C86.0801 325.202 89.0691 330.276 95.0611 328.876Z" fill="#2F2E41"/>
<path d="M77.219 286.419C77.219 286.419 64.64 301.102 57.008 297.535C49.376 293.968 18.137 252.658 21.708 245.023C25.279 237.388 26.471 239.013 26.471 239.013L42.599 240.504L37.958 233.064C38.6139 232.616 39.4152 232.434 40.2003 232.553C40.9854 232.673 41.6961 233.085 42.189 233.708C44.254 235.946 52.543 241.536 55.431 249.432C58.319 257.328 66.797 256.932 66.797 256.932L77.219 286.419Z" fill="white"/>
<path d="M128.004 256.144L106.204 279.284L86.6761 244.802L105.241 222.372L128.004 256.144Z" fill="#3F3D56"/>
<path d="M126.358 255.893L106.669 276.228L88.827 244.892L105.189 224.292L126.358 255.893Z" fill="white"/>
<path d="M105.136 278.4L106.204 279.284L105.519 280.623L75.036 289.695L74.748 288.651L76.135 287.217L105.136 278.4Z" fill="#B3B3B3"/>
<path d="M106.475 279.085L74.909 288.954L55.667 252.595L86.676 244.806L106.475 279.085Z" fill="#D0CDE1"/>
<path d="M104.099 274.154L102.745 275.154L87.715 249.054L89.268 248.328L104.099 274.154Z" fill="#3F3D56"/>
<path d="M100.991 275.608L87.638 279.59L72.48 252.748L85.69 249.707L100.991 275.608Z" fill="#3F3D56"/>
<path d="M63.373 255.692L66.138 254.91C66.138 254.91 81.556 253.167 81.781 258.01C82.006 262.853 64.069 260.61 64.069 260.61L61.677 257.36L63.373 255.692Z" fill="#FBBEBE"/>
<path d="M76.896 277.471L80.744 275.892C80.744 275.892 92.359 270.684 89.027 267.292C85.695 263.9 75.418 269.792 75.418 269.792L73.451 271.657L76.896 277.471Z" fill="#FBBEBE"/>
<path d="M73.465 269.975C73.465 269.975 79.73 276.219 78.305 277.686C76.88 279.153 53.505 298.445 47.705 292.272C41.905 286.099 13.674 255.106 24.661 252.449C35.648 249.792 38.551 256.005 38.551 256.005L53.051 280.82L73.465 269.975Z" fill="white"/>
<path d="M54.706 251.006L64.998 254.496L64.83 261.926L53.945 260.751L54.706 251.006Z" fill="white"/>
<path opacity="0.2" d="M63.982 273.823L52.893 280.314L40.224 260.829L52.454 276.88L63.982 273.823Z" fill="black"/>
<path d="M24.666 233.883C33.9522 233.883 41.48 226.355 41.48 217.069C41.48 207.783 33.9522 200.255 24.666 200.255C15.3799 200.255 7.85204 207.783 7.85204 217.069C7.85204 226.355 15.3799 233.883 24.666 233.883Z" fill="#2F2E41"/>
<path d="M115.514 257.611L103.746 240.389L108.737 234.211L120.97 251.93L115.514 257.611Z" fill="#6C63FF"/>
<path d="M115.182 264.535L97.259 238.479L98.143 237.411L115.982 263.529L115.182 264.535Z" fill="#E6E6E6"/>
<path d="M112.872 267.07L94.949 241.014L95.833 239.946L113.672 266.064L112.872 267.07Z" fill="#E6E6E6"/>
<path d="M110.905 268.935L92.982 242.879L93.866 241.811L111.705 267.929L110.905 268.935Z" fill="#E6E6E6"/>
<path d="M32.112 205.844H37.312C39.9456 205.844 42.4714 206.89 44.3336 208.752C46.1958 210.615 47.242 213.14 47.242 215.774H32.112V205.844Z" fill="#2F2E41"/>
<path d="M103.759 199.525L102.816 199.455C102.779 199.945 102.753 200.438 102.722 200.93L98.49 200.788L102.93 209.107L107.916 201.107L103.668 200.965C103.701 200.483 103.723 200.003 103.759 199.525Z" fill="#3F3D56"/>
<path d="M128.583 131.712L129.335 132.286C130.463 130.809 131.64 129.335 132.835 127.904L132.109 127.298C130.905 128.739 129.719 130.224 128.583 131.712Z" fill="#3F3D56"/>
<path d="M135.827 123.042L136.527 123.68C137.782 122.306 139.084 120.942 140.398 119.624L139.728 118.956C138.403 120.283 137.091 121.658 135.827 123.042Z" fill="#3F3D56"/>
<path d="M143.802 115.046L144.442 115.746C145.814 114.486 147.231 113.246 148.653 112.046L148.045 111.322C146.611 112.523 145.184 113.776 143.802 115.046Z" fill="#3F3D56"/>
<path d="M122.128 140.99L122.928 141.495C123.922 139.922 124.966 138.349 126.028 136.819L125.252 136.279C124.181 137.825 123.129 139.405 122.128 140.99Z" fill="#3F3D56"/>
<path d="M152.445 107.784L153.021 108.534C154.499 107.399 156.021 106.285 157.539 105.221L156.997 104.446C155.466 105.518 153.934 106.641 152.445 107.784Z" fill="#3F3D56"/>
<path d="M116.517 150.804L117.358 151.236C118.21 149.579 119.111 147.919 120.036 146.302L119.215 145.832C118.283 147.462 117.375 149.135 116.517 150.804Z" fill="#3F3D56"/>
<path d="M107.395 177.423L106.479 177.187C106.012 179.001 105.579 180.852 105.193 182.687L106.118 182.882C106.503 181.061 106.932 179.224 107.395 177.423Z" fill="#3F3D56"/>
<path d="M161.69 101.313L162.197 102.113C163.764 101.113 165.376 100.14 166.987 99.213L166.515 98.3929C164.892 99.3249 163.269 100.308 161.69 101.313Z" fill="#3F3D56"/>
<path d="M105.086 188.393L104.153 188.24C103.853 190.086 103.583 191.967 103.36 193.831L104.299 193.943C104.52 192.093 104.785 190.226 105.086 188.393Z" fill="#3F3D56"/>
<path d="M111.796 161.085L112.672 161.441C113.372 159.715 114.123 157.981 114.901 156.286L114.042 155.891C113.258 157.599 112.502 159.347 111.796 161.085Z" fill="#3F3D56"/>
<path d="M108.009 171.751L108.909 172.027C109.454 170.243 110.047 168.447 110.671 166.691L109.78 166.375C109.156 168.144 108.558 169.953 108.009 171.751Z" fill="#3F3D56"/>
<path d="M225.663 82.464C227.517 82.4 229.405 82.374 231.272 82.392L231.28 81.446C229.4 81.428 227.497 81.454 225.63 81.519L225.663 82.464Z" fill="#3F3D56"/>
<path d="M171.464 95.686L171.899 96.525C173.55 95.669 175.241 94.84 176.924 94.061L176.524 93.203C174.831 93.988 173.127 94.824 171.464 95.686Z" fill="#3F3D56"/>
<path d="M248.038 83.6429C249.883 83.9039 251.744 84.2099 253.572 84.5519L253.746 83.6219C251.905 83.2779 250.03 82.9689 248.171 82.7059L248.038 83.6429Z" fill="#3F3D56"/>
<path d="M259.06 85.705C260.871 86.128 262.699 86.598 264.491 87.105L264.747 86.194C262.941 85.686 261.1 85.213 259.275 84.787L259.06 85.705Z" fill="#3F3D56"/>
<path d="M269.854 88.7399C271.62 89.3219 273.398 89.9529 275.139 90.6149L275.475 89.7309C273.721 89.0639 271.93 88.4309 270.15 87.8419L269.854 88.7399Z" fill="#3F3D56"/>
<path d="M236.876 82.5629C238.738 82.6629 240.62 82.8009 242.469 82.9799L242.56 82.0389C240.697 81.8589 238.801 81.7169 236.925 81.6189L236.876 82.5629Z" fill="#3F3D56"/>
<path d="M214.37 82.404L214.485 83.343C216.328 83.116 218.205 82.927 220.062 82.781L219.988 81.838C218.117 81.985 216.227 82.177 214.37 82.404Z" fill="#3F3D56"/>
<path d="M192.309 87.134L192.589 88.034C194.366 87.484 196.18 86.966 197.98 86.495L197.741 85.58C195.931 86.058 194.099 86.579 192.309 87.134Z" fill="#3F3D56"/>
<path d="M181.693 90.947L182.052 91.822C183.771 91.116 185.528 90.441 187.272 89.814L186.952 88.924C185.195 89.556 183.425 90.232 181.693 90.947Z" fill="#3F3D56"/>
<path d="M203.234 84.2779L203.434 85.2029C205.251 84.8139 207.103 84.4589 208.94 84.1499L208.783 83.2169C206.931 83.5289 205.064 83.8849 203.234 84.2779Z" fill="#3F3D56"/>
<path d="M289.251 96.462L283.966 88.652L282.108 92.477C281.658 92.277 281.208 92.071 280.762 91.877L280.386 92.745C280.825 92.935 281.259 93.134 281.695 93.329L279.846 97.136L289.251 96.462Z" fill="#3F3D56"/>
</svg>
