<svg width="862" height="711" viewBox="0 0 862 711" fill="none" xmlns="http://www.w3.org/2000/svg">
<g opacity="0.8">
<path opacity="0.8" d="M443.903 161.342H440.173V59.147C440.173 43.4602 433.941 28.4159 422.848 17.3237C411.756 6.23151 396.712 -2.24195e-09 381.025 0H164.511C148.824 0 133.779 6.23165 122.687 17.3241C111.594 28.4165 105.363 43.461 105.363 59.148V619.8C105.363 627.567 106.893 635.259 109.865 642.435C112.838 649.611 117.194 656.132 122.687 661.624C128.179 667.116 134.7 671.473 141.876 674.446C149.052 677.418 156.743 678.948 164.511 678.948H381.02C388.788 678.949 396.48 677.419 403.656 674.447C410.833 671.475 417.354 667.118 422.847 661.626C428.34 656.133 432.697 649.613 435.67 642.436C438.643 635.26 440.173 627.568 440.173 619.8V234.086H443.903V161.342Z" fill="#3F3D56"/>
<path opacity="0.8" d="M382.966 16.787H354.704C356.004 19.9734 356.5 23.4307 356.149 26.8541C355.798 30.2776 354.611 33.5622 352.691 36.4186C350.772 39.275 348.179 41.6155 345.142 43.2338C342.105 44.8522 338.716 45.6988 335.275 45.699H211.237C207.795 45.6986 204.407 44.852 201.37 43.2337C198.333 41.6154 195.741 39.2751 193.821 36.4189C191.901 33.5627 190.714 30.2783 190.362 26.8549C190.011 23.4316 190.507 19.9745 191.807 16.788H165.407C153.693 16.7888 142.46 21.4421 134.177 29.7246C125.894 38.0071 121.24 49.2405 121.239 60.954V620.784C121.239 632.499 125.893 643.733 134.177 652.017C142.46 660.3 153.695 664.954 165.41 664.954H382.966C394.681 664.954 405.916 660.3 414.199 652.017C422.483 643.733 427.137 632.498 427.137 620.783V60.954C427.137 49.2391 422.483 38.004 414.199 29.7203C405.916 21.4367 394.681 16.783 382.966 16.783V16.787ZM378.218 276.494C378.209 279.526 377.001 282.43 374.857 284.574C372.713 286.718 369.808 287.926 366.777 287.935H311.477C308.445 287.926 305.54 286.718 303.397 284.574C301.253 282.43 300.045 279.526 300.036 276.494V273.634C300.045 270.602 301.253 267.698 303.397 265.554C305.54 263.41 308.445 262.202 311.477 262.193H366.777C369.808 262.202 372.713 263.41 374.857 265.554C377.001 267.698 378.209 270.602 378.218 273.634V276.494ZM384.418 225.962C384.409 228.994 383.201 231.898 381.057 234.042C378.913 236.186 376.008 237.394 372.977 237.403H174.661C171.629 237.394 168.724 236.186 166.581 234.042C164.437 231.898 163.229 228.994 163.22 225.962V223.102C163.229 220.07 164.437 217.166 166.581 215.022C168.724 212.878 171.629 211.67 174.661 211.661H372.974C376.005 211.67 378.91 212.878 381.054 215.022C383.198 217.166 384.406 220.07 384.415 223.102L384.418 225.962ZM384.418 175.43C384.409 178.462 383.201 181.366 381.057 183.51C378.913 185.654 376.008 186.862 372.977 186.871H174.661C171.629 186.862 168.724 185.654 166.581 183.51C164.437 181.366 163.229 178.462 163.22 175.43V172.57C163.229 169.538 164.437 166.634 166.581 164.49C168.724 162.346 171.629 161.138 174.661 161.129H372.974C376.005 161.138 378.91 162.346 381.054 164.49C383.198 166.634 384.406 169.538 384.415 172.57L384.418 175.43ZM384.418 124.898C384.409 127.93 383.201 130.834 381.057 132.978C378.913 135.122 376.008 136.33 372.977 136.339H174.661C171.629 136.33 168.724 135.122 166.581 132.978C164.437 130.834 163.229 127.93 163.22 124.898V122.038C163.229 119.006 164.437 116.102 166.581 113.958C168.724 111.814 171.629 110.606 174.661 110.597H372.974C376.005 110.606 378.91 111.814 381.054 113.958C383.198 116.102 384.406 119.006 384.415 122.038L384.418 124.898Z" fill="white"/>
<path opacity="0.8" d="M171.072 231.683C174.758 231.683 177.746 228.695 177.746 225.009C177.746 221.323 174.758 218.335 171.072 218.335C167.386 218.335 164.398 221.323 164.398 225.009C164.398 228.695 167.386 231.683 171.072 231.683Z" fill="white"/>
<path opacity="0.8" d="M191.999 231.683C195.685 231.683 198.673 228.695 198.673 225.009C198.673 221.323 195.685 218.335 191.999 218.335C188.313 218.335 185.325 221.323 185.325 225.009C185.325 228.695 188.313 231.683 191.999 231.683Z" fill="white"/>
<path opacity="0.8" d="M212.924 231.683C216.61 231.683 219.598 228.695 219.598 225.009C219.598 221.323 216.61 218.335 212.924 218.335C209.238 218.335 206.25 221.323 206.25 225.009C206.25 228.695 209.238 231.683 212.924 231.683Z" fill="white"/>
<path opacity="0.8" d="M233.851 231.683C237.537 231.683 240.525 228.695 240.525 225.009C240.525 221.323 237.537 218.335 233.851 218.335C230.165 218.335 227.177 221.323 227.177 225.009C227.177 228.695 230.165 231.683 233.851 231.683Z" fill="white"/>
<path opacity="0.8" d="M302.088 282.215C305.774 282.215 308.762 279.227 308.762 275.541C308.762 271.855 305.774 268.867 302.088 268.867C298.402 268.867 295.414 271.855 295.414 275.541C295.414 279.227 298.402 282.215 302.088 282.215Z" fill="white"/>
<path opacity="0.8" d="M323.013 282.215C326.699 282.215 329.687 279.227 329.687 275.541C329.687 271.855 326.699 268.867 323.013 268.867C319.327 268.867 316.339 271.855 316.339 275.541C316.339 279.227 319.327 282.215 323.013 282.215Z" fill="white"/>
<path opacity="0.8" d="M343.94 282.215C347.626 282.215 350.614 279.227 350.614 275.541C350.614 271.855 347.626 268.867 343.94 268.867C340.254 268.867 337.266 271.855 337.266 275.541C337.266 279.227 340.254 282.215 343.94 282.215Z" fill="white"/>
<path opacity="0.8" d="M377.017 362.013H150.846C148.215 362.013 145.61 362.531 143.179 363.538C140.748 364.545 138.54 366.021 136.679 367.881C134.819 369.741 133.343 371.95 132.336 374.381C131.329 376.812 130.811 379.417 130.811 382.048V492.244C130.811 497.558 132.922 502.654 136.679 506.411C140.436 510.168 145.532 512.279 150.846 512.279H377.017C382.331 512.279 387.427 510.168 391.184 506.411C394.941 502.654 397.052 497.558 397.052 492.244V382.049C397.052 379.418 396.534 376.812 395.527 374.382C394.52 371.951 393.045 369.742 391.184 367.881C389.324 366.021 387.115 364.545 384.684 363.538C382.254 362.531 379.648 362.013 377.017 362.013ZM145.25 375.681C145.697 375.6 156.287 373.798 165.057 379.075C173.827 384.352 177.195 394.553 177.334 394.984L177.689 396.084L176.551 396.284C174.928 396.537 173.286 396.658 171.643 396.644C166.43 396.744 161.286 395.447 156.743 392.889C147.974 387.613 144.606 377.413 144.467 376.983L144.112 375.883L145.25 375.681ZM194.35 477.99H154.007C151.065 477.99 148.243 476.821 146.163 474.741C144.082 472.66 142.914 469.839 142.914 466.896C142.914 463.954 144.082 461.133 146.163 459.052C148.243 456.972 151.065 455.803 154.007 455.803H194.346C197.288 455.803 200.11 456.972 202.19 459.052C204.271 461.133 205.44 463.954 205.44 466.896C205.44 469.839 204.271 472.66 202.19 474.741C200.11 476.821 197.288 477.99 194.346 477.99H194.35ZM377.895 475.973C377.885 479.179 376.607 482.251 374.34 484.518C372.073 486.785 369.001 488.063 365.795 488.073H335.536C332.33 488.063 329.258 486.785 326.991 484.518C324.724 482.251 323.446 479.179 323.436 475.973V457.82C323.446 454.614 324.724 451.542 326.991 449.275C329.258 447.008 332.33 445.73 335.536 445.72H365.791C368.997 445.73 372.069 447.008 374.336 449.275C376.603 451.542 377.881 454.614 377.891 457.82L377.895 475.973Z" fill="#6C63FF"/>
<path opacity="0.8" d="M338.633 472.232H326.47C325.601 472.232 324.768 472.577 324.154 473.191C323.54 473.805 323.195 474.638 323.195 475.507C323.195 476.375 323.54 477.209 324.154 477.823C324.768 478.437 325.601 478.782 326.47 478.782H338.635C339.503 478.782 340.336 478.437 340.951 477.823C341.565 477.209 341.91 476.375 341.91 475.507C341.91 474.638 341.565 473.805 340.951 473.191C340.336 472.577 339.503 472.232 338.635 472.232H338.633Z" fill="#3F3D56"/>
<path opacity="0.8" d="M360.058 472.232H347.894C347.026 472.232 346.193 472.577 345.578 473.191C344.964 473.805 344.619 474.638 344.619 475.507C344.619 476.375 344.964 477.209 345.578 477.823C346.193 478.437 347.026 478.782 347.894 478.782H360.059C360.928 478.782 361.761 478.437 362.375 477.823C362.989 477.209 363.334 476.375 363.334 475.507C363.334 474.638 362.989 473.805 362.375 473.191C361.761 472.577 360.928 472.232 360.059 472.232H360.058Z" fill="#3F3D56"/>
<path opacity="0.8" d="M338.632 462.987H326.468C325.599 462.987 324.766 463.332 324.152 463.946C323.538 464.56 323.193 465.394 323.193 466.262C323.193 467.131 323.538 467.964 324.152 468.578C324.766 469.192 325.599 469.537 326.468 469.537H338.633C339.501 469.537 340.334 469.192 340.949 468.578C341.563 467.964 341.908 467.131 341.908 466.262C341.908 465.394 341.563 464.56 340.949 463.946C340.334 463.332 339.501 462.987 338.633 462.987H338.632Z" fill="#3F3D56"/>
<path opacity="0.8" d="M360.056 462.987H347.892C347.024 462.987 346.191 463.332 345.576 463.946C344.962 464.56 344.617 465.394 344.617 466.262C344.617 467.131 344.962 467.964 345.576 468.578C346.191 469.192 347.024 469.537 347.892 469.537H360.057C360.926 469.537 361.759 469.192 362.373 468.578C362.987 467.964 363.332 467.131 363.332 466.262C363.332 465.394 362.987 464.56 362.373 463.946C361.759 463.332 360.926 462.987 360.057 462.987H360.056Z" fill="#3F3D56"/>
<path opacity="0.8" d="M338.632 453.929H326.468C325.599 453.929 324.766 454.274 324.152 454.888C323.538 455.502 323.193 456.335 323.193 457.204C323.193 458.073 323.538 458.906 324.152 459.52C324.766 460.134 325.599 460.479 326.468 460.479H338.633C339.501 460.479 340.334 460.134 340.949 459.52C341.563 458.906 341.908 458.073 341.908 457.204C341.908 456.335 341.563 455.502 340.949 454.888C340.334 454.274 339.501 453.929 338.633 453.929H338.632Z" fill="#3F3D56"/>
<path opacity="0.8" d="M360.056 453.929H347.892C347.024 453.929 346.191 454.274 345.576 454.888C344.962 455.502 344.617 456.335 344.617 457.204C344.617 458.073 344.962 458.906 345.576 459.52C346.191 460.134 347.024 460.479 347.892 460.479H360.057C360.926 460.479 361.759 460.134 362.373 459.52C362.987 458.906 363.332 458.073 363.332 457.204C363.332 456.335 362.987 455.502 362.373 454.888C361.759 454.274 360.926 453.929 360.057 453.929H360.056Z" fill="#3F3D56"/>
<path opacity="0.8" d="M519.091 403.119H489.091V433.119H519.091V403.119Z" fill="#E6E6E6"/>
<path opacity="0.8" d="M455.554 421.436H504.015V469.901H455.554V421.436ZM501.912 423.543H457.661V467.794H501.915L501.912 423.543Z" fill="#3F3D56"/>
<path opacity="0.8" d="M30 160.119H0V190.119H30V160.119Z" fill="#E6E6E6"/>
<path opacity="0.8" d="M64.2652 171.735H15.8042V123.27H64.2652V171.735ZM17.9072 169.628H62.1652V125.377H17.9112L17.9072 169.628Z" fill="#3F3D56"/>
<path opacity="0.8" d="M657.281 696.862H644.364L638.219 647.04H657.283L657.281 696.862Z" fill="#FFB8B8"/>
<path opacity="0.8" d="M635.253 693.171H660.164V708.857H619.564C619.564 706.797 619.97 704.757 620.758 702.853C621.546 700.95 622.702 699.221 624.159 697.764C625.616 696.307 627.346 695.152 629.249 694.364C631.153 693.576 633.193 693.17 635.253 693.171Z" fill="#2F2E41"/>
<path opacity="0.8" d="M711.703 696.862H698.786L692.641 647.04H711.705L711.703 696.862Z" fill="#FFB8B8"/>
<path opacity="0.8" d="M696.49 693.171H721.401V708.857H680.801C680.801 704.697 682.453 700.707 685.395 697.766C688.336 694.824 692.326 693.172 696.486 693.172L696.49 693.171Z" fill="#2F2E41"/>
<path opacity="0.8" d="M592.846 518.686C591.917 517.317 591.299 515.761 591.036 514.127C590.773 512.493 590.872 510.822 591.325 509.23C591.778 507.639 592.575 506.166 593.658 504.916C594.742 503.666 596.087 502.668 597.598 501.994L641.507 380.971L663.113 392.762L612.979 508.416C613.943 511.029 613.916 513.906 612.901 516.5C611.886 519.095 609.955 521.227 607.474 522.493C604.992 523.758 602.133 524.07 599.437 523.368C596.741 522.667 594.396 521.001 592.846 518.686Z" fill="#FFB8B8"/>
<path opacity="0.8" d="M705.104 541.426C703.668 540.603 702.431 539.475 701.478 538.122C700.526 536.769 699.881 535.224 699.591 533.595C699.3 531.966 699.37 530.293 699.796 528.694C700.222 527.095 700.994 525.609 702.056 524.34L688.456 396.319L713.045 397.442L718.698 523.368C720.713 525.294 721.95 527.892 722.177 530.67C722.403 533.448 721.602 536.212 719.926 538.438C718.25 540.665 715.815 542.199 713.083 542.75C710.351 543.3 707.512 542.829 705.104 541.426Z" fill="#FFB8B8"/>
<path opacity="0.8" d="M673.986 358.554C688.277 358.554 699.863 346.969 699.863 332.677C699.863 318.386 688.277 306.8 673.986 306.8C659.694 306.8 648.109 318.386 648.109 332.677C648.109 346.969 659.694 358.554 673.986 358.554Z" fill="#FFB8B8"/>
<path opacity="0.8" d="M712.325 512.31H634.31L634.404 511.703C634.544 510.796 648.304 420.632 638.157 391.134C637.138 388.235 637.228 385.062 638.409 382.225C639.589 379.389 641.778 377.089 644.552 375.769C659.062 368.936 686.914 360.522 710.422 380.941C713.881 383.995 716.583 387.812 718.312 392.091C720.042 396.369 720.753 400.991 720.388 405.591L712.325 512.31Z" fill="#CCCCCC"/>
<path opacity="0.8" d="M651.829 433.957L616.706 426.831L633.171 387.817C633.655 385.942 634.504 384.18 635.669 382.633C636.834 381.086 638.292 379.784 639.96 378.8C641.628 377.816 643.474 377.171 645.392 376.901C647.309 376.63 649.261 376.74 651.137 377.225C653.012 377.709 654.773 378.557 656.32 379.722C657.867 380.887 659.17 382.345 660.154 384.014C661.137 385.682 661.783 387.527 662.053 389.445C662.323 391.363 662.213 393.315 661.729 395.19L651.829 433.957Z" fill="#CCCCCC"/>
<path opacity="0.8" d="M686.893 447.188L684.781 398.788C683.181 389.688 688.389 381.088 696.399 379.681C704.409 378.274 712.236 384.591 713.845 393.757L721.782 438.985L686.893 447.188Z" fill="#CCCCCC"/>
<path opacity="0.8" d="M709.712 506.515C722.265 554.323 723.635 615.107 720.248 681.415L703.391 679.308L672.836 552.873L655.979 681.411L637.014 680.357C631.349 610.789 625.829 551.063 634.907 511.783L709.712 506.515Z" fill="#2F2E41"/>
<path opacity="0.8" d="M690.949 352.676C686.121 357.818 677.156 355.058 676.527 348.033C676.478 347.488 676.481 346.939 676.538 346.394C676.863 343.282 678.66 340.457 678.23 337.171C678.132 336.353 677.828 335.574 677.345 334.907C673.498 329.756 664.468 337.207 660.837 332.548C658.611 329.689 661.228 325.186 659.519 321.991C657.264 317.773 650.586 319.854 646.398 317.544C641.738 314.974 642.017 307.824 645.084 303.476C648.825 298.176 655.384 295.343 661.861 294.935C668.338 294.527 674.771 296.278 680.818 298.635C687.689 301.313 694.502 305.013 698.73 311.054C703.872 318.401 704.367 328.278 701.795 336.869C700.231 342.093 694.896 348.476 690.949 352.676Z" fill="#2F2E41"/>
<path opacity="0.8" d="M860.305 710.119H458.888C458.614 710.111 458.354 709.996 458.164 709.799C457.973 709.603 457.866 709.339 457.866 709.066C457.866 708.792 457.973 708.528 458.164 708.332C458.354 708.135 458.614 708.02 458.888 708.012H860.305C860.446 708.008 860.586 708.032 860.718 708.083C860.85 708.134 860.97 708.211 861.071 708.309C861.172 708.407 861.253 708.525 861.308 708.655C861.363 708.785 861.391 708.924 861.391 709.066C861.391 709.207 861.363 709.346 861.308 709.476C861.253 709.606 861.172 709.724 861.071 709.822C860.97 709.92 860.85 709.997 860.718 710.048C860.586 710.099 860.446 710.123 860.305 710.119Z" fill="#3F3D56"/>
</g>
</svg>
